<?xml version="1.0" encoding="utf-8"?>
<!-- Generator: Adobe Illustrator 18.0.0, SVG Export Plug-In . SVG Version: 6.00 Build 0)  -->
<!DOCTYPE svg PUBLIC "-//W3C//DTD SVG 1.1//EN" "http://www.w3.org/Graphics/SVG/1.1/DTD/svg11.dtd">
<svg version="1.1" xmlns="http://www.w3.org/2000/svg" xmlns:xlink="http://www.w3.org/1999/xlink" x="0px" y="0px"
	 viewBox="0 0 100 100" enable-background="new 0 0 100 100" xml:space="preserve">
<g id="accessories" display="none">
	<g id="XMLID_8_" display="inline">
		<g>
			<path fill="#FFFFFF" d="M60.1,35.8c-0.5-3,0.7-5.4,1.2-5.1c-0.8,1.2-0.9,2.8,0.9,4.5c1.2,1.1,2.1,2.1,3,2.8
				c1.2,1,2.2,1.6,3.7,1.6c2.5,0,3.6-0.3,3.6-0.3s0.6-0.1,1.4-0.3c1.1-0.4,2.6-1,2.9-2.2c0.5-1.9,1.4-3.9,0-5.1
				c-1.4-1.2-3.7-2.7-4.5-2.2c0.2-0.2,0.3-0.4,0.3-0.8l0.1,0c0,0,1.2,0.4,2.1,0.6c0.9,0.2,1.4,0.6,3.1,1.9c1.7,1.3,1.1,2.4,2.1,4.4
				c1.1,2,0,7.2,0,7.2l-1.6,4.7L75,56.1c0,0-3.4,8.9-4.5,12.4C69.4,72,71.6,76,71.6,76s0,0-1.6-1.7s-3.7-5.8-3.7-5.8
				s-3.7-11.6-5.8-19.8C58.5,40.6,60.1,35.8,60.1,35.8z"/>
			<path fill="#FFFFFF" d="M76.6,31.8c1.4,1.2,0.5,3.2,0,5.1c-0.3,1.1-1.8,1.8-2.9,2.2v0c2.1-2.2-3.5-5.9-3.5-5.9
				c0.2-0.2,0.3-0.7,0.3-1.4c0-0.4,0-0.7-0.1-1h0.1c0,0,0.4-0.3,1.5-1c0.1-0.1,0.1-0.1,0.2-0.2c0,0,0,0,0,0
				C73,29.1,75.2,30.6,76.6,31.8z"/>
			<path fill="#FFFFFF" d="M71,21.7c0,0,1.8,1.7,1.6,3.7c-0.1,1.4,0.1,2.6,0,3.4c-0.1,0.3-0.2,0.5-0.3,0.8c0,0,0,0,0,0
				c-0.1,0.1-0.1,0.1-0.2,0.2c-1,0.7-1.5,1-1.5,1h-0.1c-0.1-1.1-0.1-1.5-0.4-1.6c-0.2-0.1-0.3-0.2-0.5-0.3l0.1-0.1
				c0,0,0.8-1.7,1.3-3.6S71,21.7,71,21.7z"/>
			<path fill="#FFFFFF" d="M70.5,31.8c0,0.7-0.1,1.1-0.3,1.4c-0.3,0.4-0.9,0.3-1.4,0.3c-0.6,0-0.6-0.1-0.8-1.2
				c0-0.2-0.1-0.5-0.1-0.8c0-0.3-0.1-0.5-0.1-0.7c0-1.4,0.7-1.9,0.7-1.9c0.5-0.2,0.7-0.2,0.9-0.1c0.2,0.1,0.3,0.3,0.5,0.3
				c0.4,0.1,0.4,0.5,0.4,1.6C70.5,31,70.5,31.4,70.5,31.8z"/>
			<path fill="#FFFFFF" d="M67.9,31.4C68,31.7,68,32,68,32.2c0,0-4.3,2.3-2.9,5.9c-0.9-0.7-1.8-1.7-3-2.8c-1.8-1.7-1.7-3.3-0.9-4.5
				c1.1-1.7,3.5-2.7,4.2-2c0.1,0.2,0.2,0.3,0.3,0.5c0,0.1,0.1,0.1,0.1,0.2c0.5,0.6,1.1,1.1,2,1.4C67.8,31,67.9,31.2,67.9,31.4z"/>
			<path fill="#FFFFFF" d="M68.6,28.8c0,0-0.8,0.5-0.7,1.9c-0.9-0.3-1.5-0.8-2-1.4c0-0.1-0.1-0.1-0.1-0.2c-0.1-0.1-0.2-0.3-0.3-0.5
				c-1.2-2.3-0.3-5.3-0.3-5.3C65.2,25.2,68.6,28.8,68.6,28.8z"/>
			<path fill="#FFFFFF" d="M50.9,38c1.6,0.8,6.3,2.9,6.2,8c-0.2,5.1-1.7,13.3-1.7,13.3s-0.7,4.7-3.9,4.7c-1.2,0-3.3,0-5.5,0
				c-3.7,0-7.6,0-7.6,0h-0.1c0,0-0.2,0-0.5,0c-1.3,0-4.7,0-7.8,0c-1.9,0-3.6,0-4.7,0c-3.2,0-3.9-4.7-3.9-4.7s-1.6-8.2-1.7-13.3
				c-0.2-5.1,4.5-7.2,6.2-8c0.8-0.4,2.6-0.8,4-1c1.3-0.2,2.4-0.3,2.4-0.3h1.1h4.6h0.4h5.1h1.1c0,0,1.1,0.1,2.4,0.3
				C48.3,37.2,50,37.5,50.9,38z M47.7,41.4c0-1.3-1.1-2.4-2.4-2.4c-1.3,0-2.4,1.1-2.4,2.4s1.1,2.4,2.4,2.4
				C46.6,43.8,47.7,42.8,47.7,41.4z M33.7,41.4c0-1.3-1.1-2.4-2.4-2.4c-1.3,0-2.4,1.1-2.4,2.4s1.1,2.4,2.4,2.4
				C32.6,43.8,33.7,42.8,33.7,41.4z"/>
			<path fill="#FFFFFF" d="M29.7,77.1c4.5-0.3,4.8-4,4.8-4s0.4-5.2-4.8-5.3c-5.2,0.1-4.8,5.4-4.8,5.4S25.2,76.8,29.7,77.1z
				 M40.2,68.6c0,0,0.9-0.5,2.2-1c1-0.4,2.3-0.8,3.4-0.9c0.1,0,0.1,0,0.2,0c2.3,0,5.2,1.1,5.2,1.1l2.2,0.4l0.3,2.1l-0.8,0.6
				c0,0,0,0.2-0.1,0.6c-0.2,0.8-0.6,2.4-1.4,3.8c-0.9,1.6-2.3,3.1-4.3,3h-0.1h-2.4c0,0-4.4-0.4-5-6.6c0-0.2,0-0.3,0-0.5
				c0,0,0.2-1.3-1.7-1.4c0,0-0.1,0-0.1,0c-1.4,0-1.6,0.8-1.6,1.2c0,0,0,0.1,0,0.1c0,0.2,0,0.4,0,0.6c-0.6,6.2-4.9,6.6-4.9,6.6h-2.4
				h-0.1c-2,0-3.4-1.4-4.3-3c-0.8-1.4-1.2-3.1-1.4-3.9c-0.1-0.4-0.1-0.6-0.1-0.6l-0.8-0.6l0.3-2.1l2.2-0.4c0,0,3.1-1.1,5.4-1.1
				c1,0,2.1,0.4,3.1,0.8c1.4,0.5,2.5,1.2,2.5,1.2c0.6-0.5,2.1-0.4,2.4-0.4c0,0,0,0,0.1,0C38.3,68.2,39.6,68.1,40.2,68.6z M50.9,73.2
				c0,0,0.4-5.2-4.8-5.4c-5.2,0.1-4.8,5.3-4.8,5.3s0.3,3.7,4.8,4c0,0,0,0,0.1,0C50.5,76.8,50.9,73.2,50.9,73.2z"/>
			<path fill="#FFFFFF" d="M46,67.8c5.2,0.1,4.8,5.4,4.8,5.4s-0.4,3.6-4.8,3.9c0,0-0.1,0-0.1,0c-4.4-0.3-4.8-4-4.8-4
				S40.9,68,46,67.8z"/>
			<path fill="#FFFFFF" d="M38.6,22.9c-6.6,0-6.7,11.3-6.7,11.3l1.3,2.5h-1.1c0,0-1.1,0.1-2.4,0.3l0.8-2.7l0.5-4.4
				c0,0,0.9-8.1,7.3-8.1c6.3,0,7.3,8.1,7.3,8.1l0.5,4.4l0.8,2.7c-1.3-0.2-2.4-0.3-2.4-0.3h-1.1l1.3-2.5
				C44.7,34.2,44.9,23.2,38.6,22.9z"/>
			<path fill="#FFFFFF" d="M45.3,39.1c1.3,0,2.4,1.1,2.4,2.4s-1.1,2.4-2.4,2.4c-1.3,0-2.4-1.1-2.4-2.4S44,39.1,45.3,39.1z"/>
			<path fill="#FFFFFF" d="M42.4,67.5L42.4,67.5c-1.2,0.6-2.1,1.1-2.1,1.1c-0.6-0.5-2-0.4-2.3-0.4c0,0,0,0-0.1,0
				c-0.3,0-1.8-0.1-2.4,0.4c0,0-1.1-0.6-2.5-1.2l0-0.1c0,0,2.1-0.4,4.7-0.4C39.2,67,40.9,67.1,42.4,67.5z"/>
			<path fill="#FFFFFF" d="M39.6,71.2c0,0.2,0,0.3,0,0.5c-2-1.3-3.5,0-3.5,0h0c0-0.2,0-0.4,0-0.6c0,0,0-0.1,0-0.1
				c0-0.4,0.2-1.1,1.6-1.2c0,0,0.1,0,0.1,0C39.8,69.9,39.6,71.2,39.6,71.2z"/>
			<path fill="#FFFFFF" d="M29.6,67.8c5.2,0.1,4.8,5.3,4.8,5.3s-0.3,3.7-4.8,4c-4.5-0.3-4.9-3.9-4.9-3.9S24.4,68,29.6,67.8z"/>
			<path fill="#FFFFFF" d="M31.3,39.1c1.3,0,2.4,1.1,2.4,2.4s-1.1,2.4-2.4,2.4c-1.3,0-2.4-1.1-2.4-2.4S30,39.1,31.3,39.1z"/>
		</g>
		<g>
			<path fill="none" stroke="#231F20" stroke-width="0.5" stroke-miterlimit="10" d="M68.6,28.8c0,0-0.8,0.5-0.7,1.9
				c0,0.2,0,0.4,0.1,0.7C68,31.7,68,32,68,32.2c0.2,1.1,0.3,1.2,0.8,1.2c0.4,0,1,0.1,1.4-0.3c0.2-0.2,0.3-0.7,0.3-1.4
				c0-0.4,0-0.7-0.1-1c-0.1-1.1-0.1-1.5-0.4-1.6c-0.2-0.1-0.3-0.2-0.5-0.3C69.3,28.7,69.1,28.6,68.6,28.8z"/>
			<path fill="none" stroke="#231F20" stroke-width="0.5" stroke-miterlimit="10" d="M72.2,29.6c-0.1,0.1-0.1,0.1-0.2,0.2
				c-1,0.7-1.5,1-1.5,1"/>
			<path fill="none" stroke="#231F20" stroke-width="0.5" stroke-miterlimit="10" d="M69.6,28.7c0,0,0.8-1.7,1.3-3.6
				s0.1-3.4,0.1-3.4s1.8,1.7,1.6,3.7c-0.1,1.4,0.1,2.6,0,3.4c-0.1,0.3-0.2,0.5-0.3,0.8"/>
			<path fill="none" stroke="#231F20" stroke-width="0.5" stroke-miterlimit="10" d="M68.6,28.8c0,0-3.4-3.6-3.4-5.4"/>
			<path fill="none" stroke="#231F20" stroke-width="0.5" stroke-miterlimit="10" d="M65.2,23.4c0,0-0.9,3,0.3,5.3
				c0.1,0.2,0.2,0.3,0.3,0.5c0,0.1,0.1,0.1,0.1,0.2c0.5,0.6,1.1,1.1,2,1.4"/>
			<path fill="none" stroke="#231F20" stroke-width="0.5" stroke-miterlimit="10" d="M65.5,28.7c-0.7-0.6-3.1,0.3-4.2,2
				c-0.8,1.2-0.9,2.8,0.9,4.5c1.2,1.1,2.1,2.1,3,2.8c1.2,1,2.2,1.6,3.7,1.6c2.5,0,3.6-0.3,3.6-0.3s0.6-0.1,1.4-0.3
				c1.1-0.4,2.6-1,2.9-2.2c0.5-1.9,1.4-3.9,0-5.1c-1.4-1.2-3.7-2.7-4.5-2.2c0,0,0,0,0,0"/>
			<path fill="none" stroke="#231F20" stroke-width="0.5" stroke-miterlimit="10" d="M68,32.2c0,0-4.3,2.3-2.9,5.9c0,0,0,0,0,0"/>
			<path fill="none" stroke="#231F20" stroke-width="0.5" stroke-miterlimit="10" d="M70.2,33.1c0,0,5.6,3.6,3.5,5.9"/>
			<path fill="none" stroke="#231F20" stroke-width="0.5" stroke-miterlimit="10" d="M61.3,30.8c-0.5-0.3-1.7,2.1-1.2,5.1
				c0.2,1.4,0.9,2.9,2.1,4.3c3.3,3.7,4.1,7.1,4.1,7.1v3.1"/>
			<path fill="none" stroke="#231F20" stroke-width="0.5" stroke-miterlimit="10" d="M60.1,35.8c0,0-1.6,4.7,0.4,12.9
				c2.1,8.2,5.8,19.8,5.8,19.8s2.1,4.1,3.7,5.8s1.6,1.7,1.6,1.7s-2.2-4-1.1-7.4c1.1-3.4,4.5-12.4,4.5-12.4l3.3-8.4l1.6-4.7
				c0,0,1.1-5.2,0-7.2c-1.1-1.9-0.4-3.1-2.1-4.4c-1.7-1.3-2.2-1.7-3.1-1.9c-0.9-0.2-2.1-0.6-2.1-0.6"/>
			<path fill="none" stroke="#231F20" stroke-width="0.5" stroke-miterlimit="10" d="M28.9,41.4c0,1.3,1.1,2.4,2.4,2.4
				c1.3,0,2.4-1.1,2.4-2.4s-1.1-2.4-2.4-2.4C30,39.1,28.9,40.1,28.9,41.4z"/>
			<path fill="none" stroke="#231F20" stroke-width="0.5" stroke-miterlimit="10" d="M37.8,36.7h-4.6h-1.1c0,0-1.1,0.1-2.4,0.3
				c-1.4,0.2-3.1,0.5-4,1c-1.6,0.8-6.3,2.9-6.2,8c0.2,5.1,1.7,13.3,1.7,13.3s0.7,4.7,3.9,4.7c1,0,2.8,0,4.7,0c3.1,0,6.5,0,7.8,0
				c0.3,0,0.5,0,0.5,0"/>
			<path fill="none" stroke="#231F20" stroke-width="0.5" stroke-miterlimit="10" d="M29.7,37l0.8-2.7l0.5-4.4c0,0,0.9-8.1,7.3-8.1"
				/>
			<path fill="none" stroke="#231F20" stroke-width="0.5" stroke-miterlimit="10" d="M33.2,36.7l-1.3-2.5c0,0,0.1-11.3,6.7-11.3"/>
			<path fill="none" stroke="#231F20" stroke-width="0.5" stroke-miterlimit="10" d="M47.7,41.4c0,1.3-1.1,2.4-2.4,2.4
				c-1.3,0-2.4-1.1-2.4-2.4s1.1-2.4,2.4-2.4C46.6,39.1,47.7,40.1,47.7,41.4z"/>
			<path fill="none" stroke="#231F20" stroke-width="0.5" stroke-miterlimit="10" d="M37.8,36.7h0.4h5.1h1.1c0,0,1.1,0.1,2.4,0.3
				c1.4,0.2,3.1,0.5,4,1c1.6,0.8,6.3,2.9,6.2,8c-0.2,5.1-1.7,13.3-1.7,13.3s-0.7,4.7-3.9,4.7c-1.2,0-3.3,0-5.5,0c-3.7,0-7.6,0-7.6,0
				"/>
			<path fill="none" stroke="#231F20" stroke-width="0.5" stroke-miterlimit="10" d="M46.9,37l-0.8-2.7l-0.5-4.4c0,0-1-8.1-7.3-8.1"
				/>
			<path fill="none" stroke="#231F20" stroke-width="0.5" stroke-miterlimit="10" d="M43.4,36.7l1.3-2.5c0,0,0.2-11-6.1-11.3
				c-0.1,0-0.2,0-0.3,0"/>
			<path fill="none" stroke="#231F20" stroke-width="0.5" stroke-miterlimit="10" d="M37.8,68.2c-0.3,0-1.8-0.1-2.4,0.4
				c-0.1,0-0.1,0.1-0.2,0.2"/>
			<path fill="none" stroke="#231F20" stroke-width="0.5" stroke-miterlimit="10" d="M35.5,68.6c0,0-1.1-0.6-2.5-1.2
				c-1-0.4-2.1-0.7-3.1-0.8c-2.3-0.1-5.4,1.1-5.4,1.1l-2.2,0.4l-0.3,2.1l0.8,0.6c0,0,0,0.2,0.1,0.6c0.2,0.8,0.6,2.5,1.4,3.9
				c0.9,1.6,2.3,3,4.3,3"/>
			<path fill="none" stroke="#231F20" stroke-width="0.5" stroke-miterlimit="10" d="M28.7,78.3L28.7,78.3h2.5c0,0,4.4-0.4,4.9-6.6
				c0-0.2,0-0.4,0-0.6c0,0,0-0.1,0-0.1"/>
			<path fill="none" stroke="#231F20" stroke-width="0.5" stroke-miterlimit="10" d="M36.1,71.2C36.1,71.2,36.1,71.1,36.1,71.2
				c0-0.1,0-0.1,0-0.2c0-0.4,0.2-1.1,1.6-1.2"/>
			<path fill="none" stroke="#231F20" stroke-width="0.5" stroke-miterlimit="10" d="M29.7,77.1C29.7,77.1,29.7,77.1,29.7,77.1
				c-4.5-0.3-4.9-3.9-4.9-3.9s-0.4-5.2,4.8-5.4"/>
			<path fill="none" stroke="#231F20" stroke-width="0.5" stroke-miterlimit="10" d="M29.6,77.1C29.7,77.1,29.7,77.1,29.6,77.1
				c4.5-0.3,4.8-4,4.8-4s0.4-5.2-4.8-5.3"/>
			<path fill="none" stroke="#231F20" stroke-width="0.5" stroke-miterlimit="10" d="M23,71.4c0,0-3,2.9-2.9,5c0,0,2.2,0.2,4.3-1.1"
				/>
			<path fill="none" stroke="#231F20" stroke-width="0.5" stroke-miterlimit="10" d="M37.8,68.2C37.8,68.2,37.8,68.2,37.8,68.2
				C37.8,68.2,37.9,68.2,37.8,68.2c0.5,0,1.8-0.1,2.4,0.4c0.1,0,0.1,0.1,0.2,0.2"/>
			<path fill="none" stroke="#231F20" stroke-width="0.5" stroke-miterlimit="10" d="M40.2,68.6c0,0,0.9-0.5,2.2-1
				c1-0.4,2.3-0.8,3.4-0.9c0.1,0,0.1,0,0.2,0c2.3,0,5.2,1.1,5.2,1.1l2.2,0.4l0.3,2.1l-0.8,0.6c0,0,0,0.2-0.1,0.6
				c-0.2,0.8-0.6,2.4-1.4,3.8c-0.9,1.6-2.3,3.1-4.3,3"/>
			<path fill="none" stroke="#231F20" stroke-width="0.5" stroke-miterlimit="10" d="M47,78.3L47,78.3h-2.5c0,0-4.4-0.4-5-6.6
				c0-0.2,0-0.3,0-0.5c0-0.1,0-0.1,0-0.2"/>
			<path fill="none" stroke="#231F20" stroke-width="0.5" stroke-miterlimit="10" d="M39.6,71.2c0,0,0.2-1.3-1.7-1.4
				c0,0-0.1,0-0.1,0"/>
			<path fill="none" stroke="#231F20" stroke-width="0.5" stroke-miterlimit="10" d="M46,77.1c4.4-0.3,4.8-3.9,4.8-3.9
				s0.4-5.2-4.8-5.4"/>
			<path fill="none" stroke="#231F20" stroke-width="0.5" stroke-miterlimit="10" d="M46,77.1C46,77.1,46,77.1,46,77.1
				c-4.5-0.3-4.8-4-4.8-4S40.9,68,46,67.8"/>
			<path fill="none" stroke="#231F20" stroke-width="0.5" stroke-miterlimit="10" d="M52.7,71.4c0,0,3,2.9,2.9,5
				c0,0-2.2,0.1-4.3-1.2"/>
			<path fill="none" stroke="#231F20" stroke-width="0.5" stroke-miterlimit="10" d="M36.1,71.7c0,0,1.5-1.4,3.5,0c0,0,0,0,0.1,0"/>
			<path fill="none" stroke="#231F20" stroke-width="0.5" stroke-miterlimit="10" d="M33,67.4c0,0,2.1-0.4,4.7-0.4
				c1.5,0,3.1,0.1,4.6,0.5"/>
		</g>
	</g>
</g>
<g id="salwar_1" display="none">
	<g id="XMLID_7_" display="inline">
		<g>
			<path fill="#FFFFFF" d="M57.6,79L56.7,94h-3.8l-1.6-14.3C53.3,79.7,55.4,79.4,57.6,79z"/>
			<path fill="#FFFFFF" d="M58.7,71.3l0.1,1.1c-1.7,1.1-3.3,0.3-3.3,0.3l0-1.5c-0.7,0.7-1.5,1.1-2.4,1.3c1.2-22.2,2.7-45.2,3.9-67.4
				h4.3c0.1,14.1,0.2,28.4,0.2,42.5c0,7.1,0.1,14.2,0.1,21.2C61.6,70.4,61.6,72,58.7,71.3z"/>
			<path fill="#FFFFFF" d="M43.3,94l-1.7-15c2,0.4,4.1,0.6,6.4,0.7v0L47.1,94H43.3z"/>
			<path fill="#FFFFFF" d="M61.6,68.8c0-7,0-14-0.1-21.2c1.4,10.2,3.6,18,8.6,27c-4.4,2.2-8.6,3.6-12.5,4.3
				c-2.2,0.4-4.3,0.7-6.4,0.8c-1.1,0.1-2.1,0.1-3.2,0c-2.3-0.1-4.5-0.3-6.4-0.7c-7.4-1.4-11.9-4.3-11.9-4.3
				c9.1-16.1,9.8-35.3,12.3-53.4c-2.5-2.5-3.2-8.7-2.4-10.6c0.9-2-1.3-5.6-1.3-5.6h4.5c0,0,3.5,6.2,7.2,8.1c0,0,5.7-4,7-8.1
				c-1.2,22.2-2.7,45.2-3.9,67.4c0.9-0.2,1.8-0.6,2.4-1.3l0,1.5c0,0,1.5,0.8,3.3-0.3l-0.1-1.1C61.6,72,61.6,70.4,61.6,68.8z"/>
		</g>
		<g>
			<path fill="none" stroke="#231F20" stroke-width="0.5" stroke-miterlimit="10" d="M42.9,21.9c-0.3-0.2-0.5-0.4-0.8-0.6
				c-2.5-2.5-3.2-8.7-2.4-10.6c0.9-2-1.3-5.6-1.3-5.6h4.5c0,0,3.5,6.2,7.2,8.1"/>
			<path fill="none" stroke="#231F20" stroke-width="0.5" stroke-miterlimit="10" d="M70.2,74.8c0-0.1-0.1-0.1-0.1-0.2
				c-4.9-9-7.2-16.8-8.6-27"/>
			<path fill="none" stroke="#231F20" stroke-width="0.5" stroke-miterlimit="10" d="M42.1,21.3c-2.5,18.1-3.2,37.2-12.3,53.4"/>
			<polyline fill="none" stroke="#231F20" stroke-width="0.5" stroke-miterlimit="10" points="41.6,78.9 41.6,79.1 43.3,94 47.1,94 
				48.1,79.8 			"/>
			<polyline fill="none" stroke="#231F20" stroke-width="0.5" stroke-miterlimit="10" points="51.2,79.7 52.9,94 56.7,94 57.6,79 
				57.6,78.9 			"/>
			<path fill="none" stroke="#231F20" stroke-width="0.5" stroke-miterlimit="10" d="M29.8,74.7c0,0,4.5,2.9,11.9,4.3
				c2,0.4,4.1,0.6,6.4,0.7c1,0,2.1,0,3.2,0c2-0.1,4.1-0.3,6.4-0.8c3.9-0.8,8.1-2.1,12.5-4.3"/>
			<path fill="none" stroke="#231F20" stroke-width="0.5" stroke-miterlimit="10" d="M61.3,5.2c0.1,14.1,0.2,28.4,0.2,42.5
				c0,7.1,0.1,14.2,0.1,21.2c0,1.6,0,3.2-2.9,2.5c0,0,0,0-0.1,0"/>
			<path fill="none" stroke="#231F20" stroke-width="0.5" stroke-miterlimit="10" d="M55.6,71.3c-0.7,0.7-1.5,1.1-2.4,1.3
				c1.2-22.2,2.7-45.2,3.9-67.4"/>
			<path fill="none" stroke="#231F20" stroke-width="0.5" stroke-miterlimit="10" d="M55.7,52.6l-0.1,18.7l0,1.5
				c0,0,1.5,0.8,3.3-0.3l-0.1-1.1l0-0.3l-1.5-15.6"/>
			<path fill="none" stroke="#231F20" stroke-width="0.5" stroke-miterlimit="10" d="M50.1,13.2c0,0,5.7-4,7-8.1h4.3h0.2"/>
		</g>
	</g>
</g>
<g id="shoe" display="none">
	<g id="XMLID_5_" display="inline">
		<g>
			<path fill="#FFFFFF" d="M51,33.1c0,0-2.1,1-2.5,0.5l0,0c0-0.1,0-0.1,0-0.1s0-0.5,0-1.1c0-0.4,0-0.9,0-1.4c0,0,0,0,0,0
				c0,0,0.7,0.3,2.5-0.4V33.1z"/>
			<path fill="#FFFFFF" d="M48.5,33.5c0,0,0,0,0,0.1c-0.1,0.3-0.4,1.1-1,1.1c-0.8,0-2.6,0-2.6,0s-1.4,0.2-1.4-0.8l0-0.1
				c0,0,0.1,0,0.1,0V31c0,0,0,0-0.1,0c0,0-0.1-1,1.6-1c1.6,0,2.2,0,2.2,0s1.3-0.1,1.3,0.9c0,0,0,0,0,0c0,0.4,0,0.9,0,1.4
				C48.5,33,48.5,33.5,48.5,33.5z"/>
			<path fill="#FFFFFF" d="M37.7,44.6l-0.1,18.9l-2.4,0c0-6.9-2-15.4-3-18.1c-1-2.8-3.4-4.6-4.4-6.6c-1-2-0.5-2.8,4.6-0.8
				c4.5,1.8,9.8,6.8,11,8l-2.6,0.5C39,45.2,37.7,44.6,37.7,44.6z"/>
			<path fill="#FFFFFF" d="M37.6,63.5l0,4.9l-0.7,1.3l-1.7-0.2c0,0-0.2,1.8,0-5.2c0-0.3,0-0.5,0-0.8L37.6,63.5z"/>
			<path fill="#FFFFFF" d="M32.3,27.5c0,0,7.1,3.5,11.2,3.5c0,0,0,0,0.1,0v2.8c0,0,0,0-0.1,0C39.8,34.2,33.4,31.2,33,31c0,0,0,0,0,0
				c-0.3-0.2-0.5-0.4-0.8-0.7c-0.1-0.1-0.2-0.2-0.3-0.3L31,29.6L32.3,27.5z"/>
			<path fill="#FFFFFF" d="M48.7,57.7c-2.3-5.7-5.5-9.1-7.9-11l2.6-0.5c0.2,0.2,0.3,0.3,0.3,0.3c-1.7-3.8-14.4-14.4-14.4-14.4
				l1.6-2.5l0.9,0.6c0.1,0.1,0.2,0.2,0.3,0.3c0.3,0.2,0.6,0.4,0.8,0.7c0,0,0,0,0,0c7.5,5.8,7.2,7.7,11,11.5c3.9,4,6.7,10.8,9.8,16.6
				c3.1,5.8,11-0.2,11-0.2l5.8,1.4c0,0-0.2,3.5,0,3.3s3.9-0.1,3.9-0.1l-1,5.2c0,0-5.9,2.2-13.9,2.1c-8-0.2-7.5-3-7.5-3
				S52.8,67.8,48.7,57.7z"/>
		</g>
		<g>
			<path fill="none" stroke="#231F20" stroke-width="0.5" stroke-miterlimit="10" d="M33,31c7.5,5.8,7.2,7.7,11,11.5
				c3.9,4,6.7,10.8,9.8,16.6c3.1,5.8,11-0.2,11-0.2l5.8,1.4c0,0-0.2,3.5,0,3.3s3.9-0.1,3.9-0.1l-1,5.2c0,0-5.9,2.2-13.9,2.1
				c-8-0.2-7.5-3-7.5-3s0.6,0-3.4-10.1c-2.3-5.7-5.5-9.1-7.9-11c-1.8-1.5-3.2-2.1-3.2-2.1l-0.1,18.9l0,4.9l-0.7,1.3l-1.7-0.2
				c0,0-0.2,1.8,0-5.2c0-0.3,0-0.5,0-0.8c0-6.9-2-15.4-3-18.1c-1-2.8-3.4-4.6-4.4-6.6c-1-2-0.5-2.8,4.6-0.8c4.5,1.8,9.8,6.8,11,8
				c0.2,0.2,0.3,0.3,0.3,0.3c-1.7-3.8-14.4-14.4-14.4-14.4l1.6-2.5l1.3-2.1c0,0,7.1,3.5,11.2,3.5c0,0,0,0,0.1,0v2.8c0,0,0,0-0.1,0
				C39.8,34.2,33.4,31.2,33,31"/>
			<path fill="none" stroke="#231F20" stroke-width="0.5" stroke-miterlimit="10" d="M33,31C33,31,33,31,33,31"/>
			<path fill="none" stroke="#231F20" stroke-width="0.5" stroke-miterlimit="10" d="M31.8,30.1c0.1,0.1,0.2,0.2,0.3,0.3
				c0.3,0.2,0.6,0.4,0.8,0.7"/>
			<path fill="none" stroke="#231F20" stroke-width="0.5" stroke-miterlimit="10" d="M43.5,31c0,0-0.1-1,1.6-1c1.6,0,2.2,0,2.2,0
				s1.3-0.1,1.3,0.9c0,0,0,0,0,0c0,0.4,0,0.9,0,1.4c0,0.6,0,1.1,0,1.1s0,0,0,0.1c-0.1,0.3-0.4,1.1-1,1.1c-0.8,0-2.6,0-2.6,0
				s-1.4,0.2-1.4-0.8"/>
			<polyline fill="none" stroke="#231F20" stroke-width="0.5" stroke-miterlimit="10" points="47.2,32.4 48.5,32.4 49.6,32.4 			"/>
			<path fill="none" stroke="#231F20" stroke-width="0.5" stroke-miterlimit="10" d="M48.5,31c0,0,0.7,0.3,2.5-0.4v2.6
				c0,0-2.1,1-2.5,0.5"/>
		</g>
	</g>
</g>
<g id="pant" display="none">
	<g id="XMLID_4_" display="inline">
		<g>
			<path fill="#FFFFFF" d="M64.3,24c0.4,8.2,0.7,19.1-0.7,23c-2.3,6.5-0.9,17.2-0.6,18.3c0.3,1.2,0.8,3.8,0,9.7
				c-0.8,5.8-1.5,8.4-1.8,11.2h-5.1c0,0-0.7-6.4-0.9-9.9c-0.2-3.5,0-10.2-0.6-13.3c-0.6-3.2-0.4-6.3,0-9.6
				c0.3-3.3-3.4-24.2-3.4-24.2v-4c0,0,2.3,0.5,2.4-2.5c0.1-2.9,0-4.4,0-4.4v-0.1c1.7,0,3.2,0,4.2-0.1l0.9,3.6
				C58.8,21.9,63.6,21.9,64.3,24z"/>
			<path fill="#FFFFFF" d="M63.9,17.4c0.1,1.8,0.3,4.1,0.4,6.6c-0.7-2.1-5.5-2.1-5.5-2.1l-0.9-3.6c0.1,0,0.2,0,0.3,0
				C59.8,18.2,61.7,17.9,63.9,17.4z"/>
			<path fill="#FFFFFF" d="M57.9,18.4c-1,0.1-2.5,0.1-4.2,0.1c-0.8,0-1.6,0-2.4,0c-2.2,0-4.6-0.1-6.7-0.2c-3.3-0.1-5.8-0.3-6-0.3
				c0.2-2.4,0.3-4,0.3-4c3.4,1.4,12.4,1,12.4,1s9,0.4,12.4-1c0,0,0.1,1.4,0.3,3.5c-2.1,0.5-4.1,0.8-5.7,0.9
				C58.1,18.3,58,18.3,57.9,18.4z"/>
			<polygon fill="#FFFFFF" points="56.1,86.2 61.3,86.2 62.1,86.2 61,89.3 56.1,89.3 55.3,86.2 			"/>
			<path fill="#FFFFFF" d="M53.7,18.5c0,0,0.1,1.4,0,4.4c-0.1,2.9-2.4,2.5-2.4,2.5v-6.9v0C52.1,18.4,52.9,18.4,53.7,18.5L53.7,18.5z
				"/>
			<path fill="#FFFFFF" d="M51.2,25.3v4c0,0-3.7,20.9-3.4,24.2c0.3,3.3,0.5,6.4,0,9.6c-0.6,3.1-0.3,9.8-0.6,13.3
				c-0.2,3.5-0.9,9.9-0.9,9.9h-5.1c-0.2-2.8-0.9-5.4-1.8-11.2c-0.8-5.8-0.4-8.5,0-9.7c0.3-1.2,1.8-11.8-0.6-18.3
				c-1.4-3.9-1.1-14.8-0.7-23c0.7-2.1,5.5-2.1,5.5-2.1l0.9-3.6l0-0.2c2.1,0.1,4.5,0.2,6.7,0.2v0V25.3z"/>
			<path fill="#FFFFFF" d="M51.2,14.9c0,0-9,0.4-12.4-1c0-1.6,24.7-1.6,24.7,0C60.2,15.3,51.2,14.9,51.2,14.9z"/>
			<path fill="#FFFFFF" d="M44.6,18.2l0,0.2l-0.9,3.6c0,0-4.8,0-5.5,2.1c0.1-2.3,0.3-4.5,0.4-6.2C38.8,17.9,41.3,18,44.6,18.2z"/>
			<polygon fill="#FFFFFF" points="46.3,86.2 47.2,86.2 46.3,89.3 41.4,89.3 40.4,86.2 41.2,86.2 			"/>
		</g>
		<g>
			<path fill="none" stroke="#231F20" stroke-width="0.5" stroke-miterlimit="10" d="M51.2,14.9c0,0,9,0.4,12.4-1
				c0,0,0.1,1.4,0.3,3.5c0.1,1.8,0.3,4.1,0.4,6.6c0.4,8.2,0.7,19.1-0.7,23c-2.3,6.5-0.9,17.2-0.6,18.3c0.3,1.2,0.8,3.8,0,9.7
				c-0.8,5.8-1.5,8.4-1.8,11.2"/>
			<path fill="none" stroke="#231F20" stroke-width="0.5" stroke-miterlimit="10" d="M51.2,29.3c0,0,3.7,20.9,3.4,24.2
				c-0.4,3.3-0.5,6.4,0,9.6c0.6,3.1,0.3,9.8,0.6,13.3c0.2,3.5,0.9,9.9,0.9,9.9"/>
			<path fill="none" stroke="#231F20" stroke-width="0.5" stroke-miterlimit="10" d="M63.6,13.9c0-1.6-24.7-1.6-24.7,0"/>
			<polygon fill="none" stroke="#231F20" stroke-width="0.5" stroke-miterlimit="10" points="61.3,86.2 62.1,86.2 61,89.3 
				56.1,89.3 55.3,86.2 56.1,86.2 			"/>
			<path fill="none" stroke="#231F20" stroke-width="0.5" stroke-miterlimit="10" d="M38.6,17.9C38.6,17.9,38.6,17.9,38.6,17.9
				c0.2,0,2.8,0.2,6,0.3c2.1,0.1,4.5,0.2,6.7,0.2c0.8,0,1.7,0,2.4,0c1.7,0,3.2,0,4.2-0.1c0.1,0,0.2,0,0.3,0c1.6-0.2,3.6-0.4,5.7-0.9
				c0,0,0.1,0,0.1,0"/>
			<path fill="none" stroke="#231F20" stroke-width="0.5" stroke-miterlimit="10" d="M57.9,18.3L57.9,18.3l0.9,3.6
				c0,0,4.8,0,5.5,2.1"/>
			<path fill="none" stroke="#231F20" stroke-width="0.5" stroke-miterlimit="10" d="M51.2,25.3c0,0,2.3,0.5,2.4-2.5
				c0.1-2.9,0-4.4,0-4.4"/>
			<path fill="none" stroke="#231F20" stroke-width="0.5" stroke-miterlimit="10" d="M51.2,14.9c0,0-9,0.4-12.4-1c0,0-0.1,1.5-0.3,4
				c-0.1,1.7-0.3,3.8-0.4,6.2c-0.4,8.2-0.7,19.1,0.7,23c2.3,6.5,0.9,17.2,0.6,18.3c-0.4,1.2-0.8,3.8,0,9.7c0.8,5.8,1.5,8.4,1.8,11.2
				"/>
			<path fill="none" stroke="#231F20" stroke-width="0.5" stroke-miterlimit="10" d="M51.2,29.3c0,0-3.7,20.9-3.4,24.2
				c0.3,3.3,0.5,6.4,0,9.6c-0.6,3.1-0.3,9.8-0.6,13.3c-0.2,3.5-0.9,9.9-0.9,9.9"/>
			<polygon fill="none" stroke="#231F20" stroke-width="0.5" stroke-miterlimit="10" points="41.2,86.2 40.4,86.2 41.4,89.3 
				46.3,89.3 47.2,86.2 46.3,86.2 			"/>
			<path fill="none" stroke="#231F20" stroke-width="0.5" stroke-miterlimit="10" d="M44.6,18.3l-0.9,3.6c0,0-4.8,0-5.5,2.1"/>
			<polyline fill="none" stroke="#231F20" stroke-width="0.5" stroke-miterlimit="10" points="51.2,18.4 51.2,25.3 51.2,29.3 
				51.2,30.2 			"/>
		</g>
	</g>
</g>
<g id="skirt" display="none">
	<g id="XMLID_3_" display="inline">
		<g>
			<polygon fill="#FFFFFF" points="56.3,39 59.8,71.8 58.2,71.6 			"/>
			<path fill="#FFFFFF" d="M37.3,31.2c-0.5-2,0.5-2.3,0.5-2.3c0.4,0.6,17.9,1.2,23.1,0.1c0.2,0,1.2,0.8,0.4,2.2
				C54.2,32.4,37.4,32,37.3,31.2z"/>
			<polygon fill="#FFFFFF" points="43.8,39 41.8,71.6 40.3,71.8 			"/>
			<path fill="#FFFFFF" d="M37.3,31.2c0.1,0.8,16.9,1.2,24-0.1l12.2,39.6c0,0-9.9,2.1-13.7,1.8l-0.1-0.8L56.3,39l2,32.5l0.1,1
				c0,0-5.8,0.5-8.2,0.5c-2.3,0-8.4-0.5-8.4-0.5l0.1-1l2-32.6l-3.4,32.8l-0.1,0.8c-3.8,0.3-13.8-1.9-13.8-1.9L37.3,31.2z"/>
		</g>
		<g>
			<path fill="none" stroke="#231F20" stroke-width="0.5" stroke-miterlimit="10" d="M61.1,28.9c-0.1,0-0.2,0-0.2,0.1
				c-5.3,1.1-22.8,0.6-23.1-0.1c0,0-0.9,0.3-0.5,2.3c0.1,0.8,16.9,1.2,24-0.1c0.1,0,0.2,0,0.2,0"/>
			<path fill="none" stroke="#231F20" stroke-width="0.5" stroke-miterlimit="10" d="M37.3,31.2L26.5,70.7c0,0,10,2.2,13.8,1.9"/>
			<path fill="none" stroke="#231F20" stroke-width="0.5" stroke-miterlimit="10" d="M40.3,72.6l0.1-0.8L43.8,39l-2,32.6l-0.1,1
				c0,0,6,0.5,8.4,0.5"/>
			<line fill="none" stroke="#231F20" stroke-width="0.5" stroke-miterlimit="10" x1="40.3" y1="71.8" x2="41.8" y2="71.6"/>
			<path fill="none" stroke="#231F20" stroke-width="0.5" stroke-miterlimit="10" d="M60.9,29c0.2,0,1.2,0.8,0.4,2.2"/>
			<path fill="none" stroke="#231F20" stroke-width="0.5" stroke-miterlimit="10" d="M61.2,31.1l12.2,39.6c0,0-9.9,2.1-13.7,1.8"/>
			<path fill="none" stroke="#231F20" stroke-width="0.5" stroke-miterlimit="10" d="M59.8,72.6l-0.1-0.8L56.3,39l2,32.5l0.1,1
				c0,0-5.8,0.5-8.2,0.5"/>
			<polyline fill="none" stroke="#231F20" stroke-width="0.5" stroke-miterlimit="10" points="59.8,71.8 59.8,71.8 58.2,71.6 			"/>
		</g>
	</g>
</g>
<g id="dress" display="none">
	<g id="XMLID_2_" display="inline">
		<g>
			<path fill="#FFFFFF" d="M57,42l17.8,34.3c0,0-8.4,6.7-24.8,6.8c0,0-0.1,0-0.1,0c-16.5,0-24.8-6.8-24.8-6.8L42.9,42h7h0.1H57z"/>
			<path fill="#FFFFFF" d="M50,26.1c4.7-1.4,7.2-9.7,7.2-9.7l3.5,1.2l-1.5,8.5c0,0-0.4,2.4,0.7,3.5h0L57,40.4h-7h-0.1h-7l-2.9-10.8
				c1.2-1.1,0.7-3.5,0.7-3.5l-1.5-8.5l3.4-1.2C42.8,16.4,45.3,24.7,50,26.1z"/>
			<polygon fill="#FFFFFF" points="57,40.4 57,42 50.1,42 49.9,42 42.9,42 42.9,40.4 49.9,40.4 50.1,40.4 			"/>
		</g>
		<g>
			<path fill="none" stroke="#231F20" stroke-width="0.5" stroke-miterlimit="10" d="M39.2,17.6l0.1,0l3.4-1.2c0,0,2.6,8.3,7.2,9.7
				c0,0,0,0,0.1,0"/>
			<path fill="none" stroke="#231F20" stroke-width="0.5" stroke-miterlimit="10" d="M39.3,17.6l1.5,8.5c0,0,0.4,2.4-0.7,3.5"/>
			<path fill="none" stroke="#231F20" stroke-width="0.5" stroke-miterlimit="10" d="M40,29.5l0,0.2l2.9,10.8V42L25.1,76.3
				c0,0,8.4,6.7,24.8,6.8"/>
			<line fill="none" stroke="#231F20" stroke-width="0.5" stroke-miterlimit="10" x1="42.9" y1="40.4" x2="49.9" y2="40.4"/>
			<line fill="none" stroke="#231F20" stroke-width="0.5" stroke-miterlimit="10" x1="42.9" y1="42" x2="49.9" y2="42"/>
			<path fill="none" stroke="#231F20" stroke-width="0.5" stroke-miterlimit="10" d="M60.8,17.6l-0.1,0l-3.5-1.2
				c0,0-2.5,8.3-7.2,9.7c0,0,0,0-0.1,0"/>
			<path fill="none" stroke="#231F20" stroke-width="0.5" stroke-miterlimit="10" d="M60.7,17.6l-1.5,8.5c0,0-0.4,2.4,0.7,3.5"/>
			<path fill="none" stroke="#231F20" stroke-width="0.5" stroke-miterlimit="10" d="M60,29.5l0,0.2L57,40.4V42l17.8,34.3
				c0,0-8.4,6.7-24.8,6.8c0,0-0.1,0-0.1,0"/>
			<polyline fill="none" stroke="#231F20" stroke-width="0.5" stroke-miterlimit="10" points="57,40.4 50.1,40.4 49.9,40.4 			"/>
			<polyline fill="none" stroke="#231F20" stroke-width="0.5" stroke-miterlimit="10" points="57,42 50.1,42 49.9,42 			"/>
		</g>
	</g>
</g>
<g id="kurti" display="none">
	<g id="XMLID_1_" display="inline">
		<g>
			<polygon fill="#FFFFFF" points="66.2,45.5 74.1,44 74.5,45.7 66.5,47.1 66.1,45.5 			"/>
			<path fill="#FFFFFF" d="M40.1,15c0-0.8,0.5-1.9,0.5-1.9l-0.9-3.4L41.6,9l0.9,3.4c0,0-0.5,1.1-0.5,1.9c0,0.8,7.3,4.7,8,5
				c0.7-0.4,8-4.3,8-5c0-0.8-0.5-1.9-0.5-1.9L58.5,9l1.7,0.6l-0.9,3.5c0,0,0.5,1.1,0.5,1.9c0,0.8-9.7,6.2-9.7,6.2S40.2,15.8,40.1,15
				z"/>
			<path fill="#FFFFFF" d="M39.7,9.7l0.9,3.4c0,0-0.5,1.1-0.5,1.9c0,0.8,10,6.2,10,6.2s9.6-5.3,9.7-6.2c0-0.8-0.5-1.9-0.5-1.9
				l0.9-3.5l6.3,2.1l0,0L74.1,44l-8,1.5l-0.1,0L61.7,30c-0.5,1.4-2.5,8.1,0.8,16.1c3.1,7.6,3.2,33,3.1,40.8h0c-12,4.6-31.1,0-31.1,0
				h0c-0.1-7.7,0-33.2,3.1-40.9c3.3-8,1.3-14.7,0.8-16.1l-4.4,15.5l-8-1.4l0,0l7.6-32.3l0,0L39.7,9.7z"/>
			<path fill="#FFFFFF" d="M34.5,86.9c0,0,19.1,4.6,31.1,0h0c0,1,0,1.7,0,2.1c-12,4.6-31.1,0-31.1,0C34.5,88.7,34.5,87.9,34.5,86.9
				L34.5,86.9z"/>
			<polygon fill="#FFFFFF" points="26,44.1 34.1,45.5 33.6,47.1 25.6,45.7 26,44.1 			"/>
		</g>
		<g>
			<polyline fill="none" stroke="#231F20" stroke-width="0.5" stroke-miterlimit="10" points="41.7,9 41.6,9 39.7,9.7 33.6,11.8 
				33.4,11.8 			"/>
			<path fill="none" stroke="#231F20" stroke-width="0.5" stroke-miterlimit="10" d="M41.6,9L41.6,9l0.9,3.5c0,0-0.5,1.1-0.5,1.9
				c0,0.8,7.3,4.7,8,5c0,0,0.1,0,0.1,0"/>
			<path fill="none" stroke="#231F20" stroke-width="0.5" stroke-miterlimit="10" d="M38.3,29.7c0,0,0,0.1,0.1,0.3
				c0.5,1.4,2.5,8-0.8,16.1c-3.1,7.6-3.2,33.1-3.1,40.9c0,1.1,0,1.8,0,2.1c0,0.1,0,0.2,0,0.2"/>
			<path fill="none" stroke="#231F20" stroke-width="0.5" stroke-miterlimit="10" d="M34.5,89c0,0,19.1,4.6,31.1,0h0"/>
			<polyline fill="none" stroke="#231F20" stroke-width="0.5" stroke-miterlimit="10" points="33.6,11.8 26,44.1 25.6,45.7 
				33.6,47.1 34.1,45.5 38.4,30 			"/>
			<polyline fill="none" stroke="#231F20" stroke-width="0.5" stroke-miterlimit="10" points="58.4,9 58.5,9 60.3,9.6 66.6,11.8 
				66.7,11.8 			"/>
			<path fill="none" stroke="#231F20" stroke-width="0.5" stroke-miterlimit="10" d="M58.5,9L58.5,9l-0.9,3.5c0,0,0.5,1.1,0.5,1.9
				c0,0.8-7.3,4.7-8,5c0,0-0.1,0-0.1,0"/>
			<path fill="none" stroke="#231F20" stroke-width="0.5" stroke-miterlimit="10" d="M61.8,29.7c0,0,0,0.1-0.1,0.3
				c-0.5,1.4-2.5,8.1,0.8,16.1c3.1,7.6,3.2,33,3.1,40.8c0,1,0,1.7,0,2.1c0,0.1,0,0.2,0,0.2"/>
			<polyline fill="none" stroke="#231F20" stroke-width="0.5" stroke-miterlimit="10" points="66.5,11.8 74.1,44 74.5,45.7 
				66.5,47.1 66.1,45.5 61.7,30 			"/>
			<path fill="none" stroke="#231F20" stroke-width="0.5" stroke-miterlimit="10" d="M39.7,9.6L39.7,9.6l0.9,3.5
				c0,0-0.5,1.1-0.5,1.9c0,0.8,10,6.2,10,6.2"/>
			<path fill="none" stroke="#231F20" stroke-width="0.5" stroke-miterlimit="10" d="M60.3,9.6l-0.9,3.5c0,0,0.5,1.1,0.5,1.9
				c0,0.8-9.7,6.2-9.7,6.2"/>
			<path fill="none" stroke="#231F20" stroke-width="0.5" stroke-miterlimit="10" d="M34.5,86.9c0,0,19.1,4.6,31.1,0"/>
			<line fill="none" stroke="#231F20" stroke-width="0.5" stroke-miterlimit="10" x1="26" y1="44.1" x2="34.1" y2="45.5"/>
			<polyline fill="none" stroke="#231F20" stroke-width="0.5" stroke-miterlimit="10" points="66.2,45.5 74.1,44 74.2,44 			"/>
		</g>
	</g>
</g>
<g id="outerwear" display="none">
	<g id="XMLID_6_" display="inline">
		<g>
			<path fill="#FFFFFF" d="M53.3,20.3c0,0,2.6,0.9,2.2,3.1c-0.3,2.2-2.8,24.2-5.5,27.2c-2.7-3-5.2-25-5.5-27.2
				c-0.4-2.2,2.2-3.1,2.2-3.1H50H53.3z"/>
			<path fill="#FFFFFF" d="M56.8,70.7c0.2,0.2,0.5,0.3,0.7,0.4l0,0c-1,0.2-7.5,0-7.5,0s-6.5,0.2-7.5,0l0,0c0.2-0.1,0.5-0.3,0.7-0.4
				c3.4-2.3,6.8-7.6,6.8-7.6S53.4,68.3,56.8,70.7z"/>
			<path fill="#FFFFFF" d="M62.2,57.2l3.5,8.9h0c-0.3-8.6-0.6-18.3-0.8-21.8c0-0.3,0-0.6,0-0.8c0,0-2.4,4.7-2.4,6.9
				S62.2,57.2,62.2,57.2z M55.5,23.4c0.4-2.2-2.2-3.1-2.2-3.1H50v-1.1c2.5-0.1,4.8,0,4.8,0s4.3,6.5,11.9,6.8c0,0,2.4-1,3.6,2.6
				s2,16.9,2,16.9l0.9,35.4h-7.2c0,0-0.1-3.9-0.3-9.3l-0.2,0c0,0-3,1.1-6.9,0c-0.4-0.1-0.8-0.3-1.3-0.6c-0.2-0.1-0.5-0.3-0.7-0.4
				c-3.4-2.3-6.8-7.6-6.8-7.6V50.6C52.7,47.6,55.2,25.6,55.5,23.4z"/>
			<path fill="#FFFFFF" d="M34.3,66.1l3.5-8.9c0,0-0.3-4.7-0.3-6.9s-2.4-7-2.4-7c0,0.2,0,0.5,0,0.9C34.9,47.8,34.6,57.5,34.3,66.1
				L34.3,66.1z M45.2,19.1c0,0,2.3-0.1,4.8,0v1.1h-3.3c0,0-2.6,0.9-2.2,3.1c0.3,2.2,2.8,24.2,5.5,27.2v12.5c0,0-3.4,5.2-6.8,7.6
				c-0.2,0.2-0.5,0.3-0.7,0.4c-0.4,0.2-0.8,0.4-1.3,0.6c-4,1.1-7,0-7,0l-0.2,0c-0.2,5.3-0.3,9.3-0.3,9.3h-7.2l0.9-35.4
				c0,0,0.8-13.3,2-16.9s3.6-2.6,3.6-2.6C40.8,25.6,45.2,19.1,45.2,19.1z"/>
		</g>
		<g>
			<path fill="none" stroke="#000000" stroke-width="0.5" stroke-miterlimit="10" d="M35.2,42.9c0,0,0,0.2,0,0.4c0,0.2,0,0.5,0,0.9
				c-0.2,3.5-0.5,13.3-0.8,21.8c-0.1,1.9-0.1,3.8-0.2,5.5c-0.2,5.3-0.3,9.3-0.3,9.3h-7.2l0.9-35.4c0,0,0.8-13.3,2-16.9
				s3.6-2.6,3.6-2.6c7.6-0.3,11.9-6.8,11.9-6.8s2.3-0.1,4.8,0"/>
			<path fill="none" stroke="#000000" stroke-width="0.5" stroke-miterlimit="10" d="M35.1,43.3c0,0,2.4,4.9,2.4,7s0.3,6.9,0.3,6.9
				l-3.5,8.9"/>
			<path fill="none" stroke="#000000" stroke-width="0.5" stroke-miterlimit="10" d="M50,63.1c0,0-3.4,5.2-6.8,7.6
				c-0.2,0.2-0.5,0.3-0.7,0.4c-0.4,0.2-0.8,0.4-1.3,0.6c-4,1.1-7,0-7,0"/>
			<path fill="none" stroke="#000000" stroke-width="0.5" stroke-miterlimit="10" d="M50,20.3h-3.3c0,0-2.6,0.9-2.2,3.1
				c0.3,2.2,2.8,24.2,5.5,27.2"/>
			<path fill="none" stroke="#000000" stroke-width="0.5" stroke-miterlimit="10" d="M42.5,71.1c1,0.2,7.5,0,7.5,0"/>
			<path fill="none" stroke="#000000" stroke-width="0.5" stroke-miterlimit="10" d="M64.8,42.9c0,0,0,0.2,0,0.6c0,0.2,0,0.5,0,0.8
				c0.2,3.5,0.5,13.3,0.8,21.8c0.1,1.9,0.1,3.8,0.2,5.5c0.2,5.3,0.3,9.3,0.3,9.3h7.2l-0.9-35.4c0,0-0.8-13.3-2-16.9S66.8,26,66.8,26
				c-7.6-0.3-11.9-6.8-11.9-6.8s-2.3-0.1-4.8,0"/>
			<path fill="none" stroke="#000000" stroke-width="0.5" stroke-miterlimit="10" d="M64.9,43.5c0,0-2.4,4.7-2.4,6.9
				s-0.3,6.9-0.3,6.9l3.5,8.9"/>
			<path fill="none" stroke="#000000" stroke-width="0.5" stroke-miterlimit="10" d="M50,20.3h3.3c0,0,2.6,0.9,2.2,3.1
				c-0.3,2.2-2.8,24.2-5.5,27.2v12.5c0,0,3.4,5.2,6.8,7.6c0.2,0.2,0.5,0.3,0.7,0.4c0.4,0.2,0.8,0.4,1.3,0.6c4,1.1,6.9,0,6.9,0"/>
			<path fill="none" stroke="#000000" stroke-width="0.5" stroke-miterlimit="10" d="M57.5,71.1c-1,0.2-7.5,0-7.5,0"/>
		</g>
	</g>
</g>
<g id="top" display="none">
	<g id="XMLID_9_" display="inline">
		<g>
			<path fill="#FFFFFF" d="M63.3,27.4c0,0,5.7-0.3,6.3,5.6c-0.3,0.2-6.2,4.1-6.5,7.1c0,0-0.7,1-1.9,0.7
				C62.1,33.6,63.3,27.4,63.3,27.4z"/>
			<path fill="#FFFFFF" d="M49.6,39.6c4.9-4.7,6-14.7,6-14.7l7.7,2.5c0,0-1.2,6.3-2.2,13.4c-0.9,6.7-1.5,14.2-0.5,17.8
				c2,7.5,3.1,8.8,3.1,8.8s-5.1,5.9-14.2,6.1c-9.1-0.2-14.2-6.1-14.2-6.1s1-1.3,3.1-8.8c1-3.6,0.4-11.1-0.5-17.8
				c-0.9-7.1-2.2-13.4-2.2-13.4l7.7-2.5C43.6,24.9,44.7,34.9,49.6,39.6z"/>
			<path fill="#FFFFFF" d="M35.9,27.4c0,0,1.2,6.3,2.2,13.4c-1.2,0.3-1.9-0.7-1.9-0.7c-0.3-3-6.2-7-6.5-7.1
				C30.2,27,35.9,27.4,35.9,27.4z"/>
		</g>
		<g>
			<path fill="none" stroke="#000000" stroke-width="0.5" stroke-miterlimit="10" d="M35.9,27.4l7.7-2.5c0,0,1.1,10,6,14.7
				c0,0,0.1,0.1,0.1,0.1"/>
			<path fill="none" stroke="#000000" stroke-width="0.5" stroke-miterlimit="10" d="M35.9,27.4c0,0-5.7-0.3-6.3,5.6
				c0,0,0,0.1,0,0.1"/>
			<path fill="none" stroke="#000000" stroke-width="0.5" stroke-miterlimit="10" d="M29.6,32.9C29.6,32.9,29.6,32.9,29.6,32.9
				c0.3,0.2,6.3,4.1,6.5,7.1c0,0,0.7,1,1.9,0.7"/>
			<path fill="none" stroke="#000000" stroke-width="0.5" stroke-miterlimit="10" d="M35.9,27.4c0,0,1.2,6.3,2.2,13.4
				c0.9,6.7,1.5,14.2,0.5,17.8c-2,7.5-3.1,8.8-3.1,8.8s5.1,5.9,14.2,6.1c0.1,0,0.3,0,0.4,0"/>
			<path fill="none" stroke="#000000" stroke-width="0.5" stroke-miterlimit="10" d="M63.3,27.4l-7.7-2.5c0,0-1.1,10-6,14.7
				c0,0-0.1,0.1-0.1,0.1"/>
			<path fill="none" stroke="#000000" stroke-width="0.5" stroke-miterlimit="10" d="M63.3,27.4c0,0,5.7-0.3,6.3,5.6
				c0,0,0,0.1,0,0.1"/>
			<path fill="none" stroke="#000000" stroke-width="0.5" stroke-miterlimit="10" d="M69.6,32.9C69.6,32.9,69.6,32.9,69.6,32.9
				c-0.3,0.2-6.3,4.1-6.5,7.1c0,0-0.7,1-1.9,0.7"/>
			<path fill="none" stroke="#000000" stroke-width="0.5" stroke-miterlimit="10" d="M63.3,27.4c0,0-1.2,6.3-2.2,13.4
				c-0.9,6.7-1.5,14.2-0.5,17.8c2,7.5,3.1,8.8,3.1,8.8s-5.1,5.9-14.2,6.1c-0.1,0-0.3,0-0.4,0"/>
		</g>
	</g>
</g>
<g id="Layer_12">
	<g id="XMLID_10_">
		<g>
			<path fill="#FFFFFF" d="M68.3,29.1c0,0,2.2,1.3-0.6,5.8S64.8,40,64.8,40s-1.6,2-3.4,0.8c-1.8-1.2-1.8-1.2-1.8-1.2l1.9,27.2
				c0,0,0.8,4.6-2.8,4.6s-9,0-9,0s-5.5,0-9,0S38,66.9,38,66.9l1.9-27.2c0,0,0,0-1.8,1.2C36.2,42,34.6,40,34.6,40s-0.2-0.6-2.9-5.1
				s-0.6-5.8-0.6-5.8s7.5-3.8,9.2-5c1.7-1.3,4.4-1,4.4-1v7.4c0,0,0.1,1.1,2,1.1s3,0,3,0s1.1,0,3,0c1.9,0,2-1.1,2-1.1v-7.4
				c0,0,2.8-0.3,4.4,1C60.8,25.3,68.3,29.1,68.3,29.1z"/>
		</g>
		<g>
			<path fill="none" stroke="#000000" stroke-width="0.5" stroke-miterlimit="10" d="M49.7,31.6c0,0-1.1,0-3,0s-2-1.1-2-1.1v-7.4
				c0,0-2.8-0.3-4.4,1c-1.7,1.3-9.2,5-9.2,5s-2.2,1.3,0.6,5.8s2.9,5.1,2.9,5.1s1.6,2,3.4,0.8c1.8-1.2,1.8-1.2,1.8-1.2L38,66.9
				c0,0-0.8,4.6,2.8,4.6s9,0,9,0"/>
			<path fill="none" stroke="#000000" stroke-width="0.5" stroke-miterlimit="10" d="M49.7,31.6c0,0,1.1,0,3,0c1.9,0,2-1.1,2-1.1
				v-7.4c0,0,2.8-0.3,4.4,1c1.7,1.3,9.2,5,9.2,5s2.2,1.3-0.6,5.8S64.8,40,64.8,40s-1.6,2-3.4,0.8c-1.8-1.2-1.8-1.2-1.8-1.2l1.9,27.2
				c0,0,0.8,4.6-2.8,4.6s-9,0-9,0"/>
		</g>
	</g>
</g>
<g id="Layer_2" display="none">
</g>
</svg>
