<?xml version="1.0" encoding="utf-8"?>
<!-- Generator: Adobe Illustrator 18.0.0, SVG Export Plug-In . SVG Version: 6.00 Build 0)  -->
<!DOCTYPE svg PUBLIC "-//W3C//DTD SVG 1.1//EN" "http://www.w3.org/Graphics/SVG/1.1/DTD/svg11.dtd">
<svg version="1.1" xmlns="http://www.w3.org/2000/svg" xmlns:xlink="http://www.w3.org/1999/xlink" x="0px" y="0px"
	 viewBox="0 0 100 100" enable-background="new 0 0 100 100" xml:space="preserve">
<g id="Layer_3" display="none">
	<rect display="inline" fill="#00A651" stroke="#000000" stroke-width="0.5" stroke-miterlimit="10" width="100" height="100"/>
</g>
<g id="Layer_2" display="none">
</g>
<g id="shirt" display="none">
	<g id="XMLID_1_" display="inline">
		<g>
			<path fill="#FFFFFF" d="M71.5,49.6c0.2,3.9,0.1,14.8,0,21h-0.2h-6.4h0l-0.8-2.7c0,0,1.8-16-1.7-21.4c0.1-1.4,0.2-2.2,0.2-2.2
				c-0.5-3.1,3.3-17.7,3.3-17.7S71.3,44,71.5,49.6z"/>
			<path fill="#FFFFFF" d="M71.4,70.6h0.2c0,2.6,0,4.3,0,4.3h-6.6v-4.3l0-0.1h0H71.4z"/>
			<path fill="#FFFFFF" d="M62.4,46.5c-0.4,4.9-1.1,16.5-0.1,20.6c1.2,5.2,1.5,6.9,1.5,6.9s-3.1,6.1-13.8,6.9v-0.1V24.8l4,4.1
				l0.7-6.1c0,0-0.1-0.5-0.2-1.2c0.3,0.3,11.3,5.1,11.3,5.1s-3.8,14.6-3.3,17.7C62.6,44.3,62.5,45.2,62.4,46.5z"/>
			<path fill="#FFFFFF" d="M52.7,20.1c0.2-0.2,0.3-0.4,0.5-0.6c0.4-0.6,0.5-1,0.4-1.3c0.5,0.1,0.8,2,1,3.3c0.1,0.7,0.2,1.2,0.2,1.2
				L54,28.9l-4-4.1L49,23.7C49,23.7,51.2,22,52.7,20.1z"/>
			<path fill="#FFFFFF" d="M53.6,18.2c0.1,0.3,0,0.8-0.4,1.3c-0.1,0.2-0.3,0.4-0.5,0.6c-3.5-0.9-7.1-0.1-8,0.1c0,0,0,0,0,0
				c-0.2-0.2-0.4-0.5-0.5-0.7c-0.4-0.6-0.5-1-0.4-1.3c0.3-0.9,2-0.9,2-0.9h2.7h0.4h2.7C51.6,17.3,53.3,17.3,53.6,18.2z"/>
			<path fill="#FFFFFF" d="M52.7,20.1C51.2,22,49,23.7,49,23.7l1.1,1.1v56.1v0.1c-0.4,0-0.9,0.1-1.4,0.1c-0.5,0-0.9,0-1.4-0.1v-0.1
				V24.8l1.1-1.1c0,0-2.1-1.6-3.6-3.5C45.7,20,49.2,19.2,52.7,20.1z"/>
			<path fill="#FFFFFF" d="M44.8,20.2C44.8,20.2,44.8,20.2,44.8,20.2c1.6,1.9,3.7,3.5,3.7,3.5l-1.1,1.1l-4,4.1l-0.7-6.1
				c0,0,0.1-0.5,0.2-1.2c0.2-1.3,0.6-3.2,1-3.3c-0.1,0.3,0,0.8,0.4,1.3C44.4,19.8,44.6,20,44.8,20.2z"/>
			<path fill="#FFFFFF" d="M35,46.5c-0.1-1.4-0.2-2.2-0.2-2.2c0.5-3.1-3.3-17.7-3.3-17.7s11-4.8,11.3-5.1c-0.1,0.7-0.2,1.2-0.2,1.2
				l0.7,6.1l4-4.1v56.1v0.1c-10.7-0.7-13.8-6.9-13.8-6.9s0.3-1.8,1.5-6.9C36.1,63.1,35.4,51.4,35,46.5z"/>
			<path fill="#FFFFFF" d="M31.6,26.7c0,0,3.8,14.6,3.3,17.7c0,0,0.1,0.8,0.2,2.2c-3.5,5.4-1.7,21.4-1.7,21.4l-0.8,2.7h0h-6.4h-0.2
				c-0.1-6.1-0.1-17,0.1-21C26.1,44,31.6,26.7,31.6,26.7z"/>
			<path fill="#FFFFFF" d="M32.5,70.6L32.5,70.6l0,4.3h-6.6c0,0,0-1.7-0.1-4.3h0.2H32.5L32.5,70.6z"/>
		</g>
		<g>
			<path fill="none" stroke="#000000" stroke-width="0.5" stroke-miterlimit="10" d="M44.8,20.2c1.6,1.9,3.6,3.5,3.6,3.5l-1.1,1.1
				l-4,4.1l-0.7-6.1c0,0,0.1-0.5,0.2-1.2c0.2-1.3,0.6-3.2,1-3.3"/>
			<path fill="none" stroke="#000000" stroke-width="0.5" stroke-miterlimit="10" d="M48.5,17.3h-2.7c0,0-1.7,0.1-2,0.9
				c-0.1,0.3,0,0.8,0.4,1.3c0.2,0.2,0.4,0.5,0.5,0.7"/>
			<path fill="none" stroke="#000000" stroke-width="0.5" stroke-miterlimit="10" d="M42.8,21.5c-0.3,0.3-11.3,5.1-11.3,5.1
				s3.8,14.6,3.3,17.7c0,0,0.1,0.8,0.2,2.2c0.4,4.9,1.1,16.5,0.1,20.6c-1.2,5.2-1.5,6.9-1.5,6.9s3.1,6.1,13.8,6.9
				c0.4,0,0.9,0.1,1.4,0.1c0.1,0,0.1,0,0.2,0"/>
			<path fill="none" stroke="#000000" stroke-width="0.5" stroke-miterlimit="10" d="M31.6,26.7c0,0-5.5,17.3-5.7,23
				c-0.2,3.9-0.1,14.8-0.1,21c0,2.6,0.1,4.3,0.1,4.3h6.6v-4.3l0-0.1l0.8-2.7c0,0-1.8-16,1.7-21.4v0"/>
			<line fill="none" stroke="#000000" stroke-width="0.5" stroke-miterlimit="10" x1="26.1" y1="70.6" x2="32.5" y2="70.6"/>
			<line fill="none" stroke="#000000" stroke-width="0.5" stroke-miterlimit="10" x1="47.3" y1="24.8" x2="47.3" y2="80.9"/>
			<path fill="none" stroke="#000000" stroke-width="0.5" stroke-miterlimit="10" d="M48.5,17.3h0.4h2.7c0,0,1.7,0.1,2,0.9
				c0.1,0.3,0,0.8-0.4,1.3c-0.1,0.2-0.3,0.4-0.5,0.6C51.2,22,49,23.7,49,23.7l1.1,1.1l4,4.1l0.7-6.1c0,0-0.1-0.5-0.2-1.2
				c-0.2-1.3-0.6-3.2-1-3.3"/>
			<path fill="none" stroke="#000000" stroke-width="0.5" stroke-miterlimit="10" d="M54.6,21.5c0.3,0.3,11.3,5.1,11.3,5.1
				s-3.8,14.6-3.3,17.7c0,0-0.1,0.8-0.2,2.2c-0.4,4.9-1.1,16.5-0.1,20.6c1.2,5.2,1.5,6.9,1.5,6.9s-3.1,6.1-13.8,6.9
				c-0.4,0-0.9,0.1-1.4,0.1c-0.1,0-0.1,0-0.2,0"/>
			<path fill="none" stroke="#000000" stroke-width="0.5" stroke-miterlimit="10" d="M65.9,26.7c0,0,5.5,17.3,5.7,23
				c0.2,3.9,0.1,14.8,0,21c0,2.6,0,4.3,0,4.3h-6.6v-4.3l0-0.1l-0.8-2.7c0,0,1.8-16-1.7-21.4v0"/>
			<line fill="none" stroke="#000000" stroke-width="0.5" stroke-miterlimit="10" x1="71.4" y1="70.6" x2="64.9" y2="70.6"/>
			<line fill="none" stroke="#000000" stroke-width="0.5" stroke-miterlimit="10" x1="50.1" y1="24.8" x2="50.1" y2="80.9"/>
			<path fill="none" stroke="#000000" stroke-width="0.5" stroke-miterlimit="10" d="M44.6,20.3c0,0,0.1,0,0.2-0.1c0,0,0,0,0,0
				c0.9-0.2,4.4-1,8-0.1c0.1,0,0.1,0,0.2,0.1"/>
		</g>
	</g>
</g>
<g id="tee" display="none">
	<g id="XMLID_2_" display="inline">
		<g>
			<polygon fill="#FFFFFF" points="66,28.9 72.6,40.8 65.8,44.8 61.9,41.2 65.8,28.9 			"/>
			<path fill="#FFFFFF" d="M65.8,28.9L65.8,28.9l-3.8,12.3l-0.1,32.2c-13.3,3.5-27.2,0-27.2,0l-0.1-32.2l-3.8-12.3
				c0,0,5.9-2.6,9.5-4.3c0,0,1,5.1,7.8,5.3c0.1,0,0.2,0,0.3,0c6.8-0.2,7.8-5.3,7.8-5.3C59.9,26.2,65.8,28.9,65.8,28.9z"/>
			<path fill="#FFFFFF" d="M56.2,24.6c0,0-1,5.1-7.8,5.3c-0.1,0-0.2,0-0.3,0c-6.8-0.2-7.8-5.3-7.8-5.3c1.5-0.7,2.7-1.2,2.8-1.3
				c0,0,1.5,1,5.2,0.8c3.7,0.2,5.2-0.8,5.2-0.8C53.5,23.4,54.7,23.9,56.2,24.6z"/>
			<polygon fill="#FFFFFF" points="30.8,28.9 34.7,41.2 30.8,44.8 23.9,40.8 30.6,28.9 			"/>
		</g>
		<g>
			<path fill="none" stroke="#000000" stroke-width="0.5" stroke-miterlimit="10" d="M48.4,24.1c0,0-0.1,0-0.1,0
				c-3.7,0.2-5.2-0.8-5.2-0.8c-0.1,0.1-1.2,0.6-2.8,1.3c-3.6,1.6-9.5,4.3-9.5,4.3l3.8,12.3l0.1,32.2c0,0,13.9,3.5,27.2,0l0.1-32.2
				l3.8-12.3v0c0,0-5.9-2.6-9.5-4.3c-1.6-0.7-2.7-1.2-2.8-1.3c0,0-1.5,1-5.2,0.8c0,0-0.1,0-0.1,0"/>
			<polyline fill="none" stroke="#000000" stroke-width="0.5" stroke-miterlimit="10" points="30.6,28.9 23.9,40.8 30.8,44.8 
				34.7,41.2 			"/>
			<path fill="none" stroke="#000000" stroke-width="0.5" stroke-miterlimit="10" d="M43,23.7c0,0,0.5,3.3,5.3,3.4c0,0,0.1,0,0.2,0"
				/>
			<path fill="none" stroke="#000000" stroke-width="0.5" stroke-miterlimit="10" d="M40.4,24.6c0,0,1,5.1,7.8,5.3"/>
			<polyline fill="none" stroke="#000000" stroke-width="0.5" stroke-miterlimit="10" points="66,28.9 72.6,40.8 65.8,44.8 
				61.9,41.2 			"/>
			<path fill="none" stroke="#000000" stroke-width="0.5" stroke-miterlimit="10" d="M53.6,23.7c0,0-0.5,3.3-5.2,3.4
				c0,0-0.1,0-0.2,0"/>
			<path fill="none" stroke="#000000" stroke-width="0.5" stroke-miterlimit="10" d="M56.2,24.6c0,0-1,5.1-7.8,5.3
				c-0.1,0-0.2,0-0.3,0"/>
		</g>
	</g>
</g>
<g id="pant" display="none">
	<g id="XMLID_3_" display="inline">
		<g>
			<path fill="#FFFFFF" d="M54.7,17.8c1.1-0.1,2.3-0.2,3.4-0.3c0.8,2.3,2.6,4.8,6.4,5.1l3.1,65.4L56,89.2c0,0-3.2-57.1-5.9-58.4
				v-2.1h0.1c3.3,0,3-2.4,3-2.4v-8.4v-0.1C53.7,17.8,54.2,17.8,54.7,17.8z"/>
			<path fill="#FFFFFF" d="M61,17.3c1.9-0.2,3.2-0.3,3.2-0.3h0l0.3,5.7c-3.7-0.3-5.5-2.7-6.4-5.1C59.1,17.4,60.1,17.3,61,17.3z"/>
			<path fill="#FFFFFF" d="M64.1,16.1l0,0.9h0c0,0-1.3,0.1-3.2,0.3l-0.2-4.4c1.9-0.1,3.2-0.3,3.2-0.3L64.1,16.1z"/>
			<path fill="#FFFFFF" d="M60.8,12.9l0.2,4.4c-0.9,0.1-1.8,0.2-2.9,0.3c-0.8-2.2-0.8-4.2-0.8-4.4c0,0,0,0,0,0
				C58.6,13,59.7,13,60.8,12.9z"/>
			<path fill="#FFFFFF" d="M39.4,12.9c-1.9-0.2-3.3-0.3-3.3-0.3s6.8-2.1,13.9-2.1s13.9,2.1,13.9,2.1s-1.3,0.1-3.2,0.3
				c-1,0.1-2.2,0.2-3.5,0.2c0,0,0,0,0,0c-0.9,0-1.7,0.1-2.6,0.1c-1.7,0.1-3.3,0.1-4.6,0.1c-1.1,0-2.6,0-4-0.1
				c-1.1,0-2.2-0.1-3.2-0.2C41.6,13,40.4,13,39.4,12.9z"/>
			<path fill="#FFFFFF" d="M57.3,13.1c0,0.2,0,2.2,0.8,4.4c-1.1,0.1-2.2,0.2-3.4,0.3v-4.4l0-0.1C55.6,13.2,56.4,13.2,57.3,13.1z"/>
			<path fill="#FFFFFF" d="M54.7,13.4v4.4c-0.5,0-1,0.1-1.5,0.1c-1.1,0.1-2.2,0.1-3.1,0.1v-4.5c1.3,0,2.9-0.1,4.6-0.1L54.7,13.4z
				 M52.6,15.5c0-0.5-0.4-0.9-0.9-0.9s-0.9,0.4-0.9,0.9s0.4,0.9,0.9,0.9S52.6,16,52.6,15.5z"/>
			<path fill="#FFFFFF" d="M53.2,26.3c0,0,0.2,2.4-3,2.4h-0.1V17.9c0.9,0,2,0,3.1-0.1v0.1V26.3z"/>
			<path fill="#FFFFFF" d="M51.7,14.6c0.5,0,0.9,0.4,0.9,0.9s-0.4,0.9-0.9,0.9s-0.9-0.4-0.9-0.9S51.2,14.6,51.7,14.6z"/>
			<path fill="#FFFFFF" d="M50.1,28.7v2.1c-2.7,1.4-5.9,58.4-5.9,58.4l-11.6-1.3l3.1-65.4c3.7-0.3,5.5-2.7,6.4-5.1
				c1.3,0.1,2.6,0.2,4,0.3c1.4,0.1,2.8,0.1,4,0.1V28.7z"/>
			<path fill="#FFFFFF" d="M50.1,13.4v4.5c-1.2,0-2.6-0.1-4-0.1v-4.4v-0.1C47.5,13.4,48.9,13.4,50.1,13.4z"/>
			<path fill="#FFFFFF" d="M46,13.4v4.4c-1.3-0.1-2.7-0.2-4-0.3c0.8-2.3,0.8-4.4,0.8-4.4c1,0.1,2.1,0.1,3.2,0.2V13.4z"/>
			<path fill="#FFFFFF" d="M42.8,13.1c0,0,0.1,2.1-0.8,4.4c-1-0.1-2-0.2-2.8-0.3l0.2-4.4C40.4,13,41.6,13,42.8,13.1z"/>
			<path fill="#FFFFFF" d="M39.3,17.3c0.8,0.1,1.8,0.2,2.8,0.3c-0.8,2.3-2.6,4.8-6.4,5.1l0.3-5.7C36,16.9,37.3,17.1,39.3,17.3z"/>
			<path fill="#FFFFFF" d="M39.4,12.9l-0.2,4.4c-2-0.2-3.3-0.3-3.3-0.3l0-0.9l0.2-3.4C36.2,12.6,37.5,12.7,39.4,12.9z"/>
		</g>
		<g>
			<path fill="none" stroke="#000000" stroke-width="0.5" stroke-miterlimit="10" d="M50.1,30.8c-2.7,1.4-5.9,58.4-5.9,58.4
				l-11.6-1.3l3.1-65.4l0.3-5.7l0-0.9l0.2-3.4c0,0,1.3,0.1,3.3,0.3c1,0.1,2.2,0.1,3.4,0.2c1,0.1,2.1,0.1,3.2,0.2
				c1.5,0.1,2.9,0.1,4,0.1"/>
			<path fill="none" stroke="#000000" stroke-width="0.5" stroke-miterlimit="10" d="M36.2,12.6c0,0,6.8-2.1,13.9-2.1"/>
			<path fill="none" stroke="#000000" stroke-width="0.5" stroke-miterlimit="10" d="M36,16.9c0,0,1.3,0.2,3.3,0.3
				c0.8,0.1,1.8,0.2,2.8,0.3c1.3,0.1,2.6,0.2,4,0.3c1.4,0.1,2.8,0.1,4,0.1"/>
			<path fill="none" stroke="#000000" stroke-width="0.5" stroke-miterlimit="10" d="M42.8,13.1c0,0,0.1,2.1-0.8,4.4
				c-0.8,2.3-2.6,4.8-6.4,5.1"/>
			<path fill="none" stroke="#000000" stroke-width="0.5" stroke-miterlimit="10" d="M57.3,13.1c-0.9,0-1.7,0.1-2.6,0.1
				c-1.7,0.1-3.3,0.1-4.6,0.1"/>
			<path fill="none" stroke="#000000" stroke-width="0.5" stroke-miterlimit="10" d="M50.1,30.8c2.7,1.4,5.9,58.4,5.9,58.4l11.6-1.3
				l-3.1-65.4l-0.3-5.7l0-0.9l-0.2-3.4c0,0-1.3,0.1-3.2,0.3c-1,0.1-2.2,0.2-3.5,0.2"/>
			<path fill="none" stroke="#000000" stroke-width="0.5" stroke-miterlimit="10" d="M63.9,12.6c0,0-6.8-2.1-13.9-2.1"/>
			<path fill="none" stroke="#000000" stroke-width="0.5" stroke-miterlimit="10" d="M64.1,16.9c0,0-1.3,0.1-3.2,0.3
				c-0.9,0.1-1.8,0.2-2.9,0.3c-1.1,0.1-2.2,0.2-3.4,0.3c-0.5,0-1,0.1-1.5,0.1c-1.1,0.1-2.2,0.1-3.1,0.1"/>
			<path fill="none" stroke="#000000" stroke-width="0.5" stroke-miterlimit="10" d="M57.3,13.1C57.3,13.1,57.3,13.1,57.3,13.1
				c0,0.2,0,2.2,0.8,4.4c0.8,2.3,2.6,4.8,6.4,5.1"/>
			<polyline fill="none" stroke="#000000" stroke-width="0.5" stroke-miterlimit="10" points="50.1,13.4 50.1,17.9 50.1,28.7 
				50.1,30.8 50.1,30.9 			"/>
			<path fill="none" stroke="#000000" stroke-width="0.5" stroke-miterlimit="10" d="M53.2,17.9v8.4c0,0,0.2,2.4-3,2.4"/>
			<path fill="none" stroke="#000000" stroke-width="0.5" stroke-miterlimit="10" d="M50.8,15.5c0,0.5,0.4,0.9,0.9,0.9
				s0.9-0.4,0.9-0.9s-0.4-0.9-0.9-0.9S50.8,15,50.8,15.5z"/>
			<line fill="none" stroke="#000000" stroke-width="0.5" stroke-miterlimit="10" x1="46" y1="13.4" x2="46" y2="17.8"/>
			<polyline fill="none" stroke="#000000" stroke-width="0.5" stroke-miterlimit="10" points="39.4,12.9 39.4,12.9 39.3,17.3 			"/>
			<polyline fill="none" stroke="#000000" stroke-width="0.5" stroke-miterlimit="10" points="54.7,13.4 54.7,17.8 54.7,17.8 			"/>
			<polyline fill="none" stroke="#000000" stroke-width="0.5" stroke-miterlimit="10" points="60.8,12.9 61,17.3 61,17.3 			"/>
		</g>
	</g>
</g>
<g id="coat" display="none">
	<g id="XMLID_4_" display="inline">
		<g>
			<path fill="#FFFFFF" d="M68.2,52.9l-3.8-8.1c-0.7-4.1,4.3-18.4,4.3-18.4l6.9,25.8l-0.7,19.4h-6.1h-0.4V52.9z"/>
			<polygon fill="#FFFFFF" points="74.7,71.7 74.6,75 68.2,75.8 68.2,71.7 68.6,71.7 			"/>
			<path fill="#FFFFFF" d="M63.6,60.2l2.8,15.7l-6.7,1.4c-0.1,0-0.1,0-0.2,0c-1.2,0.2-8,0.7-9.2-9.4c-0.2-2-0.4-3.9-0.6-5.7
				c-0.5-7.2-0.1-12.9,0-14.3c4.6,0,11.7-20.9,11.7-20.9l-2.1-0.8l0.1-2.2l9.1,2.6c0,0-4.9,14.3-4.3,18.4l-1.9,9.1L63.6,60.2z
				 M52.3,51.3c0-0.4-0.3-0.8-0.8-0.8c-0.4,0-0.8,0.3-0.8,0.8c0,0.4,0.3,0.8,0.8,0.8C51.9,52,52.3,51.7,52.3,51.3z"/>
			<path fill="#FFFFFF" d="M59.5,23.8l-0.1,2.2l2.1,0.8c0,0-7.1,20.9-11.7,20.9v0c2.6-2.6,5.6-17.8,6.7-24c0.2-1.2,0.4-2,0.4-2.4
				c0.2,0,0.3,0.1,0.5,0.1l2.1,1.4L59.5,23.8z"/>
			<path fill="#FFFFFF" d="M50.4,67.9c1.3,10.1,8.1,9.6,9.2,9.4c-11.2,2.5-19,0.1-19.7-0.1c0.6,0.1,7.9,1.2,9.2-9.4
				c0.1-1,0.2-1.9,0.3-2.6c0,0,0-0.1,0-0.1c0-0.2,0.1-0.4,0.1-0.6c0,0,0,0,0,0c0-0.3,0.1-0.6,0.1-0.8c0-0.2,0.1-0.4,0.1-0.6
				c0-0.2,0-0.4,0.1-0.5c0-0.1,0-0.3,0-0.3c0,0,0,0,0,0c0,0,0-0.1,0-0.1c0,0,0-0.1,0-0.1C49.9,63.9,50.1,65.9,50.4,67.9z"/>
			<path fill="#FFFFFF" d="M56.9,21.4c-0.1,0.4-0.2,1.2-0.4,2.4h0H43.4c-0.2-1.2-0.4-2.1-0.4-2.5C44.5,21,49.8,20.1,56.9,21.4z"/>
			<path fill="#FFFFFF" d="M49.8,47.8L49.8,47.8c-2.6-2.6-5.4-17.8-6.4-24h13.1h0C55.4,29.9,52.4,45.2,49.8,47.8z"/>
			<circle fill="#FFFFFF" cx="51.5" cy="51.3" r="0.8"/>
			<path fill="#FFFFFF" d="M49.4,65.2c-0.1,0.7-0.2,1.6-0.3,2.6c-1.3,10.6-8.5,9.5-9.2,9.4c0,0,0,0,0,0l-6.5-1.4l2.8-15.7l1.1-6.3
				l-1.8-9.1c0.7-4.1-4.2-18.4-4.2-18.4l9.1-2.5l0.1,2.2l-2.1,0.8c0,0,6.8,21,11.4,21h0c-0.1,1.4-0.5,7.1,0,14.3c0,0,0,0,0,0.1
				c0,0,0,0,0,0.1c0,0,0,0,0,0c0,0.1,0,0.2,0,0.3c0,0.1,0,0.3-0.1,0.5c0,0.2-0.1,0.4-0.1,0.6c0,0.2-0.1,0.5-0.1,0.8c0,0,0,0,0,0
				c0,0.2-0.1,0.4-0.1,0.6C49.4,65.1,49.4,65.2,49.4,65.2z"/>
			<path fill="#FFFFFF" d="M49.8,62.1C49.8,62.1,49.8,62.2,49.8,62.1C49.8,62.2,49.8,62.1,49.8,62.1z"/>
			<polygon fill="#FFFFFF" points="49.8,47.8 49.8,47.8 49.8,47.8 			"/>
			<path fill="#FFFFFF" d="M49.8,62.6c0-0.1,0-0.2,0-0.3C49.8,62.3,49.8,62.5,49.8,62.6z"/>
			<path fill="#FFFFFF" d="M49.7,63.1c0,0.2,0,0.4-0.1,0.6C49.6,63.5,49.7,63.3,49.7,63.1z"/>
			<path fill="#FFFFFF" d="M49.4,65.1c0-0.1,0-0.3,0.1-0.6C49.5,64.7,49.5,64.9,49.4,65.1z"/>
			<path fill="#FFFFFF" d="M40.3,23.8l-0.1-1l2.1-1.4c0,0,0.2-0.1,0.5-0.1c0.1,0.4,0.2,1.2,0.4,2.5c1,6.2,3.8,21.4,6.4,24
				c-4.6,0-11.4-21-11.4-21l2.1-0.8L40.3,23.8z"/>
			<path fill="#FFFFFF" d="M31.7,52.9v18.7h-0.4h-6.1l-0.7-19.4l6.9-25.8c0,0,4.8,14.3,4.2,18.4L31.7,52.9z"/>
			<polygon fill="#FFFFFF" points="31.7,71.6 31.7,75.7 25.2,74.9 25.1,71.6 31.2,71.6 			"/>
		</g>
		<g>
			<path fill="none" stroke="#000000" stroke-width="0.5" stroke-miterlimit="10" d="M42.9,21.1c0,0,0,0.1,0,0.2
				c0.1,0.4,0.2,1.2,0.4,2.5c1,6.2,3.8,21.4,6.4,24"/>
			<path fill="none" stroke="#000000" stroke-width="0.5" stroke-miterlimit="10" d="M49.8,47.8c-4.6,0-11.4-21-11.4-21l2.1-0.8
				l-0.1-2.2l-0.1-1l2.1-1.4c0,0,0.2-0.1,0.5-0.1c1.6-0.3,6.8-1.2,14,0.1c0.2,0,0.3,0.1,0.5,0.1l2.1,1.4l-0.1,1l-0.1,2.2l2.1,0.8
				C61.5,26.9,54.4,47.8,49.8,47.8L49.8,47.8"/>
			<path fill="none" stroke="#000000" stroke-width="0.5" stroke-miterlimit="10" d="M49.4,65.2C49.4,65.2,49.4,65.2,49.4,65.2"/>
			<path fill="none" stroke="#000000" stroke-width="0.5" stroke-miterlimit="10" d="M49.5,64.5c0,0.2-0.1,0.4-0.1,0.6"/>
			<path fill="none" stroke="#000000" stroke-width="0.5" stroke-miterlimit="10" d="M49.7,63.1c0,0.2-0.1,0.4-0.1,0.6"/>
			<path fill="none" stroke="#000000" stroke-width="0.5" stroke-miterlimit="10" d="M49.8,62.3c0,0.1,0,0.2,0,0.3"/>
			<path fill="none" stroke="#000000" stroke-width="0.5" stroke-miterlimit="10" d="M49.8,62.1C49.8,62.1,49.8,62.2,49.8,62.1"/>
			<path fill="none" stroke="#000000" stroke-width="0.5" stroke-miterlimit="10" d="M49.8,62.2C49.8,62.2,49.8,62.1,49.8,62.2"/>
			<path fill="none" stroke="#000000" stroke-width="0.5" stroke-miterlimit="10" d="M49.8,62.2C49.8,62.2,49.8,62.2,49.8,62.2
				C49.8,62.2,49.8,62.3,49.8,62.2"/>
			<path fill="none" stroke="#000000" stroke-width="0.5" stroke-miterlimit="10" d="M49.8,62.6c0-0.1,0-0.3,0-0.3"/>
			<path fill="none" stroke="#000000" stroke-width="0.5" stroke-miterlimit="10" d="M49.8,62.6c0,0.1,0,0.3-0.1,0.5"/>
			<path fill="none" stroke="#000000" stroke-width="0.5" stroke-miterlimit="10" d="M49.6,63.7c0-0.2,0.1-0.4,0.1-0.6"/>
			<path fill="none" stroke="#000000" stroke-width="0.5" stroke-miterlimit="10" d="M49.6,63.7c0,0.2-0.1,0.5-0.1,0.8c0,0,0,0,0,0"
				/>
			<path fill="none" stroke="#000000" stroke-width="0.5" stroke-miterlimit="10" d="M39.9,77.2c0.6,0.1,7.9,1.2,9.2-9.4
				c0.1-1,0.2-1.9,0.3-2.6c0,0,0-0.1,0-0.1c0-0.2,0.1-0.4,0.1-0.6"/>
			<path fill="none" stroke="#000000" stroke-width="0.5" stroke-miterlimit="10" d="M40.7,23.7l-0.4,0.1l-9.1,2.5
				c0,0,4.8,14.3,4.2,18.4l1.8,9.1l-1.1,6.3l-2.8,15.7l6.5,1.4"/>
			<polyline fill="none" stroke="#000000" stroke-width="0.5" stroke-miterlimit="10" points="31.2,26.3 24.4,52.2 25.1,71.6 
				25.2,74.9 31.7,75.7 31.7,71.6 31.7,52.9 31.7,48.6 			"/>
			<line fill="none" stroke="#000000" stroke-width="0.5" stroke-miterlimit="10" x1="35.4" y1="44.7" x2="31.7" y2="52.9"/>
			<polyline fill="none" stroke="#000000" stroke-width="0.5" stroke-miterlimit="10" points="25.1,71.6 25.1,71.6 31.2,71.6 			"/>
			<polyline fill="none" stroke="#000000" stroke-width="0.5" stroke-miterlimit="10" points="35.9,60 36.1,60.1 42.9,61.3 			"/>
			<path fill="none" stroke="#000000" stroke-width="0.5" stroke-miterlimit="10" d="M49.8,47.8L49.8,47.8c2.6-2.6,5.6-17.8,6.7-24
				c0.2-1.2,0.4-2,0.4-2.4c0-0.1,0-0.2,0-0.2"/>
			<path fill="none" stroke="#000000" stroke-width="0.5" stroke-miterlimit="10" d="M59.6,77.3c-1.2,0.2-8,0.7-9.2-9.4
				c-0.2-2-0.4-3.9-0.6-5.7c-0.5-7.2-0.1-12.9,0-14.3v0c0-0.2,0-0.3,0-0.3"/>
			<path fill="none" stroke="#000000" stroke-width="0.5" stroke-miterlimit="10" d="M59.3,23.8l0.2,0.1l9.1,2.6
				c0,0-4.9,14.3-4.3,18.4l-1.9,9.1l1.1,6.3l2.8,15.7l-6.7,1.4"/>
			<polyline fill="none" stroke="#000000" stroke-width="0.5" stroke-miterlimit="10" points="68.6,26.4 75.5,52.3 74.7,71.7 
				74.6,75 68.2,75.8 68.2,71.7 68.2,52.9 68.2,48.7 			"/>
			<line fill="none" stroke="#000000" stroke-width="0.5" stroke-miterlimit="10" x1="64.4" y1="44.8" x2="68.2" y2="52.9"/>
			<line fill="none" stroke="#000000" stroke-width="0.5" stroke-miterlimit="10" x1="74.7" y1="71.7" x2="68.6" y2="71.7"/>
			<polyline fill="none" stroke="#000000" stroke-width="0.5" stroke-miterlimit="10" points="64,60.1 63.6,60.2 56.9,61.4 			"/>
			<line fill="none" stroke="#000000" stroke-width="0.5" stroke-miterlimit="10" x1="43.4" y1="23.8" x2="56.5" y2="23.8"/>
			<circle fill="none" stroke="#000000" stroke-width="0.75" stroke-miterlimit="10" cx="51.5" cy="51.3" r="0.8"/>
			<path fill="none" stroke="#000000" stroke-width="0.5" stroke-miterlimit="10" d="M39.9,77.2C39.9,77.2,39.9,77.2,39.9,77.2
				c0.7,0.2,8.6,2.6,19.7,0.1c0.1,0,0.1,0,0.2,0"/>
		</g>
	</g>
</g>
<g id="ethnic_wear">
	<g id="XMLID_5_">
		<g>
			<path fill="#FFFFFF" d="M60.5,19.5c-0.2,0.9-0.9,4.8-0.8,7.5l-2.2,0.1l-0.6-22L57,4.9l4.9,2.2c0,0,2.1,2,2.7,4.1
				c0.5,2.1,2.4,14.8,2.4,14.8v16.7h-4.7l-0.9-17.2L60.5,19.5z"/>
			<polygon fill="#FFFFFF" points="67,42.8 67,44.1 62.3,44.1 62.3,42.8 			"/>
			<path fill="#FFFFFF" d="M58.6,67.3c-3.3,0.6-8.5,0.6-9.1,0.6c0,0-0.1,0-0.1,0s-0.2,0-0.5,0c-1.5,0-6.2,0-9.1-0.7
				c-1.2-0.3-2.1-0.6-2.3-1.1c-0.9-2,1.5-35.5,1.7-38.5c0-0.4,0-0.8,0-1.2l2.4,0.1L41,59.7h1.7v1.7h1h1.2l0-54.3l0,0
				c0.8,0.6,1.8,1.6,1.8,2.3c0.1,0.9,0,19.3,0,19.3h2.7h2.7c0,0-0.1-18.3,0-19.3c0.1-0.7,1-1.6,1.8-2.3l0,54.3h1.3h1.1v-1.7h1.9
				l-0.8-32.7l2.2-0.1c0,0.2,0,0.3,0,0.5c0.3,3,2.7,36.5,1.7,38.5C61.1,66.7,60,67.1,58.6,67.3z"/>
			<path fill="#FFFFFF" d="M56.4,59.7v1.7h-1.1H54l0-54.3c0.2-0.2,0.5-0.3,0.7-0.5c0.9-0.6,1.5-2.2,1.5-2.2l0,0L57,4.9l-0.1,0.2
				l0.6,22l0.8,32.7H56.4z"/>
			<path fill="#FFFFFF" d="M58.6,67.3c-0.1,2.1-0.9,22.4-5.2,29.5h-2.5c-1.5-3-1.3-28.8-1.3-28.8v-0.2
				C50.1,67.9,55.3,67.9,58.6,67.3z"/>
			<path fill="#FFFFFF" d="M56.2,4.6L56.2,4.6c0,0-0.6,1.6-1.5,2.2c-0.2,0.1-0.4,0.3-0.7,0.5c-0.8,0.6-1.8,1.6-1.8,2.3
				c-0.1,0.9,0,19.3,0,19.3h-2.7h-2.7c0,0,0.1-18.3,0-19.3c-0.1-0.7-1-1.7-1.8-2.3c-0.2-0.2-0.4-0.3-0.6-0.4
				c-0.9-0.6-1.5-2.2-1.5-2.2l0.9-0.4L44,4.1L44.3,3l0.6-0.3c0,0-0.1,0.5,0.1,1.1c0.1,0.3,0.2,0.7,0.5,0.9c0.7,0.7,2.4,1.4,2.7,2.9
				h2.7c0.2-1.5,1.9-2.2,2.7-2.9c0.3-0.3,0.4-0.6,0.5-0.9c0.1-0.6,0.1-1.1,0.1-1.1L54.7,3L55,4.1l0.3,0.1l0.5,0.2L56.2,4.6z"/>
			<path fill="#FFFFFF" d="M54.1,2.7c0,0,0.1,0.5-0.1,1.1c-4.6-1.9-9,0-9,0c-0.1-0.6-0.1-1.1-0.1-1.1S49.3,0.1,54.1,2.7z"/>
			<path fill="#FFFFFF" d="M54,3.7c-0.1,0.3-0.2,0.7-0.5,0.9c-0.7,0.7-2.4,1.4-2.7,2.9h-2.7c-0.2-1.5-1.9-2.2-2.7-2.9
				c-0.3-0.3-0.4-0.6-0.5-0.9C45,3.7,49.4,1.8,54,3.7z"/>
			<polygon fill="#FFFFFF" points="53.3,96.8 53.4,99.4 50.8,99.4 50.8,96.8 			"/>
			<path fill="#FFFFFF" d="M49,68.1c0,0,0.2,25.7-1.3,28.8h-2.5c-4.2-6.9-5.1-26.4-5.2-29.6c2.9,0.6,7.5,0.7,9.1,0.7V68.1z"/>
			<polygon fill="#FFFFFF" points="47.7,96.8 47.7,99.4 45.1,99.4 45.1,96.8 			"/>
			<path fill="#FFFFFF" d="M42.7,59.7H41l0.8-33.4l0.5-21.3l-0.1-0.3l0.6-0.3c0,0,0.6,1.6,1.5,2.2c0.2,0.1,0.4,0.3,0.6,0.4l0,0
				l0,54.3h-1.2h-1V59.7z"/>
			<path fill="#FFFFFF" d="M38.7,18.7l-1.1,6.9l-0.9,17.2H32V26.1c0,0,1.9-12.7,2.4-14.8c0.5-2.1,2.7-4.1,2.7-4.1l5.1-2.3l0.1,0.3
				l-0.5,21.3l-2.4-0.1C39.4,23.2,38.7,18.7,38.7,18.7z"/>
			<polygon fill="#FFFFFF" points="36.7,42.8 36.6,44.1 32,44.1 32,42.8 			"/>
		</g>
		<g>
			<path fill="none" stroke="#000000" stroke-width="0.5" stroke-miterlimit="10" d="M39.3,14.3l-0.7,4.4l-1.1,6.9l-0.9,17.2H32
				V26.1c0,0,1.9-12.7,2.4-14.8c0.5-2.1,2.7-4.1,2.7-4.1l5.1-2.3l0.6-0.3l0.9-0.4L44,4.1L44.3,3l0.6-0.3c0,0-0.1,0.5,0.1,1.1
				c0.1,0.3,0.2,0.7,0.5,0.9c0.7,0.7,2.4,1.4,2.7,2.9h2.7c0.2-1.5,1.9-2.2,2.7-2.9c0.3-0.3,0.4-0.6,0.5-0.9c0.1-0.6,0.1-1.1,0.1-1.1
				L54.7,3L55,4.1l0.3,0.1l0.5,0.2l0.4,0.2L57,4.9l4.9,2.2c0,0,2.1,2,2.7,4.1c0.5,2.1,2.4,14.8,2.4,14.8v16.7h-4.7l-0.9-17.2
				l-0.9-6.1l-0.1-0.8l-0.7-4.4"/>
			<path fill="none" stroke="#000000" stroke-width="0.5" stroke-miterlimit="10" d="M38.7,18.7c0,0,0.7,4.5,0.7,7.6
				c0,0.4,0,0.8,0,1.2c-0.3,3-2.7,36.5-1.7,38.5c0.2,0.5,1.1,0.9,2.3,1.1c2.9,0.6,7.5,0.7,9.1,0.7c0.3,0,0.5,0,0.5,0"/>
			<path fill="none" stroke="#000000" stroke-width="0.5" stroke-miterlimit="10" d="M60.5,19.3c0,0,0,0.1,0,0.2
				c-0.2,0.9-0.9,4.8-0.8,7.5c0,0.2,0,0.3,0,0.5c0.3,3,2.7,36.5,1.7,38.5c-0.3,0.6-1.4,1-2.8,1.2c-3.3,0.6-8.5,0.6-9.1,0.6
				c0,0-0.1,0-0.1,0"/>
			<path fill="none" stroke="#000000" stroke-width="0.5" stroke-miterlimit="10" d="M42.8,4.6c0,0,0.6,1.6,1.5,2.2
				c0.2,0.1,0.4,0.3,0.6,0.4c0.8,0.6,1.8,1.6,1.8,2.3c0.1,0.9,0,19.3,0,19.3h2.7"/>
			<path fill="none" stroke="#000000" stroke-width="0.5" stroke-miterlimit="10" d="M49.5,28.7h2.7c0,0-0.1-18.3,0-19.3
				c0.1-0.7,1-1.6,1.8-2.3c0.2-0.2,0.5-0.3,0.7-0.5c0.9-0.6,1.5-2.2,1.5-2.2"/>
			<path fill="none" stroke="#000000" stroke-width="0.5" stroke-miterlimit="10" d="M58.6,67.1c0,0,0,0.1,0,0.2
				c-0.1,2.1-0.9,22.4-5.2,29.5h-2.5v2.5h2.6l-0.1-2.5"/>
			<path fill="none" stroke="#000000" stroke-width="0.5" stroke-miterlimit="10" d="M49.5,68.1c0,0-0.2,25.7,1.3,28.8"/>
			<path fill="none" stroke="#000000" stroke-width="0.5" stroke-miterlimit="10" d="M39.9,66.8c0,0,0,0.2,0,0.4
				c0.1,3.2,1,22.7,5.2,29.6h2.5v2.5h-2.6l0.1-2.5"/>
			<path fill="none" stroke="#000000" stroke-width="0.5" stroke-miterlimit="10" d="M49,68.1c0,0,0.2,25.7-1.3,28.8"/>
			<path fill="none" stroke="#000000" stroke-width="0.5" stroke-miterlimit="10" d="M44.9,2.7c0,0,4.4-2.6,9.1,0"/>
			<polyline fill="none" stroke="#000000" stroke-width="0.5" stroke-miterlimit="10" points="32,42.8 32,44.1 36.6,44.1 36.7,42.8 
							"/>
			<polyline fill="none" stroke="#000000" stroke-width="0.5" stroke-miterlimit="10" points="62.3,42.8 62.3,44.1 67,44.1 67,42.8 
							"/>
			<path fill="none" stroke="#000000" stroke-width="0.5" stroke-miterlimit="10" d="M45,3.7c0,0,4.4-1.9,9,0"/>
			<polyline fill="none" stroke="#000000" stroke-width="0.5" stroke-miterlimit="10" points="56.9,5.1 57.5,27.1 58.3,59.7 
				56.4,59.7 			"/>
			<polyline fill="none" stroke="#000000" stroke-width="0.5" stroke-miterlimit="10" points="56.4,46.9 56.4,59.7 56.4,61.5 
				55.3,61.5 54,61.5 54.1,7.2 			"/>
			<polyline fill="none" stroke="#000000" stroke-width="0.5" stroke-miterlimit="10" points="42.3,5.1 41.8,26.4 41,59.7 
				42.7,59.7 			"/>
			<polyline fill="none" stroke="#000000" stroke-width="0.5" stroke-miterlimit="10" points="42.7,46.9 42.7,59.7 42.7,61.5 
				43.8,61.5 44.9,61.5 44.9,7.2 			"/>
		</g>
	</g>
</g>
<g id="shoe" display="none">
	<g id="XMLID_6_" display="inline">
		<g>
			<path fill="#FFFFFF" d="M80.7,56.7c0.1,0,0.2,0,0.2,0l0.4,2.1c0,0-24.7,5.1-33.4,2.8c-8.7-2.4-13.4-3.4-13.4-3.4l-0.2,3.6H19.5
				l-0.3-0.3v-6.6v-0.5l0.9,0.1c0,0,10.2,0.6,18.5,2.2c2.1,0.4,4.1,0.9,5.7,1.4c5.9,1.9,15.1,1.4,21.4,0.7c2.6-0.3,4.7-0.6,5.8-0.7
				C74.2,57.9,79.7,56.9,80.7,56.7z"/>
			<path fill="#FFFFFF" d="M75.8,51.7c0.4,0.2,5,0.9,4.9,5c-1,0.2-6.5,1.2-9.2,1.5c-1.2,0.1-3.2,0.4-5.8,0.7l0.1-8.5
				c0.8,0.3,1.6,0.5,2.5,0.6C71.1,51.2,75.8,51.7,75.8,51.7z"/>
			<path fill="#FFFFFF" d="M55.1,50.9c0.4,0.1,5.2,0.6,4.9-3.7l2.8,1.7c0,0,1.3,0.8,3,1.4l-0.1,8.5c-6.3,0.7-15.5,1.2-21.4-0.7
				c-1.7-0.5-3.6-1-5.7-1.4c0,0,1.6-7.8,9.5-6.8C53.9,50.7,54.9,50.9,55.1,50.9z"/>
			<path fill="#FFFFFF" d="M60,47.2c0.2,4.3-4.5,3.7-4.9,3.7c-0.1,0-1.1-0.2-7-0.9c-7.9-1-9.5,6.8-9.5,6.8
				c-8.3-1.6-18.5-2.2-18.5-2.2C17.7,45.3,23,40,23,40s8.6,6.9,19.6,0.9c1-0.5,2-1.2,3.1-2h0.8L60,47.2z"/>
			<path fill="#FFFFFF" d="M46.5,38.9h-0.8c-1,0.8-2.1,1.4-3.1,2c0-0.9,1.1-3.4,1.1-3.4L46.5,38.9z"/>
		</g>
		<g>
			<path fill="none" stroke="#020202" stroke-width="0.5" stroke-miterlimit="10" d="M80.7,56.8L80.7,56.8c0.1-4.1-4.5-4.8-4.9-5
				c0,0-4.7-0.5-7.4-0.7c-0.9-0.1-1.7-0.3-2.5-0.6c-1.7-0.6-3-1.4-3-1.4L60,47.2l-13.5-8.3h-0.8c-1,0.8-2.1,1.4-3.1,2
				C31.7,46.9,23,40,23,40s-5.3,5.4-3,14.7c0,0,10.2,0.6,18.5,2.2c2.1,0.4,4.1,0.9,5.7,1.4c5.9,1.9,15.1,1.4,21.4,0.7
				c2.6-0.3,4.7-0.6,5.8-0.7C74.2,57.9,79.7,56.9,80.7,56.8c0.1,0,0.2,0,0.2,0l0.4,2.1c0,0-24.7,5.1-33.4,2.8
				c-8.7-2.4-13.4-3.4-13.4-3.4l-0.2,3.6H19.5l-0.3-0.3v-6.6v-0.5l0.9,0.1"/>
			<line fill="none" stroke="#020202" stroke-width="0.5" stroke-miterlimit="10" x1="47.6" y1="39.6" x2="46.3" y2="41.6"/>
			<line fill="none" stroke="#020202" stroke-width="0.5" stroke-miterlimit="10" x1="50.1" y1="41.2" x2="49" y2="43"/>
			<line fill="none" stroke="#020202" stroke-width="0.5" stroke-miterlimit="10" x1="52.4" y1="42.6" x2="51.4" y2="44.6"/>
			<line fill="none" stroke="#020202" stroke-width="0.5" stroke-miterlimit="10" x1="54.9" y1="44.2" x2="53.7" y2="46.2"/>
			<line fill="none" stroke="#020202" stroke-width="0.5" stroke-miterlimit="10" x1="57.6" y1="45.8" x2="56.3" y2="47.8"/>
			<line fill="none" stroke="#020202" stroke-width="0.5" stroke-miterlimit="10" x1="65.8" y1="50.4" x2="65.7" y2="58.9"/>
			<path fill="none" stroke="#020202" stroke-width="0.5" stroke-miterlimit="10" d="M46.5,38.9l-2.7-1.4c0,0-1.1,2.5-1.1,3.4"/>
			<path fill="none" stroke="#020202" stroke-width="0.5" stroke-miterlimit="10" d="M60,47.2c0,0,0-0.1,0-0.1"/>
			<path fill="none" stroke="#020202" stroke-width="0.5" stroke-miterlimit="10" d="M55,50.9C55,50.9,55.1,50.9,55,50.9"/>
			<path fill="none" stroke="#020202" stroke-width="0.5" stroke-miterlimit="10" d="M38.6,56.8c0,0,1.6-7.8,9.5-6.8
				c5.9,0.7,6.9,0.8,7,0.9c0.4,0.1,5.2,0.6,4.9-3.7"/>
		</g>
	</g>
</g>
<g id="accessories" display="none">
	<g id="XMLID_7_" display="inline">
		<g>
			<path fill="#FFFFFF" d="M70.4,45.2c-0.1,0-0.2,0.1-0.3,0.1h0c-0.7,0.2-3.1,0.5-10.1,1.1c-12,1-14.9-3.9-14.9-3.9s0.7-1.7,1.6-3.8
				c0,0,13.2,4.6,25.1,1.8c0.6,2,1,3.4,1,3.4S71.9,44.5,70.4,45.2z"/>
			<path fill="#FFFFFF" d="M46.8,38.7c0-0.1,3.3-7.8,3.5-8.2c0.3-0.7,0.8-3.5,5.9-2.1c5.1,1.4,8.7-0.3,8.7-0.3s2.7-1.5,3.7,1.4
				c0.5,1.5,1.6,5.1,2.6,8.4c0.3,0.9,0.5,1.8,0.8,2.6C60,43.4,46.8,38.7,46.8,38.7z"/>
			<path fill="#FFFFFF" d="M72.8,37.9c4.4,1.2,0.2,6,0.2,6s-0.4-1.4-1-3.4c-0.2-0.8-0.5-1.7-0.8-2.6l0,0H72.8z"/>
			<path fill="#FFFFFF" d="M74.5,37.9c0,0,3.2-0.3,1.5,4.5c-2.6,7.2-7.6,6.1-17.1,7.9c2.2-0.5,7.9-3.2,11.3-5h0
				c0.4-0.1,0.3-0.1,0.3-0.1c1.5-0.8,2.5-1.3,2.5-1.3s4.2-4.8-0.2-6H74.5z"/>
			<path fill="#FFFFFF" d="M71.3,60.2v2.9h-1.5c0-1.1-0.1-2.1-0.2-2.9H71.3z"/>
			<path fill="#FFFFFF" d="M70.4,45.2c0.1,0,0.1,0.1-0.3,0.1C70.3,45.3,70.4,45.3,70.4,45.2z"/>
			<path fill="#FFFFFF" d="M69.8,63.1c0,0.4,0,0.9,0,1.4c-0.3,5.5-6.6,2.9-6.6,2.9s-3-0.9-4.9-5.4c-0.3-0.7-0.4-1.3-0.4-1.8
				c0,0,0,0,0,0c0.1-1.7,1.7-2.6,2.9-3h0c0.9-0.3,1.7-0.4,1.7-0.4c4.7-0.7,6.5,0.6,7.1,3.4C69.7,61.1,69.8,62,69.8,63.1z"/>
			<path fill="#FFFFFF" d="M70.2,45.4c-3.4,1.7-9.1,4.5-11.3,5c-3.2,0.7-10.3,0.4-16.1-1.7c-5.8-2.1,2.4-6.1,2.4-6.1
				s2.9,4.9,14.9,3.9C67.1,45.8,69.4,45.5,70.2,45.4z"/>
			<path fill="#FFFFFF" d="M43.7,60.2c0.6-2.8,2.4-4.1,7.1-3.4c0,0,0.7,0.1,1.7,0.4h0c1.3,0.4,2.8,1.3,2.9,3c0,0,0,0,0,0
				c0,0.5-0.1,1.1-0.4,1.8c-1.9,4.6-4.9,5.4-4.9,5.4s-6.3,2.6-6.6-2.9c0-0.5,0-1,0-1.4C43.5,62,43.6,61.1,43.7,60.2z"/>
			<path fill="#FFFFFF" d="M42,60.2h1.7c-0.2,0.8-0.2,1.8-0.2,2.9H42V60.2z"/>
			<polygon fill="#FFFFFF" points="32.6,31 36.3,67.6 30.1,74.3 24,67.6 27.6,31 29.9,31 30.4,31 			"/>
			<polygon fill="#FFFFFF" points="35.3,24.5 32.6,31 30.4,31 29.9,31 27.6,31 24.9,24.5 29.9,24.5 30.4,24.5 			"/>
		</g>
		<g>
			<polyline fill="none" stroke="#000000" stroke-width="0.5" stroke-miterlimit="10" points="29.9,24.5 24.9,24.5 27.6,31 29.9,31 
							"/>
			<polyline fill="none" stroke="#000000" stroke-width="0.5" stroke-miterlimit="10" points="27.6,31 24,67.6 30.1,74.3 30.4,74.6 
							"/>
			<polyline fill="none" stroke="#000000" stroke-width="0.5" stroke-miterlimit="10" points="29.9,24.5 30.4,24.5 35.3,24.5 
				32.6,31 30.4,31 29.9,31 			"/>
			<polyline fill="none" stroke="#000000" stroke-width="0.5" stroke-miterlimit="10" points="32.6,31 36.3,67.6 30.1,74.3 			"/>
			<path fill="none" stroke="#000000" stroke-width="0.5" stroke-miterlimit="10" d="M55.4,60.2c0,0.5-0.1,1.1-0.4,1.8
				c-1.9,4.6-4.9,5.4-4.9,5.4s-6.3,2.6-6.6-2.9c0-0.5,0-1,0-1.4c0-1.1,0.1-2.1,0.2-2.9c0.6-2.8,2.4-4.1,7.1-3.4"/>
			<path fill="none" stroke="#000000" stroke-width="0.5" stroke-miterlimit="10" d="M52.5,57.2c1.3,0.4,2.8,1.3,2.9,3"/>
			<path fill="none" stroke="#000000" stroke-width="0.5" stroke-miterlimit="10" d="M50.8,56.8c0,0,0.7,0.1,1.7,0.4"/>
			<polyline fill="none" stroke="#000000" stroke-width="0.5" stroke-miterlimit="10" points="52.5,57.2 52.5,57.2 56.5,57.2 			"/>
			<path fill="none" stroke="#000000" stroke-width="0.5" stroke-miterlimit="10" d="M56.7,58.9c0,0,0.1,0,0.1,0"/>
			<path fill="none" stroke="#000000" stroke-width="0.5" stroke-miterlimit="10" d="M55.4,60.2C55.4,60.2,55.4,60.2,55.4,60.2
				c0-0.3,0.2-1.2,1.2-1.4"/>
			<polyline fill="none" stroke="#000000" stroke-width="0.5" stroke-miterlimit="10" points="43.8,60.2 43.7,60.2 42,60.2 42,63.1 
				43.5,63.1 43.8,63.1 			"/>
			<path fill="none" stroke="#000000" stroke-width="0.5" stroke-miterlimit="10" d="M57.9,60.2c0,0.5,0.1,1.1,0.4,1.8
				c1.9,4.6,4.9,5.4,4.9,5.4s6.3,2.6,6.6-2.9c0-0.5,0-1,0-1.4c0-1.1-0.1-2.1-0.2-2.9c-0.6-2.8-2.4-4.1-7.1-3.4"/>
			<path fill="none" stroke="#000000" stroke-width="0.5" stroke-miterlimit="10" d="M60.8,57.2c-1.3,0.4-2.8,1.3-2.9,3"/>
			<path fill="none" stroke="#000000" stroke-width="0.5" stroke-miterlimit="10" d="M62.5,56.8c0,0-0.7,0.1-1.7,0.4"/>
			<polyline fill="none" stroke="#000000" stroke-width="0.5" stroke-miterlimit="10" points="60.8,57.2 60.8,57.2 56.8,57.2 
				56.5,57.2 			"/>
			<path fill="none" stroke="#000000" stroke-width="0.5" stroke-miterlimit="10" d="M57.9,60.2C57.9,60.2,57.9,60.2,57.9,60.2
				c0-0.3-0.2-1.2-1.2-1.4c0,0-0.1,0-0.1,0c0,0-0.1,0-0.1,0"/>
			<polyline fill="none" stroke="#000000" stroke-width="0.5" stroke-miterlimit="10" points="69.6,60.2 71.3,60.2 71.3,63.1 
				69.8,63.1 69.6,63.1 			"/>
			<path fill="none" stroke="#000000" stroke-width="0.5" stroke-miterlimit="10" d="M70.2,45.4c-0.7,0.2-3.1,0.5-10.1,1.1
				c-12,1-14.9-3.9-14.9-3.9s0.7-1.7,1.6-3.8c0-0.1,3.3-7.8,3.5-8.2c0.3-0.7,0.8-3.5,5.9-2.1c5.1,1.4,8.7-0.3,8.7-0.3
				s2.7-1.5,3.7,1.4c0.5,1.5,1.6,5.1,2.6,8.4c0.3,0.9,0.5,1.8,0.8,2.6c0.6,2,1,3.4,1,3.4"/>
			<path fill="none" stroke="#000000" stroke-width="0.5" stroke-miterlimit="10" d="M70.4,45.2C70.4,45.2,70.4,45.2,70.4,45.2
				c0.1,0,0.2,0.1-0.2,0.2"/>
			<path fill="none" stroke="#000000" stroke-width="0.5" stroke-miterlimit="10" d="M45.2,42.5c0,0-8.2,4.1-2.4,6.1
				c5.8,2.1,12.9,2.4,16.1,1.7c2.2-0.5,7.9-3.2,11.3-5h0c0.1-0.1,0.2-0.1,0.3-0.1c1.5-0.8,2.5-1.3,2.5-1.3s4.2-4.8-0.2-6"/>
			<path fill="none" stroke="#000000" stroke-width="0.5" stroke-miterlimit="10" d="M71.2,37.9h1.6h1.8c0,0,3.2-0.3,1.5,4.5
				c-2.6,7.2-7.6,6.1-17.1,7.9"/>
			<path fill="none" stroke="#000000" stroke-width="0.5" stroke-miterlimit="10" d="M46.8,38.7c0,0,13.2,4.6,25.1,1.8"/>
			<path fill="none" stroke="#000000" stroke-width="0.5" stroke-miterlimit="10" d="M52.9,30.9c0,0-1.1,2.3,3.6,1
				c4.7-1.3,7.7-3.5,7.7-3.5"/>
		</g>
	</g>
</g>
</svg>
