<?xml version="1.0" encoding="utf-8"?>
<!-- Generator: Adobe Illustrator 18.0.0, SVG Export Plug-In . SVG Version: 6.00 Build 0)  -->
<!DOCTYPE svg PUBLIC "-//W3C//DTD SVG 1.1//EN" "http://www.w3.org/Graphics/SVG/1.1/DTD/svg11.dtd">
<svg version="1.1" xmlns="http://www.w3.org/2000/svg" xmlns:xlink="http://www.w3.org/1999/xlink" x="0px" y="0px"
	 viewBox="0 0 100 100" enable-background="new 0 0 100 100" xml:space="preserve">
<g id="Layer_3" display="none">
	<rect display="inline" fill="#00A651" stroke="#000000" stroke-width="0.5" stroke-miterlimit="10" width="100" height="100"/>
</g>
<g id="Layer_2" display="none">
</g>
<g id="shirt" display="none">
	<g id="XMLID_1_" display="inline">
		<g>
			<path fill="#FFFFFF" d="M68.2,50.4c0.1,3.1,0.1,11.8,0,16.7H68h-5.1h0l-0.6-2.2c0,0,1.4-12.7-1.4-17c0.1-1.1,0.1-1.8,0.1-1.8
				c-0.4-2.5,2.6-14.1,2.6-14.1S68,45.9,68.2,50.4z"/>
			<path fill="#FFFFFF" d="M62.9,67.1L62.9,67.1L62.9,67.1l5.1,0h0.2c0,2.1,0,3.5,0,3.5h-5.3V67.1z"/>
			<path fill="#FFFFFF" d="M60.9,47.9c-0.3,3.9-0.8,13.2-0.1,16.4c1,4.1,1.2,5.5,1.2,5.5s-2.4,4.9-11,5.5v0V30.6l3.2,3.2l0.6-4.9
				c0,0,0-0.4-0.1-1c0.2,0.3,9,4.1,9,4.1s-3,11.6-2.6,14.1C61,46.2,61,46.8,60.9,47.9z"/>
			<path fill="#FFFFFF" d="M53.9,25.4c0.4,0.1,0.7,1.6,0.8,2.7c0.1,0.5,0.1,1,0.1,1l-0.6,4.9l-3.2-3.2l-0.8-0.9c0,0,1.7-1.4,3-2.9
				c0.1-0.1,0.3-0.3,0.4-0.5C53.9,26,54,25.6,53.9,25.4z"/>
			<path fill="#FFFFFF" d="M51.1,30.6v44.6v0c-0.3,0-0.7,0.1-1.1,0.1c-0.4,0-0.7,0-1.1-0.1v0V30.6l0.8-0.9c0,0-1.7-1.3-2.9-2.8
				c0.7-0.2,3.5-0.8,6.3-0.1c-1.3,1.5-3,2.9-3,2.9L51.1,30.6z"/>
			<path fill="#FFFFFF" d="M52.3,24.6c0,0,1.3,0.1,1.6,0.8c0.1,0.3,0,0.6-0.3,1.1c-0.1,0.1-0.2,0.3-0.4,0.5
				c-2.8-0.7-5.6-0.1-6.3,0.1c0,0,0,0,0,0c-0.1-0.2-0.3-0.4-0.4-0.5c-0.3-0.5-0.4-0.8-0.3-1.1c0.2-0.7,1.6-0.8,1.6-0.8h2.1h0.3H52.3
				z"/>
			<path fill="#FFFFFF" d="M48.9,75.3L48.9,75.3c-8.5-0.6-11-5.4-11-5.4s0.3-1.4,1.2-5.5c0.8-3.2,0.2-12.5-0.1-16.4
				C39,46.8,39,46.2,39,46.2c0.4-2.5-2.6-14.1-2.6-14.1s8.7-3.8,9-4.1c-0.1,0.5-0.1,1-0.1,1l0.6,4.9l3.2-3.2V75.3z"/>
			<path fill="#FFFFFF" d="M46.9,27c1.2,1.5,2.9,2.8,2.9,2.8l-0.8,0.9l-3.2,3.2L45.2,29c0,0,0-0.4,0.1-1c0.2-1,0.5-2.6,0.8-2.7
				c-0.1,0.3,0,0.6,0.3,1.1C46.6,26.6,46.7,26.8,46.9,27C46.9,27,46.9,27,46.9,27z"/>
			<path fill="#FFFFFF" d="M37.7,64.9l-0.6,2.2h0H32h-0.2c0-4.9-0.1-13.6,0-16.7c0.2-4.5,4.5-18.3,4.5-18.3s3,11.6,2.6,14.1
				c0,0,0.1,0.7,0.1,1.8C36.3,52.2,37.7,64.9,37.7,64.9z"/>
			<path fill="#FFFFFF" d="M37.1,67.1v3.4h-5.3c0,0,0-1.4,0-3.5H32L37.1,67.1L37.1,67.1L37.1,67.1z"/>
		</g>
		<g>
			<path fill="none" stroke="#000000" stroke-width="0.5" stroke-miterlimit="10" d="M46.9,27c1.2,1.5,2.9,2.8,2.9,2.8l-0.8,0.9
				l-3.2,3.2L45.2,29c0,0,0-0.4,0.1-1c0.2-1,0.5-2.6,0.8-2.7"/>
			<path fill="none" stroke="#000000" stroke-width="0.5" stroke-miterlimit="10" d="M49.8,24.6h-2.1c0,0-1.3,0.1-1.6,0.8
				c-0.1,0.3,0,0.6,0.3,1.1c0.1,0.2,0.3,0.4,0.4,0.5"/>
			<path fill="none" stroke="#000000" stroke-width="0.5" stroke-miterlimit="10" d="M45.3,28c-0.2,0.3-9,4.1-9,4.1s3,11.6,2.6,14.1
				c0,0,0.1,0.7,0.1,1.8c0.3,3.9,0.8,13.2,0.1,16.4c-1,4.1-1.2,5.5-1.2,5.5s2.4,4.9,11,5.5c0.3,0,0.7,0.1,1.1,0.1c0,0,0.1,0,0.2,0"
				/>
			<path fill="none" stroke="#000000" stroke-width="0.5" stroke-miterlimit="10" d="M36.3,32.1c0,0-4.3,13.8-4.5,18.3
				c-0.1,3.1-0.1,11.8,0,16.7c0,2.1,0,3.5,0,3.5h5.3v-3.4l0,0l0.6-2.2c0,0-1.4-12.7,1.4-17v0"/>
			<line fill="none" stroke="#000000" stroke-width="0.5" stroke-miterlimit="10" x1="32" y1="67.1" x2="37.1" y2="67.1"/>
			<line fill="none" stroke="#000000" stroke-width="0.5" stroke-miterlimit="10" x1="48.9" y1="30.6" x2="48.9" y2="75.3"/>
			<path fill="none" stroke="#000000" stroke-width="0.5" stroke-miterlimit="10" d="M49.8,24.6h0.3h2.1c0,0,1.3,0.1,1.6,0.8
				c0.1,0.3,0,0.6-0.3,1.1c-0.1,0.1-0.2,0.3-0.4,0.5c-1.3,1.5-3,2.9-3,2.9l0.8,0.9l3.2,3.2l0.6-4.9c0,0,0-0.4-0.1-1
				c-0.2-1-0.5-2.6-0.8-2.7"/>
			<path fill="none" stroke="#000000" stroke-width="0.5" stroke-miterlimit="10" d="M54.7,28c0.2,0.3,9,4.1,9,4.1s-3,11.6-2.6,14.1
				c0,0-0.1,0.7-0.1,1.8c-0.3,3.9-0.8,13.2-0.1,16.4c1,4.1,1.2,5.5,1.2,5.5s-2.4,4.9-11,5.5c-0.3,0-0.7,0.1-1.1,0.1c0,0-0.1,0-0.2,0
				"/>
			<path fill="none" stroke="#000000" stroke-width="0.5" stroke-miterlimit="10" d="M63.7,32.1c0,0,4.3,13.8,4.5,18.3
				c0.1,3.1,0.1,11.8,0,16.7c0,2.1,0,3.5,0,3.5h-5.3v-3.4l0,0l-0.6-2.2c0,0,1.4-12.7-1.4-17v0"/>
			<line fill="none" stroke="#000000" stroke-width="0.5" stroke-miterlimit="10" x1="68" y1="67.1" x2="62.9" y2="67.1"/>
			<line fill="none" stroke="#000000" stroke-width="0.5" stroke-miterlimit="10" x1="51.1" y1="30.6" x2="51.1" y2="75.3"/>
			<path fill="none" stroke="#000000" stroke-width="0.5" stroke-miterlimit="10" d="M46.7,27c0,0,0.1,0,0.2,0c0,0,0,0,0,0
				c0.7-0.2,3.5-0.8,6.3-0.1c0.1,0,0.1,0,0.2,0"/>
		</g>
	</g>
</g>
<g id="tee" display="none">
	<g id="XMLID_2_" display="inline">
		<g>
			<polygon fill="#FFFFFF" points="65,32.8 70.7,42.9 64.9,46.4 61.6,43.2 64.9,32.8 			"/>
			<path fill="#FFFFFF" d="M64.9,32.8L64.9,32.8l-3.3,10.5l-0.1,27.4c-11.3,3-23.1,0-23.1,0l-0.1-27.4l-3.3-10.5c0,0,5-2.2,8.1-3.6
				c0,0,0.8,4.4,6.6,4.5c0.1,0,0.2,0,0.3,0c5.8-0.1,6.6-4.5,6.6-4.5C59.8,30.6,64.9,32.8,64.9,32.8z"/>
			<path fill="#FFFFFF" d="M50,28.8c3.1,0.2,4.4-0.7,4.4-0.7c0.1,0.1,1,0.5,2.4,1.1c0,0-0.8,4.4-6.6,4.5c-0.1,0-0.2,0-0.3,0
				c-5.8-0.1-6.6-4.5-6.6-4.5c1.3-0.6,2.3-1,2.3-1.1C45.6,28.1,46.9,28.9,50,28.8z"/>
			<polygon fill="#FFFFFF" points="35.2,32.8 38.4,43.2 35.2,46.4 29.3,42.9 35,32.8 			"/>
		</g>
		<g>
			<path fill="none" stroke="#000000" stroke-width="0.5" stroke-miterlimit="10" d="M50.1,28.8c0,0-0.1,0-0.1,0
				c-3.2,0.2-4.4-0.7-4.4-0.7c-0.1,0.1-1,0.5-2.3,1.1c-3.1,1.4-8.1,3.6-8.1,3.6l3.3,10.5l0.1,27.4c0,0,11.8,3,23.1,0l0.1-27.4
				l3.3-10.4v0c0,0-5-2.2-8.1-3.6c-1.3-0.6-2.3-1-2.4-1.1c0,0-1.3,0.9-4.4,0.7c0,0-0.1,0-0.1,0"/>
			<polyline fill="none" stroke="#000000" stroke-width="0.5" stroke-miterlimit="10" points="35,32.8 29.3,42.9 35.2,46.4 
				38.4,43.2 			"/>
			<path fill="none" stroke="#000000" stroke-width="0.5" stroke-miterlimit="10" d="M45.5,28.4c0,0,0.4,2.8,4.5,2.9
				c0,0,0.1,0,0.1,0"/>
			<path fill="none" stroke="#000000" stroke-width="0.5" stroke-miterlimit="10" d="M43.3,29.2c0,0,0.8,4.4,6.6,4.5"/>
			<polyline fill="none" stroke="#000000" stroke-width="0.5" stroke-miterlimit="10" points="65,32.8 70.7,42.9 64.9,46.4 
				61.6,43.2 			"/>
			<path fill="none" stroke="#000000" stroke-width="0.5" stroke-miterlimit="10" d="M54.5,28.4c0,0-0.4,2.8-4.5,2.9
				c0,0-0.1,0-0.1,0"/>
			<path fill="none" stroke="#000000" stroke-width="0.5" stroke-miterlimit="10" d="M56.8,29.2c0,0-0.8,4.4-6.6,4.5
				c-0.1,0-0.2,0-0.3,0"/>
		</g>
	</g>
</g>
<g id="pant" display="none">
	<g id="XMLID_3_" display="inline">
		<g>
			<path fill="#FFFFFF" d="M59.8,20.8c1.7-0.2,2.9-0.3,2.9-0.3h0l0.2,5.1c-3.4-0.3-4.9-2.4-5.7-4.5C58.1,21,59,20.9,59.8,20.8z"/>
			<path fill="#FFFFFF" d="M62.6,19.7l0,0.8h0c0,0-1.2,0.1-2.9,0.3l-0.2-3.9c1.7-0.1,2.8-0.2,2.8-0.2L62.6,19.7z"/>
			<path fill="#FFFFFF" d="M59.6,16.9l0.2,3.9C59,20.9,58.1,21,57.2,21c-0.7-1.9-0.7-3.8-0.7-3.9c0,0,0,0,0,0
				C57.6,17,58.7,17,59.6,16.9z"/>
			<path fill="#FFFFFF" d="M56.5,17.1c0,0.2,0,2,0.7,3.9c-1,0.1-2,0.2-3,0.2v-3.9l0-0.1C54.9,17.2,55.7,17.1,56.5,17.1z"/>
			<path fill="#FFFFFF" d="M52.8,21.4v7.5c0,0,0.2,2.1-2.7,2.1H50v-9.6C50.8,21.4,51.8,21.4,52.8,21.4L52.8,21.4z"/>
			<path fill="#FFFFFF" d="M51.4,18.4c0.5,0,0.8,0.4,0.8,0.8c0,0.5-0.4,0.8-0.8,0.8s-0.8-0.4-0.8-0.8C50.6,18.8,51,18.4,51.4,18.4z"
				/>
			<path fill="#FFFFFF" d="M51.4,20c0.5,0,0.8-0.4,0.8-0.8c0-0.4-0.4-0.8-0.8-0.8s-0.8,0.4-0.8,0.8C50.6,19.7,51,20,51.4,20z
				 M54.1,17.4v3.9c-0.5,0-0.9,0-1.3,0.1c-1,0-2,0.1-2.8,0.1v-4c1.2,0,2.6-0.1,4.1-0.1L54.1,17.4z"/>
			<path fill="#FFFFFF" d="M54.1,21.3c1-0.1,2-0.1,3-0.2c0.8,2.1,2.3,4.3,5.7,4.5l2.8,58.5l-10.4,1.1c0,0-2.8-51.1-5.3-52.3V31h0.1
				c3,0,2.7-2.1,2.7-2.1v-7.5v-0.1C53.2,21.3,53.7,21.3,54.1,21.3z"/>
			<path fill="#FFFFFF" d="M50,31v1.9c-2.4,1.2-5.3,52.3-5.3,52.3l-10.4-1.1l2.8-58.5c3.4-0.3,4.9-2.4,5.7-4.5
				c1.1,0.1,2.4,0.2,3.5,0.3c1.3,0.1,2.5,0.1,3.6,0.1V31z"/>
			<path fill="#FFFFFF" d="M50,17.4v4c-1.1,0-2.3,0-3.6-0.1v-3.9v-0.1C47.7,17.3,49,17.4,50,17.4z"/>
			<path fill="#FFFFFF" d="M46.4,17.4v3.9c-1.2-0.1-2.4-0.2-3.5-0.3c0.7-2,0.7-3.9,0.7-3.9c0.9,0.1,1.9,0.1,2.9,0.2V17.4z"/>
			<path fill="#FFFFFF" d="M43.5,17.1c0,0,0,1.9-0.7,3.9c-0.9-0.1-1.8-0.2-2.5-0.2l0.2-3.9C41.4,17,42.4,17,43.5,17.1z"/>
			<path fill="#FFFFFF" d="M50,14.8c6.3,0,12.4,1.9,12.4,1.9s-1.2,0.1-2.8,0.2c-0.9,0.1-2,0.1-3.1,0.2c0,0,0,0,0,0
				c-0.8,0-1.6,0.1-2.4,0.1c-1.5,0.1-3,0.1-4.1,0.1c-1,0-2.3,0-3.6-0.1c-1,0-1.9-0.1-2.9-0.2c-1.1-0.1-2.1-0.1-3-0.2
				c-1.7-0.1-2.9-0.2-2.9-0.2S43.7,14.8,50,14.8z"/>
			<path fill="#FFFFFF" d="M40.5,16.9l-0.2,3.9c-1.8-0.2-3-0.3-3-0.3l0-0.8l0.1-3.1C37.6,16.7,38.8,16.8,40.5,16.9z"/>
			<path fill="#FFFFFF" d="M40.3,20.8c0.8,0.1,1.6,0.1,2.5,0.2c-0.8,2.1-2.3,4.3-5.7,4.5l0.2-5.1C37.4,20.5,38.6,20.6,40.3,20.8z"/>
		</g>
		<g>
			<path fill="none" stroke="#000000" stroke-width="0.5" stroke-miterlimit="10" d="M50,32.9c-2.4,1.2-5.3,52.3-5.3,52.3l-10.4-1.1
				l2.8-58.5l0.2-5.1l0-0.8l0.1-3.1c0,0,1.2,0.1,2.9,0.2c0.9,0.1,1.9,0.1,3,0.2c0.9,0.1,1.9,0.1,2.9,0.2c1.3,0.1,2.6,0.1,3.6,0.1"/>
			<path fill="none" stroke="#000000" stroke-width="0.5" stroke-miterlimit="10" d="M37.6,16.7c0,0,6.1-1.9,12.4-1.9"/>
			<path fill="none" stroke="#000000" stroke-width="0.5" stroke-miterlimit="10" d="M37.4,20.5c0,0,1.2,0.1,3,0.3
				c0.8,0.1,1.6,0.1,2.5,0.2c1.1,0.1,2.4,0.2,3.5,0.3c1.3,0.1,2.5,0.1,3.6,0.1"/>
			<path fill="none" stroke="#000000" stroke-width="0.5" stroke-miterlimit="10" d="M43.5,17.1c0,0,0,1.9-0.7,3.9
				c-0.8,2.1-2.3,4.3-5.7,4.5"/>
			<path fill="none" stroke="#000000" stroke-width="0.5" stroke-miterlimit="10" d="M56.5,17.1c-0.8,0-1.6,0.1-2.4,0.1
				c-1.5,0.1-3,0.1-4.1,0.1"/>
			<path fill="none" stroke="#000000" stroke-width="0.5" stroke-miterlimit="10" d="M50,32.9c2.4,1.2,5.3,52.3,5.3,52.3l10.4-1.1
				l-2.8-58.5l-0.2-5.1l0-0.8l-0.1-3.1c0,0-1.2,0.1-2.8,0.2c-0.9,0.1-2,0.1-3.1,0.2"/>
			<path fill="none" stroke="#000000" stroke-width="0.5" stroke-miterlimit="10" d="M62.4,16.7c0,0-6.1-1.9-12.4-1.9"/>
			<path fill="none" stroke="#000000" stroke-width="0.5" stroke-miterlimit="10" d="M62.6,20.5c0,0-1.2,0.1-2.9,0.3
				C59,20.9,58.1,21,57.2,21c-1,0.1-2,0.2-3,0.2c-0.5,0-0.9,0-1.3,0.1c-1,0-2,0.1-2.8,0.1"/>
			<path fill="none" stroke="#000000" stroke-width="0.5" stroke-miterlimit="10" d="M56.5,17.1C56.5,17.1,56.5,17.1,56.5,17.1
				c0,0.2,0,2,0.7,3.9c0.8,2.1,2.3,4.3,5.7,4.5"/>
			<polyline fill="none" stroke="#000000" stroke-width="0.5" stroke-miterlimit="10" points="50,17.4 50,21.4 50,31 50,32.9 50,33 
							"/>
			<path fill="none" stroke="#000000" stroke-width="0.5" stroke-miterlimit="10" d="M52.8,21.4v7.5c0,0,0.2,2.1-2.7,2.1"/>
			<path fill="none" stroke="#000000" stroke-width="0.5" stroke-miterlimit="10" d="M50.6,19.2c0,0.5,0.4,0.8,0.8,0.8
				s0.8-0.4,0.8-0.8c0-0.4-0.4-0.8-0.8-0.8S50.6,18.8,50.6,19.2z"/>
			<line fill="none" stroke="#000000" stroke-width="0.5" stroke-miterlimit="10" x1="46.4" y1="17.4" x2="46.4" y2="21.3"/>
			<polyline fill="none" stroke="#000000" stroke-width="0.5" stroke-miterlimit="10" points="40.5,16.9 40.5,16.9 40.3,20.8 			"/>
			<polyline fill="none" stroke="#000000" stroke-width="0.5" stroke-miterlimit="10" points="54.1,17.4 54.1,21.3 54.1,21.3 			"/>
			<polyline fill="none" stroke="#000000" stroke-width="0.5" stroke-miterlimit="10" points="59.6,16.9 59.8,20.8 59.8,20.8 			"/>
		</g>
	</g>
</g>
<g id="coat" display="none">
	<g id="XMLID_4_" display="inline">
		<g>
			<path fill="#FFFFFF" d="M67.6,53.3l-3.7-7.8c-0.7-4,4.1-17.7,4.1-17.7l6.6,24.9l-0.7,18.7H68h-0.4V53.3z"/>
			<polygon fill="#FFFFFF" points="73.9,71.3 73.8,74.5 67.6,75.2 67.6,71.3 68,71.3 			"/>
			<path fill="#FFFFFF" d="M50.4,67.6c1.2,9.7,7.8,9.2,8.9,9.1c-10.8,2.4-18.3,0.1-18.9-0.1c0.6,0.1,7.6,1.1,8.8-9.1
				c0.1-1,0.2-1.8,0.3-2.5c0,0,0-0.1,0-0.1c0-0.2,0-0.4,0.1-0.5c0,0,0,0,0,0c0-0.3,0.1-0.6,0.1-0.8c0-0.2,0-0.4,0.1-0.6
				c0-0.2,0-0.3,0.1-0.5c0-0.1,0-0.3,0-0.3c0,0,0,0,0,0c0,0,0,0,0-0.1c0,0,0,0,0-0.1C50,63.8,50.2,65.7,50.4,67.6z"/>
			<path fill="#FFFFFF" d="M59.3,24.3l-0.1,0.9l-0.1,2.1l2,0.8c0,0-6.8,20.1-11.3,20.1v0c2.5-2.5,5.4-17.2,6.4-23.1
				c0.2-1.1,0.3-2,0.4-2.3c0.2,0,0.3,0.1,0.5,0.1L59.3,24.3z"/>
			<path fill="#FFFFFF" d="M56.7,22.9c-0.1,0.3-0.2,1.2-0.4,2.3h0H43.7c-0.2-1.2-0.3-2.1-0.4-2.4C44.8,22.5,49.8,21.6,56.7,22.9z"/>
			<path fill="#FFFFFF" d="M52.5,51.8c0,0.5-0.4,0.9-0.9,0.9c-0.5,0-0.9-0.4-0.9-0.9c0-0.5,0.4-0.9,0.9-0.9
				C52.1,50.9,52.5,51.3,52.5,51.8z"/>
			<path fill="#FFFFFF" d="M50.8,51.8c0,0.5,0.4,0.9,0.9,0.9c0.5,0,0.9-0.4,0.9-0.9c0-0.5-0.4-0.9-0.9-0.9
				C51.2,50.9,50.8,51.3,50.8,51.8z M63.2,60.2l2.7,15.1l-6.4,1.4c0,0-0.1,0-0.2,0c-1.1,0.2-7.7,0.7-8.9-9.1
				c-0.2-1.9-0.4-3.8-0.5-5.5c-0.5-7-0.1-12.4,0-13.8c4.5,0,11.3-20.1,11.3-20.1l-2-0.8l0.1-2.1l8.8,2.5c0,0-4.8,13.7-4.1,17.7
				l-1.8,8.8L63.2,60.2z"/>
			<path fill="#FFFFFF" d="M49.9,62.1C49.9,62.1,49.9,62.1,49.9,62.1C49.9,62.1,49.9,62.1,49.9,62.1z"/>
			<path fill="#FFFFFF" d="M56.3,25.2c-1.1,5.9-3.9,20.6-6.4,23.1l0,0c-2.5-2.5-5.2-17.1-6.2-23.1H56.3L56.3,25.2z"/>
			<polygon fill="#FFFFFF" points="49.9,48.3 49.9,48.3 49.9,48.3 			"/>
			<path fill="#FFFFFF" d="M49.9,48.3L49.9,48.3c-0.1,1.4-0.5,6.8,0,13.8c0,0,0,0,0,0.1c0,0,0,0,0,0.1c0,0,0,0,0,0
				c0,0.1,0,0.2,0,0.3c0,0.1,0,0.3-0.1,0.5c0,0.2-0.1,0.4-0.1,0.6c0,0.2-0.1,0.5-0.1,0.8c0,0,0,0,0,0c0,0.2-0.1,0.4-0.1,0.5
				c0,0,0,0.1,0,0.1c-0.1,0.7-0.2,1.5-0.3,2.5c-1.3,10.2-8.2,9.2-8.8,9.1c0,0,0,0,0,0L34,75.2l2.7-15.1l1.1-6L36,45.3
				c0.7-4-4-17.7-4-17.7l8.8-2.4l0.1,2.1l-2,0.8C38.9,28.1,45.4,48.3,49.9,48.3z"/>
			<path fill="#FFFFFF" d="M49.8,62.5c0-0.1,0-0.2,0-0.3C49.9,62.3,49.9,62.4,49.8,62.5z"/>
			<path fill="#FFFFFF" d="M49.8,63c0,0.2,0,0.4-0.1,0.6C49.7,63.4,49.7,63.2,49.8,63z"/>
			<path fill="#FFFFFF" d="M49.5,65c0-0.1,0-0.3,0.1-0.5C49.6,64.6,49.6,64.8,49.5,65z"/>
			<path fill="#FFFFFF" d="M43.3,22.8c0.1,0.3,0.2,1.2,0.4,2.4c1,6,3.7,20.6,6.2,23.1c-4.5,0-11-20.2-11-20.2l2-0.8l-0.1-2.1l-0.1-1
				l2.1-1.3C42.8,22.9,43,22.9,43.3,22.8z"/>
			<path fill="#FFFFFF" d="M36,45.3l-3.6,7.8v18H32h-5.9l-0.7-18.7L32,27.6C32,27.6,36.7,41.4,36,45.3z"/>
			<polygon fill="#FFFFFF" points="32.4,71.2 32.4,75.1 26.2,74.4 26.1,71.2 32,71.2 			"/>
		</g>
		<g>
			<path fill="none" stroke="#000000" stroke-width="0.5" stroke-miterlimit="10" d="M43.3,22.6c0,0,0,0.1,0,0.2
				c0.1,0.3,0.2,1.2,0.4,2.4c1,6,3.7,20.6,6.2,23.1"/>
			<path fill="none" stroke="#000000" stroke-width="0.5" stroke-miterlimit="10" d="M49.9,48.3c-4.5,0-11-20.2-11-20.2l2-0.8
				l-0.1-2.1l-0.1-1l2.1-1.3c0,0,0.2,0,0.5-0.1c1.5-0.3,6.6-1.2,13.4,0.1c0.2,0,0.3,0.1,0.5,0.1l2.1,1.3l-0.1,0.9l-0.1,2.1l2,0.8
				C61.1,28.2,54.3,48.3,49.9,48.3L49.9,48.3"/>
			<path fill="none" stroke="#000000" stroke-width="0.5" stroke-miterlimit="10" d="M49.5,65.1C49.5,65.1,49.5,65.1,49.5,65.1"/>
			<path fill="none" stroke="#000000" stroke-width="0.5" stroke-miterlimit="10" d="M49.6,64.4c0,0.2-0.1,0.4-0.1,0.5"/>
			<path fill="none" stroke="#000000" stroke-width="0.5" stroke-miterlimit="10" d="M49.8,63c0,0.2-0.1,0.4-0.1,0.6"/>
			<path fill="none" stroke="#000000" stroke-width="0.5" stroke-miterlimit="10" d="M49.9,62.2c0,0.1,0,0.2,0,0.3"/>
			<path fill="none" stroke="#000000" stroke-width="0.5" stroke-miterlimit="10" d="M49.9,62.1C49.9,62.1,49.9,62.1,49.9,62.1"/>
			<path fill="none" stroke="#000000" stroke-width="0.5" stroke-miterlimit="10" d="M49.9,62.1C49.9,62.1,49.9,62.1,49.9,62.1"/>
			<path fill="none" stroke="#000000" stroke-width="0.5" stroke-miterlimit="10" d="M49.9,62.1C49.9,62.2,49.9,62.2,49.9,62.1
				C49.9,62.2,49.9,62.2,49.9,62.1"/>
			<path fill="none" stroke="#000000" stroke-width="0.5" stroke-miterlimit="10" d="M49.8,62.5c0-0.1,0-0.3,0-0.3"/>
			<path fill="none" stroke="#000000" stroke-width="0.5" stroke-miterlimit="10" d="M49.8,62.5c0,0.1,0,0.3-0.1,0.5"/>
			<path fill="none" stroke="#000000" stroke-width="0.5" stroke-miterlimit="10" d="M49.7,63.6c0-0.2,0-0.4,0.1-0.6"/>
			<path fill="none" stroke="#000000" stroke-width="0.5" stroke-miterlimit="10" d="M49.7,63.6c0,0.2-0.1,0.5-0.1,0.8c0,0,0,0,0,0"
				/>
			<path fill="none" stroke="#000000" stroke-width="0.5" stroke-miterlimit="10" d="M40.4,76.6c0.6,0.1,7.6,1.1,8.8-9.1
				c0.1-1,0.2-1.8,0.3-2.5c0,0,0-0.1,0-0.1c0-0.2,0-0.4,0.1-0.5"/>
			<path fill="none" stroke="#000000" stroke-width="0.5" stroke-miterlimit="10" d="M41.2,25.1l-0.4,0.1L32,27.6
				c0,0,4.7,13.7,4,17.7l1.8,8.8l-1.1,6L34,75.2l6.3,1.4"/>
			<polyline fill="none" stroke="#000000" stroke-width="0.5" stroke-miterlimit="10" points="32,27.6 25.4,52.5 26.1,71.2 
				26.2,74.4 32.4,75.1 32.4,71.2 32.4,53.2 32.4,49.1 			"/>
			<line fill="none" stroke="#000000" stroke-width="0.5" stroke-miterlimit="10" x1="36" y1="45.3" x2="32.4" y2="53.2"/>
			<polyline fill="none" stroke="#000000" stroke-width="0.5" stroke-miterlimit="10" points="26.1,71.2 26.1,71.2 32,71.2 			"/>
			<polyline fill="none" stroke="#000000" stroke-width="0.5" stroke-miterlimit="10" points="36.5,60.1 36.7,60.1 43.3,61.3 			"/>
			<path fill="none" stroke="#000000" stroke-width="0.5" stroke-miterlimit="10" d="M49.9,48.3L49.9,48.3
				c2.5-2.5,5.4-17.2,6.4-23.1c0.2-1.1,0.3-2,0.4-2.3c0-0.1,0-0.2,0-0.2"/>
			<path fill="none" stroke="#000000" stroke-width="0.5" stroke-miterlimit="10" d="M59.3,76.7c-1.1,0.2-7.7,0.7-8.9-9.1
				c-0.2-1.9-0.4-3.8-0.5-5.5c-0.5-7-0.1-12.4,0-13.8v0c0-0.2,0-0.3,0-0.3"/>
			<path fill="none" stroke="#000000" stroke-width="0.5" stroke-miterlimit="10" d="M59,25.2l0.2,0l8.8,2.5c0,0-4.8,13.7-4.1,17.7
				l-1.8,8.8l1.1,6l2.7,15.1l-6.4,1.4"/>
			<polyline fill="none" stroke="#000000" stroke-width="0.5" stroke-miterlimit="10" points="68,27.7 74.6,52.6 73.9,71.3 
				73.8,74.5 67.6,75.2 67.6,71.3 67.6,53.3 67.6,49.2 			"/>
			<line fill="none" stroke="#000000" stroke-width="0.5" stroke-miterlimit="10" x1="63.9" y1="45.4" x2="67.6" y2="53.3"/>
			<line fill="none" stroke="#000000" stroke-width="0.5" stroke-miterlimit="10" x1="73.9" y1="71.3" x2="68" y2="71.3"/>
			<polyline fill="none" stroke="#000000" stroke-width="0.5" stroke-miterlimit="10" points="63.5,60.2 63.2,60.2 56.7,61.4 			"/>
			<line fill="none" stroke="#000000" stroke-width="0.5" stroke-miterlimit="10" x1="43.7" y1="25.2" x2="56.3" y2="25.2"/>
			<path fill="none" stroke="#000000" stroke-width="0.25" stroke-miterlimit="10" d="M50.8,51.8c0,0.5,0.4,0.9,0.9,0.9
				c0.5,0,0.9-0.4,0.9-0.9c0-0.5-0.4-0.9-0.9-0.9C51.2,50.9,50.8,51.3,50.8,51.8z"/>
			<path fill="none" stroke="#000000" stroke-width="0.5" stroke-miterlimit="10" d="M40.3,76.6C40.3,76.6,40.4,76.6,40.3,76.6
				c0.7,0.2,8.2,2.5,19,0.1c0,0,0.1,0,0.2,0"/>
		</g>
	</g>
</g>
<g id="ethnic_wear" display="none">
	<g id="XMLID_5_" display="inline">
		<g>
			<polygon fill="#FFFFFF" points="65.9,43.1 65.9,44.3 61.6,44.3 61.6,43.1 			"/>
			<path fill="#FFFFFF" d="M59.8,21.3c-0.2,0.9-0.9,4.5-0.8,7.1l-2,0L56.5,7.9l0.1-0.2l4.6,2.1c0,0,2,1.9,2.5,3.9
				c0.5,2,2.3,13.9,2.3,13.9v15.6h-4.4L60.7,27L59.8,21.3z"/>
			<path fill="#FFFFFF" d="M56.5,7.9L57,28.4L57.8,59h-1.8v1.6H55h-1.2l0-50.8c0.2-0.2,0.4-0.3,0.6-0.4c0.8-0.5,1.4-2,1.4-2l0,0
				l0.8,0.3L56.5,7.9z"/>
			<polygon fill="#FFFFFF" points="50.8,93.7 53.2,93.7 53.2,96.1 50.8,96.1 			"/>
			<path fill="#FFFFFF" d="M53.3,7.5c-0.7,0.7-2.3,1.3-2.5,2.8h-2.5c-0.2-1.4-1.8-2.1-2.5-2.8c-0.3-0.2-0.4-0.6-0.5-0.9
				c0,0,4.1-1.8,8.5,0C53.7,6.9,53.6,7.2,53.3,7.5z"/>
			<path fill="#FFFFFF" d="M49.6,66.6c0.5,0,5.3,0.1,8.5-0.5c-0.1,2-0.9,21-4.9,27.6h-2.4c-1.4-2.8-1.2-26.9-1.2-26.9V66.6z"/>
			<path fill="#FFFFFF" d="M53.8,6.6c-4.3-1.8-8.5,0-8.5,0c-0.1-0.5,0-1,0-1s4.1-2.4,8.6,0C53.8,5.6,53.9,6.1,53.8,6.6z"/>
			<path fill="#FFFFFF" d="M45.5,93.7C41.6,87.2,40.7,69,40.6,66c2.7,0.6,7,0.6,8.5,0.6v0.2c0,0,0.2,24.1-1.2,26.9H45.5z"/>
			<polygon fill="#FFFFFF" points="47.8,93.7 47.8,96.1 45.4,96.1 45.5,93.7 			"/>
			<path fill="#FFFFFF" d="M44.1,7l0.3-0.1l0.2-1l0.6-0.3c0,0-0.1,0.5,0,1c0.1,0.3,0.2,0.6,0.5,0.9c0.7,0.7,2.3,1.3,2.5,2.8h2.5
				c0.2-1.4,1.8-2.1,2.5-2.8c0.3-0.2,0.4-0.6,0.5-0.9c0.1-0.5,0-1,0-1l0.6,0.3l0.2,1L55,7l0.5,0.2l0.4,0.2l0,0c0,0-0.6,1.5-1.4,2
				c-0.2,0.1-0.4,0.3-0.6,0.4c-0.8,0.6-1.6,1.5-1.7,2.1c-0.1,0.9,0,18,0,18h-2.6H47c0,0,0.1-17.1,0-18c0-0.7-0.9-1.6-1.7-2.2
				c-0.2-0.2-0.4-0.3-0.6-0.4c-0.8-0.5-1.4-2-1.4-2L44.1,7z"/>
			<path fill="#FFFFFF" d="M42.4,27.8L41.6,59h1.6v1.6h1h1.1l0-50.8l0,0c0.8,0.6,1.7,1.5,1.7,2.2c0.1,0.9,0,18,0,18h2.6h2.6
				c0,0-0.1-17.1,0-18c0-0.7,0.9-1.5,1.7-2.1l0,50.8H55h1.1V59h1.8L57,28.4l2,0c0,0.2,0,0.3,0,0.5c0.2,2.8,2.5,34.2,1.6,36.1
				c-0.3,0.5-1.3,0.9-2.6,1.1c-3.1,0.6-7.9,0.5-8.5,0.5c0,0,0,0,0,0s-0.2,0-0.5,0c-1.4,0-5.8,0-8.5-0.6c-1.1-0.2-1.9-0.6-2.2-1.1
				c-0.9-1.9,1.4-33.2,1.6-36.1c0-0.4,0-0.7,0-1.1L42.4,27.8z"/>
			<path fill="#FFFFFF" d="M43.3,7.4c0,0,0.5,1.5,1.4,2c0.2,0.1,0.4,0.3,0.6,0.4l0,0l0,50.8h-1.1h-1V59h-1.6l0.7-31.2l0.5-19.9
				l-0.1-0.3L43.3,7.4z"/>
			<path fill="#FFFFFF" d="M42.8,7.9l-0.5,19.9l-2.3,0c0-3-0.7-7.1-0.7-7.1l-1,6.4l-0.9,16.1h-4.4V27.5c0,0,1.8-11.9,2.3-13.9
				c0.5-2,2.5-3.9,2.5-3.9l4.8-2.1L42.8,7.9z"/>
			<polygon fill="#FFFFFF" points="37.5,43.1 37.5,44.3 33.2,44.3 33.2,43.1 			"/>
		</g>
		<g>
			<path fill="none" stroke="#000000" stroke-width="0.5" stroke-miterlimit="10" d="M40,16.5l-0.6,4.1l-1,6.4l-0.9,16.1h-4.4V27.5
				c0,0,1.8-11.9,2.3-13.9c0.5-2,2.5-3.9,2.5-3.9l4.8-2.1l0.6-0.3L44.1,7l0.3-0.1l0.2-1l0.6-0.3c0,0-0.1,0.5,0,1
				c0.1,0.3,0.2,0.6,0.5,0.9c0.7,0.7,2.3,1.3,2.5,2.8h2.5c0.2-1.4,1.8-2.1,2.5-2.8c0.3-0.2,0.4-0.6,0.5-0.9c0.1-0.5,0-1,0-1l0.6,0.3
				l0.2,1L55,7l0.5,0.2l0.4,0.2l0.8,0.3l4.6,2.1c0,0,2,1.9,2.5,3.9c0.5,2,2.3,13.9,2.3,13.9v15.6h-4.4L60.7,27l-0.9-5.7l-0.1-0.7
				l-0.6-4.1"/>
			<path fill="none" stroke="#000000" stroke-width="0.5" stroke-miterlimit="10" d="M39.4,20.6c0,0,0.7,4.2,0.7,7.1
				c0,0.4,0,0.8,0,1.1c-0.3,2.8-2.5,34.2-1.6,36.1c0.2,0.5,1.1,0.8,2.2,1.1c2.7,0.6,7,0.6,8.5,0.6c0.3,0,0.5,0,0.5,0"/>
			<path fill="none" stroke="#000000" stroke-width="0.5" stroke-miterlimit="10" d="M59.9,21.1c0,0,0,0.1,0,0.2
				c-0.2,0.9-0.9,4.5-0.8,7.1c0,0.2,0,0.3,0,0.5c0.2,2.8,2.5,34.2,1.6,36.1c-0.3,0.5-1.3,0.9-2.6,1.1c-3.1,0.6-7.9,0.5-8.5,0.5
				c0,0,0,0,0,0"/>
			<path fill="none" stroke="#000000" stroke-width="0.5" stroke-miterlimit="10" d="M43.3,7.4c0,0,0.5,1.5,1.4,2
				c0.2,0.1,0.4,0.3,0.6,0.4c0.8,0.6,1.7,1.5,1.7,2.2c0.1,0.9,0,18,0,18h2.6"/>
			<path fill="none" stroke="#000000" stroke-width="0.5" stroke-miterlimit="10" d="M49.6,30h2.6c0,0-0.1-17.1,0-18
				c0-0.7,0.9-1.5,1.7-2.1c0.2-0.2,0.4-0.3,0.6-0.4c0.8-0.5,1.4-2,1.4-2"/>
			<path fill="none" stroke="#000000" stroke-width="0.5" stroke-miterlimit="10" d="M58.1,65.9c0,0,0,0.1,0,0.2
				c-0.1,2-0.9,21-4.9,27.6h-2.4v2.4h2.4l-0.1-2.4"/>
			<path fill="none" stroke="#000000" stroke-width="0.5" stroke-miterlimit="10" d="M49.6,66.8c0,0-0.2,24.1,1.2,26.9"/>
			<path fill="none" stroke="#000000" stroke-width="0.5" stroke-miterlimit="10" d="M40.6,65.6c0,0,0,0.1,0,0.4
				c0.1,3,1,21.3,4.9,27.7h2.4v2.4h-2.4l0-2.4"/>
			<path fill="none" stroke="#000000" stroke-width="0.5" stroke-miterlimit="10" d="M49.1,66.8c0,0,0.2,24.1-1.2,26.9"/>
			<path fill="none" stroke="#000000" stroke-width="0.5" stroke-miterlimit="10" d="M45.3,5.6c0,0,4.1-2.4,8.6,0"/>
			<polyline fill="none" stroke="#000000" stroke-width="0.5" stroke-miterlimit="10" points="33.2,43.1 33.2,44.3 37.5,44.3 
				37.5,43.1 			"/>
			<polyline fill="none" stroke="#000000" stroke-width="0.5" stroke-miterlimit="10" points="61.6,43.1 61.6,44.3 65.9,44.3 
				65.9,43.1 			"/>
			<path fill="none" stroke="#000000" stroke-width="0.5" stroke-miterlimit="10" d="M45.3,6.6c0,0,4.1-1.8,8.5,0"/>
			<polyline fill="none" stroke="#000000" stroke-width="0.5" stroke-miterlimit="10" points="56.5,7.9 57,28.4 57.8,59 56.1,59 			
				"/>
			<polyline fill="none" stroke="#000000" stroke-width="0.5" stroke-miterlimit="10" points="56.1,47 56.1,59 56.1,60.6 55,60.6 
				53.8,60.6 53.8,9.8 			"/>
			<polyline fill="none" stroke="#000000" stroke-width="0.5" stroke-miterlimit="10" points="42.8,7.9 42.4,27.8 41.6,59 43.2,59 
							"/>
			<polyline fill="none" stroke="#000000" stroke-width="0.5" stroke-miterlimit="10" points="43.2,47 43.2,59 43.2,60.6 44.2,60.6 
				45.3,60.6 45.2,9.8 			"/>
		</g>
	</g>
</g>
<g id="shoe" display="none">
	<g id="XMLID_6_" display="inline">
		<g>
			<path fill="#FFFFFF" d="M70.8,51.5c0.3,0.2,4.1,0.8,4,4.1c-0.8,0.1-5.3,0.9-7.5,1.2c-0.9,0.1-2.6,0.4-4.7,0.6l0.1-7
				c0.6,0.2,1.3,0.4,2,0.5C67,51.1,70.8,51.5,70.8,51.5z"/>
			<path fill="#FFFFFF" d="M53.9,50.8c0.3,0,4.2,0.5,4-3l2.3,1.4c0,0,1,0.7,2.5,1.2l-0.1,7c-5.1,0.5-12.7,1-17.5-0.6
				c-1.3-0.4-3-0.8-4.7-1.1c0,0,1.3-6.3,7.7-5.5C53,50.7,53.8,50.8,53.9,50.8z"/>
			<path fill="#FFFFFF" d="M47,41.1l11,6.8c0.2,3.5-3.7,3-4,3c-0.1,0-0.9-0.1-5.7-0.7c-6.5-0.8-7.7,5.5-7.7,5.5
				c-6.8-1.3-15-1.8-15-1.8c-1.9-7.6,2.4-12,2.4-12s7,5.6,16,0.8c0.8-0.4,1.7-1,2.5-1.6H47z"/>
			<path fill="#FFFFFF" d="M47,41.1h-0.6c-0.8,0.6-1.7,1.2-2.5,1.6c0-0.7,0.9-2.7,0.9-2.7L47,41.1z"/>
			<path fill="#FFFFFF" d="M62.6,57.4c2.1-0.2,3.8-0.5,4.7-0.6c2.2-0.3,6.7-1.1,7.5-1.2c0.1,0,0.1,0,0.1,0l0.3,1.7
				c0,0-20.1,4.2-27.2,2.3c-7.1-1.9-10.9-2.8-10.9-2.8l-0.1,3H25l-0.3-0.2v-5.4v-0.4l0.7,0.1c0,0,8.3,0.5,15,1.8
				c1.7,0.3,3.3,0.7,4.7,1.1C49.9,58.4,57.5,57.9,62.6,57.4z"/>
		</g>
		<g>
			<path fill="none" stroke="#020202" stroke-width="0.5" stroke-miterlimit="10" d="M74.8,55.6L74.8,55.6c0.1-3.3-3.7-3.9-4-4.1
				c0,0-3.8-0.4-6.1-0.6c-0.7-0.1-1.4-0.3-2-0.5c-1.4-0.5-2.5-1.2-2.5-1.2L58,47.8l-11-6.8h-0.6c-0.8,0.6-1.7,1.2-2.5,1.6
				c-9,4.9-16-0.8-16-0.8s-4.3,4.4-2.4,12c0,0,8.3,0.5,15,1.8c1.7,0.3,3.3,0.7,4.7,1.1c4.8,1.6,12.3,1.1,17.5,0.6
				c2.1-0.2,3.8-0.5,4.7-0.6C69.5,56.5,74,55.7,74.8,55.6c0.1,0,0.1,0,0.1,0l0.3,1.7c0,0-20.1,4.2-27.2,2.3
				c-7.1-1.9-10.9-2.8-10.9-2.8l-0.1,3H25l-0.3-0.2v-5.4v-0.4l0.7,0.1"/>
			<line fill="none" stroke="#020202" stroke-width="0.5" stroke-miterlimit="10" x1="47.8" y1="41.6" x2="46.8" y2="43.2"/>
			<line fill="none" stroke="#020202" stroke-width="0.5" stroke-miterlimit="10" x1="49.9" y1="42.9" x2="49" y2="44.4"/>
			<line fill="none" stroke="#020202" stroke-width="0.5" stroke-miterlimit="10" x1="51.8" y1="44.1" x2="50.9" y2="45.7"/>
			<line fill="none" stroke="#020202" stroke-width="0.5" stroke-miterlimit="10" x1="53.8" y1="45.3" x2="52.8" y2="47"/>
			<line fill="none" stroke="#020202" stroke-width="0.5" stroke-miterlimit="10" x1="56" y1="46.7" x2="54.9" y2="48.3"/>
			<line fill="none" stroke="#020202" stroke-width="0.5" stroke-miterlimit="10" x1="62.7" y1="50.4" x2="62.6" y2="57.4"/>
			<path fill="none" stroke="#020202" stroke-width="0.5" stroke-miterlimit="10" d="M47,41.1l-2.2-1.1c0,0-0.9,2-0.9,2.7"/>
			<path fill="none" stroke="#020202" stroke-width="0.5" stroke-miterlimit="10" d="M58,47.8c0,0,0-0.1,0-0.1"/>
			<path fill="none" stroke="#020202" stroke-width="0.5" stroke-miterlimit="10" d="M53.9,50.8C53.9,50.8,53.9,50.8,53.9,50.8"/>
			<path fill="none" stroke="#020202" stroke-width="0.5" stroke-miterlimit="10" d="M40.5,55.7c0,0,1.3-6.3,7.7-5.5
				c4.8,0.6,5.6,0.7,5.7,0.7c0.3,0,4.2,0.5,4-3"/>
		</g>
	</g>
</g>
<g id="accessories">
	<g id="XMLID_7_">
		<g>
			<path fill="#FFFFFF" d="M42.6,59.4h1.6C44,60.1,44,61,44,62h-1.4V59.4z"/>
			<path fill="#FFFFFF" d="M44.2,59.4c0.5-2.5,2.1-3.7,6.4-3c0,0,0.7,0.1,1.5,0.3h0c1.1,0.4,2.5,1.1,2.6,2.7c0,0,0,0,0,0
				c0,0.5-0.1,1-0.3,1.6c-1.7,4.1-4.4,4.9-4.4,4.9s-5.6,2.3-5.9-2.6c0-0.4,0-0.9,0-1.3C44,61,44,60.1,44.2,59.4z"/>
			<path fill="#FFFFFF" d="M67.5,62c0-1,0-1.9-0.2-2.6h1.5V62H67.5z"/>
			<path fill="#FFFFFF" d="M56.8,59.4C56.8,59.4,56.8,59.4,56.8,59.4c0.1-1.6,1.5-2.3,2.6-2.7h0c0.8-0.3,1.5-0.3,1.5-0.3
				c4.3-0.6,5.8,0.6,6.4,3c0.2,0.8,0.2,1.6,0.2,2.6c0,0.4,0,0.8,0,1.3c-0.2,4.9-5.9,2.6-5.9,2.6s-2.7-0.8-4.4-4.9
				C56.9,60.4,56.8,59.8,56.8,59.4z"/>
			<path fill="#FFFFFF" d="M71.7,39.4c0,0,2.9-0.3,1.3,4.1c-2.3,6.4-6.8,5.4-15.3,7.1c2-0.4,7-2.9,10.1-4.5h0
				c0.3-0.1,0.3-0.1,0.2-0.1c1.3-0.7,2.2-1.2,2.2-1.2s3.7-4.3-0.2-5.4H71.7z"/>
			<path fill="#FFFFFF" d="M68.1,45.9c-0.1,0-0.2,0.1-0.2,0.1h0c-0.7,0.2-2.8,0.4-9,1c-10.8,0.9-13.3-3.5-13.3-3.5s0.6-1.5,1.4-3.4
				c0,0,11.8,4.2,22.5,1.6c0.5,1.8,0.9,3,0.9,3S69.4,45.3,68.1,45.9z"/>
			<path fill="#FFFFFF" d="M70.2,39.4c3.9,1.1,0.2,5.4,0.2,5.4s-0.4-1.3-0.9-3c-0.2-0.7-0.4-1.5-0.7-2.3l0,0H70.2z"/>
			<path fill="#FFFFFF" d="M68.1,45.9c0.1,0,0.1,0-0.2,0.1C67.9,46,68,46,68.1,45.9z"/>
			<path fill="#FFFFFF" d="M67.8,46.1c-3.1,1.6-8.1,4-10.1,4.5c-2.9,0.6-9.2,0.3-14.4-1.5c-5.2-1.9,2.2-5.5,2.2-5.5S48,47.9,58.8,47
				C65.1,46.5,67.2,46.2,67.8,46.1z"/>
			<path fill="#FFFFFF" d="M46.9,40.1c0,0,2.9-7,3.1-7.3c0.3-0.6,0.8-3.1,5.3-1.9c4.5,1.2,7.8-0.3,7.8-0.3s2.4-1.4,3.3,1.3
				c0.5,1.3,1.5,4.6,2.3,7.5c0.3,0.8,0.5,1.6,0.7,2.3C58.7,44.3,46.9,40.1,46.9,40.1z"/>
			<polygon fill="#FFFFFF" points="36.6,27.4 34.2,33.2 32.2,33.2 31.7,33.2 29.8,33.2 27.3,27.4 31.7,27.4 32.2,27.4 			"/>
			<polygon fill="#FFFFFF" points="34.2,33.2 37.5,66 32,72 26.5,66 29.8,33.2 31.7,33.2 32.2,33.2 			"/>
		</g>
		<g>
			<polyline fill="none" stroke="#000000" stroke-width="0.5" stroke-miterlimit="10" points="31.7,27.4 27.3,27.4 29.8,33.2 
				31.7,33.2 			"/>
			<polyline fill="none" stroke="#000000" stroke-width="0.5" stroke-miterlimit="10" points="29.8,33.2 26.5,66 32,72 32.2,72.2 
							"/>
			<polyline fill="none" stroke="#000000" stroke-width="0.5" stroke-miterlimit="10" points="31.7,27.4 32.2,27.4 36.6,27.4 
				34.2,33.2 32.2,33.2 31.7,33.2 			"/>
			<polyline fill="none" stroke="#000000" stroke-width="0.5" stroke-miterlimit="10" points="34.2,33.2 37.5,66 32,72 31.4,72.6 
							"/>
			<path fill="none" stroke="#000000" stroke-width="0.5" stroke-miterlimit="10" d="M54.6,59.4c0,0.5-0.1,1-0.3,1.6
				c-1.7,4.1-4.4,4.9-4.4,4.9s-5.6,2.3-5.9-2.6c0-0.4,0-0.9,0-1.3c0-1,0-1.9,0.2-2.6c0.5-2.5,2.1-3.7,6.4-3"/>
			<path fill="none" stroke="#000000" stroke-width="0.5" stroke-miterlimit="10" d="M52,56.7c1.1,0.4,2.5,1.1,2.6,2.7"/>
			<path fill="none" stroke="#000000" stroke-width="0.5" stroke-miterlimit="10" d="M50.5,56.3c0,0,0.7,0.1,1.5,0.3"/>
			<polyline fill="none" stroke="#000000" stroke-width="0.5" stroke-miterlimit="10" points="52,56.7 52,56.7 55.6,56.7 			"/>
			<path fill="none" stroke="#000000" stroke-width="0.5" stroke-miterlimit="10" d="M55.8,58.2c0,0,0.1,0,0.1,0"/>
			<path fill="none" stroke="#000000" stroke-width="0.5" stroke-miterlimit="10" d="M54.6,59.4C54.6,59.4,54.6,59.4,54.6,59.4
				c0-0.2,0.2-1.1,1-1.2"/>
			<polyline fill="none" stroke="#000000" stroke-width="0.5" stroke-miterlimit="10" points="44.2,59.4 44.2,59.4 42.6,59.4 
				42.6,62 44,62 44.2,62 			"/>
			<path fill="none" stroke="#000000" stroke-width="0.5" stroke-miterlimit="10" d="M56.8,59.4c0,0.5,0.1,1,0.3,1.6
				c1.7,4.1,4.4,4.9,4.4,4.9s5.7,2.3,5.9-2.6c0-0.4,0-0.9,0-1.3c0-1,0-1.9-0.2-2.6c-0.5-2.5-2.1-3.7-6.4-3"/>
			<path fill="none" stroke="#000000" stroke-width="0.5" stroke-miterlimit="10" d="M59.4,56.7c-1.1,0.4-2.5,1.1-2.6,2.7"/>
			<path fill="none" stroke="#000000" stroke-width="0.5" stroke-miterlimit="10" d="M60.9,56.3c0,0-0.7,0.1-1.5,0.3"/>
			<polyline fill="none" stroke="#000000" stroke-width="0.5" stroke-miterlimit="10" points="59.4,56.7 59.4,56.7 55.9,56.7 
				55.6,56.7 			"/>
			<path fill="none" stroke="#000000" stroke-width="0.5" stroke-miterlimit="10" d="M56.8,59.4C56.8,59.4,56.8,59.4,56.8,59.4
				c0-0.2-0.2-1.1-1-1.2c0,0-0.1,0-0.1,0c0,0-0.1,0-0.1,0"/>
			<polyline fill="none" stroke="#000000" stroke-width="0.5" stroke-miterlimit="10" points="67.3,59.4 68.8,59.4 68.8,62 67.5,62 
				67.3,62 			"/>
			<path fill="none" stroke="#000000" stroke-width="0.5" stroke-miterlimit="10" d="M67.8,46.1c-0.7,0.2-2.8,0.4-9,1
				c-10.8,0.9-13.3-3.5-13.3-3.5s0.6-1.5,1.4-3.4c0,0,2.9-7,3.1-7.3c0.3-0.6,0.8-3.1,5.3-1.9c4.5,1.2,7.8-0.3,7.8-0.3
				s2.4-1.4,3.3,1.3c0.5,1.3,1.5,4.6,2.3,7.5c0.3,0.8,0.5,1.6,0.7,2.3c0.5,1.8,0.9,3,0.9,3"/>
			<path fill="none" stroke="#000000" stroke-width="0.5" stroke-miterlimit="10" d="M68,45.9C68,45.9,68.1,45.9,68,45.9
				c0.1,0,0.1,0.1-0.2,0.1"/>
			<path fill="none" stroke="#000000" stroke-width="0.5" stroke-miterlimit="10" d="M45.5,43.5c0,0-7.4,3.6-2.2,5.5
				c5.2,1.8,11.5,2.1,14.4,1.5c2-0.4,7-2.9,10.1-4.5h0c0.1,0,0.2-0.1,0.2-0.1c1.3-0.7,2.2-1.2,2.2-1.2s3.7-4.3-0.2-5.4"/>
			<path fill="none" stroke="#000000" stroke-width="0.5" stroke-miterlimit="10" d="M68.7,39.4h1.4h1.6c0,0,2.9-0.3,1.3,4.1
				c-2.3,6.4-6.8,5.4-15.3,7.1"/>
			<path fill="none" stroke="#000000" stroke-width="0.5" stroke-miterlimit="10" d="M46.9,40.1c0,0,11.8,4.2,22.5,1.6"/>
			<path fill="none" stroke="#000000" stroke-width="0.5" stroke-miterlimit="10" d="M52.4,33.1c0,0-1,2,3.2,0.9
				c4.2-1.2,6.9-3.1,6.9-3.1"/>
		</g>
	</g>
</g>
</svg>
