<?xml version="1.0" encoding="iso-8859-1"?>
<!-- Generator: Adobe Illustrator 18.0.0, SVG Export Plug-In . SVG Version: 6.00 Build 0)  -->
<!DOCTYPE svg PUBLIC "-//W3C//DTD SVG 1.1//EN" "http://www.w3.org/Graphics/SVG/1.1/DTD/svg11.dtd">
<svg xmlns="http://www.w3.org/2000/svg" xmlns:xlink="http://www.w3.org/1999/xlink" version="1.1" id="Capa_1" x="0px" y="0px" viewBox="0 0 388.436 388.436" style="enable-background:new 0 0 388.436 388.436;" xml:space="preserve" width="512px" height="512px">
<g>
	<g>
		<g>
			<g>
				<g>
					<path d="M89.164,338.141c-13.75,0-19.123-1.333-28.229-10.158c-6.465-6.266-14.712-11.84-19.815-15.042       c-0.133,0.734-0.239,1.504-0.3,2.22v16.765c0,3.313-2.687,6-6,6H16.111c-3.313,0-6-2.687-6-6v-30.605       c-17.917-19.844-6.878-41.002,1.757-49.637c2.234-2.235,5.82-2.354,8.198-0.269c0.342,0.299,34.332,30.066,46.491,38.459       c8.046,5.553,16.198,10.975,19.737,10.975c0.375,0,1,0,2.318-1.072c1.127-0.914,2.537-1.393,3.996-1.339       c0.924,0.032,9.357,0.596,20.708,10.21c10.85,9.191,8.354,23.736,8.242,24.351c-0.518,2.854-3.004,5.145-5.903,5.145       c-0.008,0-0.014,0-0.021,0C115.635,338.141,91.612,338.141,89.164,338.141z M39.294,298.846c1.023,0,2.028,0.261,2.922,0.759       c0.643,0.359,15.862,8.898,27.071,19.761c6.023,5.838,7.865,6.775,19.877,6.775c2.398,0,15.869-0.194,20.543-0.214       c-0.377-2.648-1.438-5.83-4.146-8.125c-5.411-4.584-9.639-6.339-11.844-6.998c-2.356,1.371-4.805,2.043-7.422,2.043       c-6.481,0-13.43-4.041-26.554-13.1c-10.025-6.918-32.896-26.552-42.852-35.188c-4.061,6.236-8.611,18.047,3.465,30.123       c1.125,1.125,1.757,2.65,1.757,4.242v27h6.709c0,0,0.005-11.279,0.015-11.42C29.532,304.554,33.345,298.846,39.294,298.846z" fill="#FFFFFF"/>
				</g>
			</g>
			<g>
				<g>
					<path d="M58.68,271.228c-0.008,0-0.014,0-0.021,0c-2.899,0-5.386-2.29-5.903-5.145c-0.112-0.614-2.607-15.159,8.242-24.351       c11.351-9.614,19.784-10.178,20.708-10.21c1.459-0.055,2.869,0.425,3.996,1.339c1.318,1.072,1.943,1.072,2.318,1.072       c3.539,0,11.691-5.422,19.737-10.975c12.159-8.393,46.149-38.16,46.491-38.459c2.378-2.084,5.963-1.966,8.197,0.27       c8.636,8.635,19.676,29.793,1.758,49.637v30.605c0,3.314-2.687,6-6,6h-18.709c-3.313,0-6-2.686-6-6v-16.765       c-0.061-0.716-0.167-1.485-0.299-2.22c-5.104,3.202-13.352,8.776-19.816,15.042c-9.105,8.825-14.479,10.158-28.229,10.158       C82.702,271.228,58.68,271.228,58.68,271.228z M145.479,247.593c0.01,0.141,0.015,11.42,0.015,11.42h6.709v-27       c0-1.592,0.633-3.117,1.758-4.242c12.074-12.076,7.523-23.887,3.465-30.123c-9.957,8.636-32.828,28.27-42.853,35.188       c-13.124,9.059-20.072,13.1-26.554,13.1c-2.617,0-5.065-0.672-7.422-2.043c-2.205,0.659-6.433,2.414-11.844,6.998       c-2.709,2.295-3.77,5.476-4.146,8.125c4.674,0.02,18.145,0.214,20.543,0.214c12.012,0,13.854-0.938,19.877-6.775       c11.209-10.862,26.429-19.401,27.071-19.761c0.894-0.498,1.9-0.759,2.922-0.759       C140.971,231.934,144.782,237.642,145.479,247.593z" fill="#FFFFFF"/>
				</g>
			</g>
		</g>
		<path d="M144.654,75.25h-2.165C140.382,33.242,116.38,0,87.156,0C57.933,0,33.934,33.242,31.827,75.25h-2.169    c-3.313,0-6,2.687-6,6v57.498c0,3.313,2.687,6,6,6h114.996c3.314,0,6-2.687,6-6V81.25C150.654,77.937,147.968,75.25,144.654,75.25    z M87.156,12c22.311,0,41.328,28.396,43.311,63.25h-86.62C45.831,40.396,64.846,12,87.156,12z M138.654,87.25v15.7    c-11.935,8.664-28.408,13.916-46.223,14.791c0.469-0.87,0.725-1.854,0.725-2.85c0-1.58-0.641-3.12-1.76-4.24    c-1.11-1.119-2.66-1.76-4.24-1.76c-1.58,0-3.131,0.641-4.24,1.76c-1.12,1.12-1.76,2.66-1.76,4.24c0,0.997,0.256,1.982,0.726,2.852    c-17.806-0.867-34.281-6.109-46.224-14.761V87.25H138.654z M35.658,132.748v-15.556c14.323,8.144,32.465,12.694,51.477,12.694    c19.039,0,37.188-4.573,51.52-12.736v15.598H35.658z" fill="#FFFFFF"/>
		<path d="M387.915,361.946c-5.737-68.844-21.364-123.129-33.464-156.545c-12.06-33.307-22.889-52.742-25.004-56.414    c-3.151-10.26,0.346-22.737,10.402-37.101c13.59-19.416,3.26-36.011-4.102-42.072c-0.019-0.015-1.148-0.744-1.169-0.754    c-12.997-6.385-25.336-10.016-36.701-11.779c10.358-8.862,26.497-22.232,39.83-31.322c1.38-0.941,2.306-2.416,2.554-4.068    c0.248-1.652-0.205-3.333-1.248-4.638C338.449,16.548,325.019,0,308.328,0c-2.107,0-4.061,1.107-5.145,2.913    c-1.903,3.173-14.936,25.145-21.751,43.072c-6.814-17.929-19.843-39.899-21.747-43.072C258.601,1.107,256.648,0,254.541,0    c-16.691,0-30.121,16.548-30.686,17.252c-1.043,1.305-1.496,2.985-1.248,4.638c0.248,1.652,1.174,3.127,2.554,4.068    c13.199,8.999,29.145,22.188,39.511,31.049c-22,3.087-35.92,11.715-36.958,12.375c-0.206,0.132-0.403,0.275-0.593,0.432    c-7.361,6.062-17.691,22.656-4.102,42.072c10.057,14.364,13.554,26.842,10.402,37.101c-2.115,3.672-12.944,23.107-25.004,56.414    c-12.1,33.416-27.727,87.701-33.464,156.545c-0.132,1.59,0.374,3.168,1.407,4.384c1.882,2.214,30.103,22.105,105.073,22.105    s103.191-19.892,105.073-22.105C387.541,365.114,388.047,363.536,387.915,361.946z M311.543,12.362    c5.09,1.111,10.036,4.585,13.602,7.763c-10.255,7.417-21.193,16.307-29.814,23.562C300.262,32.525,307.116,19.993,311.543,12.362z     M237.737,20.135c3.378-3.038,8.309-6.654,13.583-7.782c4.428,7.63,11.289,20.17,16.223,31.338    C258.925,36.437,247.99,27.552,237.737,20.135z M325.016,374.089c0.276-11.607,0.842-36.291,1.233-59.593    c4.419,16.35,9.054,36.73,11.69,57.777C334.008,372.936,329.713,373.549,325.016,374.089z M349.742,369.914    c-6.294-49.358-22.732-93.635-23.457-95.575c-1.018-2.716-3.835-4.315-6.69-3.799c-2.853,0.517-4.93,3.003-4.93,5.904    c0,26.51-1.265,81.457-1.681,98.79c-9.215,0.708-19.672,1.148-31.537,1.203c-65.042-0.303-88.201-12.414-94.268-16.605    c11.213-127.061,56.455-204.549,56.912-205.32c0.221-0.37,0.4-0.763,0.535-1.171c4.723-14.166,0.76-30.429-11.775-48.339    c-9.84-14.056-0.434-23.814,1.631-25.691c1.934-1.135,11.984-6.714,27.238-9.576c22.344-4.192,44.841-0.896,66.881,9.771    c2.254,2.124,11.028,11.766,1.416,25.496c-12.535,17.91-16.498,34.173-11.775,48.339c0.135,0.406,0.314,0.8,0.533,1.167    c0.459,0.775,45.718,78.295,56.921,205.398C372.707,362.024,365.241,366.26,349.742,369.914z" fill="#FFFFFF"/>
	</g>
</g>
<g>
</g>
<g>
</g>
<g>
</g>
<g>
</g>
<g>
</g>
<g>
</g>
<g>
</g>
<g>
</g>
<g>
</g>
<g>
</g>
<g>
</g>
<g>
</g>
<g>
</g>
<g>
</g>
<g>
</g>
</svg>
