<?xml version="1.0" encoding="utf-8"?>
<!-- Generator: Adobe Illustrator 18.0.0, SVG Export Plug-In . SVG Version: 6.00 Build 0)  -->
<!DOCTYPE svg PUBLIC "-//W3C//DTD SVG 1.1//EN" "http://www.w3.org/Graphics/SVG/1.1/DTD/svg11.dtd">
<svg version="1.1" xmlns="http://www.w3.org/2000/svg" xmlns:xlink="http://www.w3.org/1999/xlink" x="0px" y="0px"
	 viewBox="0 0 50 50" enable-background="new 0 0 50 50" xml:space="preserve">
<g id="Layer_1" display="none">
	<g id="XMLID_2_" display="inline">
		<g>
			<path fill="#FFFFFF" d="M26.5,24.6c3.5-1.8,4.6-11.3,4.8-12.5c0-0.1,0-0.1,0-0.1l6.1,2.8c0,0,4,0.9,4.3,6.1
				c0.3,5.2,1.5,23.9,1.5,23.9h-3.4l-2.1-17.1L33,44.8c-2.9,0-4.9,0-7.8,0s-4.9,0-7.8,0l-4.6-17.1l-2.1,17.1H7.3
				c0,0,1.1-18.7,1.5-23.9c0.3-5.2,4.3-6.1,4.3-6.1l6.1-2.8c0,0,1,10.7,4.8,12.6c0,0,0,0,0.1,0c0.4,0.1,0.8,0.3,1.2,0.3
				C25.7,24.9,26.1,24.8,26.5,24.6C26.5,24.6,26.5,24.6,26.5,24.6z"/>
			<path fill="#F4DDC1" d="M31.3,12.1c-0.1,1.2-1.2,10.7-4.8,12.5c0,0,0,0-0.1,0c-0.4,0.1-0.8,0.3-1.2,0.3c-0.4-0.1-0.8-0.2-1.2-0.3
				c0,0,0,0-0.1,0C20.2,22.7,19.2,12,19.2,12s3-1.4,3-3.7s0-3.1,0-3.1h6v2.4C28.3,7.6,28.5,12.1,31.3,12.1z"/>
		</g>
		<g>
			<path fill="none" stroke="#000000" stroke-width="0.25" stroke-linecap="round" stroke-linejoin="round" d="M24,24.6
				c-3.3-1.2-5.4-5.3-6.1-8.4"/>
			<path fill="none" stroke="#000000" stroke-width="0.25" stroke-linecap="round" stroke-linejoin="round" d="M25.3,25
				c-0.4-0.1-0.8-0.2-1.2-0.3"/>
			<path fill="none" stroke="#000000" stroke-width="0.25" stroke-linecap="round" stroke-linejoin="round" d="M24,24.6
				C24,24.6,24,24.6,24,24.6C20.2,22.7,19.2,12,19.2,12l-6.1,2.8c0,0-4,0.9-4.3,6.1c-0.3,5.2-1.5,23.9-1.5,23.9h3.4l2.1-17.1
				l4.6,17.1"/>
			<path fill="none" stroke="#000000" stroke-width="0.25" stroke-linecap="round" stroke-linejoin="round" d="M16,15.6
				c1.3,4,3.9,12.8,9.3,13.3"/>
			<path fill="none" stroke="#000000" stroke-width="0.25" stroke-linecap="round" stroke-linejoin="round" d="M26.5,24.6
				c3.3-1.2,5.4-5.3,6.1-8.4"/>
			<path fill="none" stroke="#000000" stroke-width="0.25" stroke-linecap="round" stroke-linejoin="round" d="M25.3,25
				c0.4-0.1,0.8-0.2,1.2-0.3"/>
			<path fill="none" stroke="#000000" stroke-width="0.25" stroke-linecap="round" stroke-linejoin="round" d="M26.5,24.6
				C26.5,24.6,26.5,24.6,26.5,24.6c3.6-1.8,4.7-11.4,4.8-12.5c0-0.1,0-0.1,0-0.1l6.1,2.8c0,0,4,0.9,4.3,6.1
				c0.3,5.2,1.5,23.9,1.5,23.9h-3.4l-2.1-17.1L33,44.8"/>
			<path fill="none" stroke="#000000" stroke-width="0.25" stroke-linecap="round" stroke-linejoin="round" d="M34.6,15.6
				c-1.3,4-3.9,12.8-9.3,13.3"/>
			<path fill="none" stroke="#000000" stroke-width="0.25" stroke-linecap="round" stroke-linejoin="round" d="M33.9,22.5
				c0,0-3.3,10-10.4,9.2"/>
			<path fill="none" stroke="#000000" stroke-width="0.25" stroke-linecap="round" stroke-linejoin="round" d="M23.4,31.7
				c-0.1-0.1-4.1,0.1-5.5-5.5"/>
		</g>
	</g>
</g>
<g id="Layer_3" display="none">
	<g id="XMLID_3_" display="inline">
		<g>
			<path fill="#FFFFFF" d="M26.5,24.6c3.5-1.8,4.6-11.3,4.8-12.5c0-0.1,0-0.1,0-0.1l6.1,2.8c0,0,4,0.9,4.3,6.1
				c0.3,5.2,1.5,23.9,1.5,23.9h-3.4l-2.1-17.1L33,44.8c-2.9,0-4.9,0-7.8,0s-4.9,0-7.8,0l-4.6-17.1l-2.1,17.1H7.3
				c0,0,1.1-18.7,1.5-23.9c0.3-5.2,4.3-6.1,4.3-6.1l6.1-2.8c0,0,1,10.7,4.8,12.6c0,0,0,0,0.1,0c0.4,0.1,0.8,0.3,1.2,0.3
				C25.7,24.9,26.1,24.8,26.5,24.6C26.5,24.6,26.5,24.6,26.5,24.6z"/>
			<path fill="#D39D63" d="M31.3,12.1c-0.1,1.2-1.2,10.7-4.8,12.5c0,0,0,0-0.1,0c-0.4,0.1-0.8,0.3-1.2,0.3c-0.4-0.1-0.8-0.2-1.2-0.3
				c0,0,0,0-0.1,0C20.2,22.7,19.2,12,19.2,12s3-1.4,3-3.7s0-3.1,0-3.1h6v2.4C28.3,7.6,28.5,12.1,31.3,12.1z"/>
		</g>
		<g>
			<path fill="none" stroke="#000000" stroke-width="0.25" stroke-linecap="round" stroke-linejoin="round" d="M24,24.6
				c-3.3-1.2-5.4-5.3-6.1-8.4"/>
			<path fill="none" stroke="#000000" stroke-width="0.25" stroke-linecap="round" stroke-linejoin="round" d="M25.3,25
				c-0.4-0.1-0.8-0.2-1.2-0.3"/>
			<path fill="none" stroke="#000000" stroke-width="0.25" stroke-linecap="round" stroke-linejoin="round" d="M24,24.6
				C24,24.6,24,24.6,24,24.6C20.2,22.7,19.2,12,19.2,12l-6.1,2.8c0,0-4,0.9-4.3,6.1c-0.3,5.2-1.5,23.9-1.5,23.9h3.4l2.1-17.1
				l4.6,17.1"/>
			<path fill="none" stroke="#000000" stroke-width="0.25" stroke-linecap="round" stroke-linejoin="round" d="M16,15.6
				c1.3,4,3.9,12.8,9.3,13.3"/>
			<path fill="none" stroke="#000000" stroke-width="0.25" stroke-linecap="round" stroke-linejoin="round" d="M26.5,24.6
				c3.3-1.2,5.4-5.3,6.1-8.4"/>
			<path fill="none" stroke="#000000" stroke-width="0.25" stroke-linecap="round" stroke-linejoin="round" d="M25.3,25
				c0.4-0.1,0.8-0.2,1.2-0.3"/>
			<path fill="none" stroke="#000000" stroke-width="0.25" stroke-linecap="round" stroke-linejoin="round" d="M26.5,24.6
				C26.5,24.6,26.5,24.6,26.5,24.6c3.6-1.8,4.7-11.4,4.8-12.5c0-0.1,0-0.1,0-0.1l6.1,2.8c0,0,4,0.9,4.3,6.1
				c0.3,5.2,1.5,23.9,1.5,23.9h-3.4l-2.1-17.1L33,44.8"/>
			<path fill="none" stroke="#000000" stroke-width="0.25" stroke-linecap="round" stroke-linejoin="round" d="M34.6,15.6
				c-1.3,4-3.9,12.8-9.3,13.3"/>
			<path fill="none" stroke="#000000" stroke-width="0.25" stroke-linecap="round" stroke-linejoin="round" d="M33.9,22.5
				c0,0-3.3,10-10.4,9.2"/>
			<path fill="none" stroke="#000000" stroke-width="0.25" stroke-linecap="round" stroke-linejoin="round" d="M23.4,31.7
				c-0.1-0.1-4.1,0.1-5.5-5.5"/>
		</g>
	</g>
</g>
<g id="Layer_4" display="none">
	<g id="XMLID_4_" display="inline">
		<g>
			<path fill="#FFFFFF" d="M26.5,24.6c3.5-1.8,4.6-11.3,4.8-12.5c0-0.1,0-0.1,0-0.1l6.1,2.8c0,0,4,0.9,4.3,6.1
				c0.3,5.2,1.5,23.9,1.5,23.9h-3.4l-2.1-17.1L33,44.8c-2.9,0-4.9,0-7.8,0s-4.9,0-7.8,0l-4.6-17.1l-2.1,17.1H7.3
				c0,0,1.1-18.7,1.5-23.9c0.3-5.2,4.3-6.1,4.3-6.1l6.1-2.8c0,0,1,10.7,4.8,12.6c0,0,0,0,0.1,0c0.4,0.1,0.8,0.3,1.2,0.3
				C25.7,24.9,26.1,24.8,26.5,24.6C26.5,24.6,26.5,24.6,26.5,24.6z"/>
			<path fill="#AA6F3F" d="M31.3,12.1c-0.1,1.2-1.2,10.7-4.8,12.5c0,0,0,0-0.1,0c-0.4,0.1-0.8,0.3-1.2,0.3c-0.4-0.1-0.8-0.2-1.2-0.3
				c0,0,0,0-0.1,0C20.2,22.7,19.2,12,19.2,12s3-1.4,3-3.7s0-3.1,0-3.1h6v2.4C28.3,7.6,28.5,12.1,31.3,12.1z"/>
		</g>
		<g>
			<path fill="none" stroke="#000000" stroke-width="0.25" stroke-linecap="round" stroke-linejoin="round" d="M24,24.6
				c-3.3-1.2-5.4-5.3-6.1-8.4"/>
			<path fill="none" stroke="#000000" stroke-width="0.25" stroke-linecap="round" stroke-linejoin="round" d="M25.3,25
				c-0.4-0.1-0.8-0.2-1.2-0.3"/>
			<path fill="none" stroke="#000000" stroke-width="0.25" stroke-linecap="round" stroke-linejoin="round" d="M24,24.6
				C24,24.6,24,24.6,24,24.6C20.2,22.7,19.2,12,19.2,12l-6.1,2.8c0,0-4,0.9-4.3,6.1c-0.3,5.2-1.5,23.9-1.5,23.9h3.4l2.1-17.1
				l4.6,17.1"/>
			<path fill="none" stroke="#000000" stroke-width="0.25" stroke-linecap="round" stroke-linejoin="round" d="M16,15.6
				c1.3,4,3.9,12.8,9.3,13.3"/>
			<path fill="none" stroke="#000000" stroke-width="0.25" stroke-linecap="round" stroke-linejoin="round" d="M26.5,24.6
				c3.3-1.2,5.4-5.3,6.1-8.4"/>
			<path fill="none" stroke="#000000" stroke-width="0.25" stroke-linecap="round" stroke-linejoin="round" d="M25.3,25
				c0.4-0.1,0.8-0.2,1.2-0.3"/>
			<path fill="none" stroke="#000000" stroke-width="0.25" stroke-linecap="round" stroke-linejoin="round" d="M26.5,24.6
				C26.5,24.6,26.5,24.6,26.5,24.6c3.6-1.8,4.7-11.4,4.8-12.5c0-0.1,0-0.1,0-0.1l6.1,2.8c0,0,4,0.9,4.3,6.1
				c0.3,5.2,1.5,23.9,1.5,23.9h-3.4l-2.1-17.1L33,44.8"/>
			<path fill="none" stroke="#000000" stroke-width="0.25" stroke-linecap="round" stroke-linejoin="round" d="M34.6,15.6
				c-1.3,4-3.9,12.8-9.3,13.3"/>
			<path fill="none" stroke="#000000" stroke-width="0.25" stroke-linecap="round" stroke-linejoin="round" d="M33.9,22.5
				c0,0-3.3,10-10.4,9.2"/>
			<path fill="none" stroke="#000000" stroke-width="0.25" stroke-linecap="round" stroke-linejoin="round" d="M23.4,31.7
				c-0.1-0.1-4.1,0.1-5.5-5.5"/>
		</g>
	</g>
</g>
<g id="Layer_5" display="none">
	<g id="XMLID_5_" display="inline">
		<g>
			<path fill="#FFFFFF" d="M26.5,24.6c3.5-1.8,4.6-11.3,4.8-12.5c0-0.1,0-0.1,0-0.1l6.1,2.8c0,0,4,0.9,4.3,6.1
				c0.3,5.2,1.5,23.9,1.5,23.9h-3.4l-2.1-17.1L33,44.8c-2.9,0-4.9,0-7.8,0s-4.9,0-7.8,0l-4.6-17.1l-2.1,17.1H7.3
				c0,0,1.1-18.7,1.5-23.9c0.3-5.2,4.3-6.1,4.3-6.1l6.1-2.8c0,0,1,10.7,4.8,12.6c0,0,0,0,0.1,0c0.4,0.1,0.8,0.3,1.2,0.3
				C25.7,24.9,26.1,24.8,26.5,24.6C26.5,24.6,26.5,24.6,26.5,24.6z"/>
			<path fill="#694A2F" d="M31.3,12.1c-0.1,1.2-1.2,10.7-4.8,12.5c0,0,0,0-0.1,0c-0.4,0.1-0.8,0.3-1.2,0.3c-0.4-0.1-0.8-0.2-1.2-0.3
				c0,0,0,0-0.1,0C20.2,22.7,19.2,12,19.2,12s3-1.4,3-3.7s0-3.1,0-3.1h6v2.4C28.3,7.6,28.5,12.1,31.3,12.1z"/>
		</g>
		<g>
			<path fill="none" stroke="#000000" stroke-width="0.25" stroke-linecap="round" stroke-linejoin="round" d="M24,24.6
				c-3.3-1.2-5.4-5.3-6.1-8.4"/>
			<path fill="none" stroke="#000000" stroke-width="0.25" stroke-linecap="round" stroke-linejoin="round" d="M25.3,25
				c-0.4-0.1-0.8-0.2-1.2-0.3"/>
			<path fill="none" stroke="#000000" stroke-width="0.25" stroke-linecap="round" stroke-linejoin="round" d="M24,24.6
				C24,24.6,24,24.6,24,24.6C20.2,22.7,19.2,12,19.2,12l-6.1,2.8c0,0-4,0.9-4.3,6.1c-0.3,5.2-1.5,23.9-1.5,23.9h3.4l2.1-17.1
				l4.6,17.1"/>
			<path fill="none" stroke="#000000" stroke-width="0.25" stroke-linecap="round" stroke-linejoin="round" d="M16,15.6
				c1.3,4,3.9,12.8,9.3,13.3"/>
			<path fill="none" stroke="#000000" stroke-width="0.25" stroke-linecap="round" stroke-linejoin="round" d="M26.5,24.6
				c3.3-1.2,5.4-5.3,6.1-8.4"/>
			<path fill="none" stroke="#000000" stroke-width="0.25" stroke-linecap="round" stroke-linejoin="round" d="M25.3,25
				c0.4-0.1,0.8-0.2,1.2-0.3"/>
			<path fill="none" stroke="#000000" stroke-width="0.25" stroke-linecap="round" stroke-linejoin="round" d="M26.5,24.6
				C26.5,24.6,26.5,24.6,26.5,24.6c3.6-1.8,4.7-11.4,4.8-12.5c0-0.1,0-0.1,0-0.1l6.1,2.8c0,0,4,0.9,4.3,6.1
				c0.3,5.2,1.5,23.9,1.5,23.9h-3.4l-2.1-17.1L33,44.8"/>
			<path fill="none" stroke="#000000" stroke-width="0.25" stroke-linecap="round" stroke-linejoin="round" d="M34.6,15.6
				c-1.3,4-3.9,12.8-9.3,13.3"/>
			<path fill="none" stroke="#000000" stroke-width="0.25" stroke-linecap="round" stroke-linejoin="round" d="M33.9,22.5
				c0,0-3.3,10-10.4,9.2"/>
			<path fill="none" stroke="#000000" stroke-width="0.25" stroke-linecap="round" stroke-linejoin="round" d="M23.4,31.7
				c-0.1-0.1-4.1,0.1-5.5-5.5"/>
		</g>
	</g>
</g>
<g id="Layer_2" display="none">
	<g id="XMLID_1_" display="inline">
		<g>
			<path fill="#FFFFFF" d="M12.7,25.1c0,0,1.7-0.6,3.9-0.8c3-0.2,7,0.5,8.6,5.1c1.7-4.6,5.6-5.3,8.6-5.1c2.2,0.1,3.9,0.8,3.9,0.8
				l0.1,0l-0.3,1l-0.3,1.1l-4.5,17.6H17.4l-4.3-17.5l-0.3-1.1l-0.3-1L12.7,25.1z"/>
			<path fill="#F4DDC1" d="M37.9,25.1l2.3-9.4c0.2,0.1,0.9,0.5,1,2.3c0.1,2.1,2.5,26.9,2.5,26.9h-3.6l-2.7-17.7l0.3-1.1L37.9,25.1z"
				/>
			<path fill="#FFFFFF" d="M12.7,25.1l-0.1,0l-2.3-9.4l-0.1-0.2c4.2,0.7,10.7-6.6,11-7.1c0,0,0,0,0,0s-2,13.1-4.7,15.9
				C14.4,24.5,12.7,25.1,12.7,25.1z"/>
			<path fill="#FFFFFF" d="M40.2,15.7l-2.3,9.4l-0.1,0c0,0-1.7-0.6-3.9-0.8c-2.7-2.8-4.5-16-4.5-16s6.6,7.9,10.9,7.2L40.2,15.7z"/>
			<path fill="#F4DDC1" d="M6.8,44.9c0,0,2.4-24.8,2.5-26.9c0.1-1.8,0.8-2.2,1-2.3l2.3,9.4l0.3,1l0.3,1.1l-2.8,17.7H6.8z"/>
			<path fill="#F4DDC1" d="M29.1,5.1c0,0,0,2.9,0.2,3.1c0,0,1.9,13.2,4.5,16c-3-0.2-7,0.5-8.6,5.1c-1.7-4.6-5.6-5.3-8.6-5.1
				c2.7-2.8,4.7-15.9,4.7-15.9s0,0,0,0l-0.1-0.1c0.2-0.2,0.2-3.1,0.2-3.1h3.9H29.1z"/>
		</g>
		<g>
			<path fill="none" stroke="#000000" stroke-width="0.25" stroke-miterlimit="10" d="M21.3,8.4C21.3,8.4,21.3,8.4,21.3,8.4
				c-0.4,0.4-6.8,7.7-11.1,7.1l0.1,0.2l2.3,9.4l0.3,1l0.3,1.1l4.3,17.5"/>
			<path fill="none" stroke="#000000" stroke-width="0.25" stroke-miterlimit="10" d="M12.7,25.1c0,0,1.7-0.6,3.9-0.8
				c3-0.2,7,0.5,8.6,5.1"/>
			<path fill="none" stroke="#000000" stroke-width="0.25" stroke-miterlimit="10" d="M21.3,8.4c0,0-2,13.1-4.7,15.9"/>
			<path fill="none" stroke="#000000" stroke-width="0.25" stroke-miterlimit="10" d="M32.9,44.8l4.5-17.6l0.3-1.1l0.3-1l2.3-9.4
				l0.1-0.3c-4.4,0.7-10.9-7.2-10.9-7.2"/>
			<path fill="none" stroke="#000000" stroke-width="0.25" stroke-miterlimit="10" d="M37.8,25.1c0,0-1.7-0.6-3.9-0.8
				c-3-0.2-7,0.5-8.6,5.1"/>
			<path fill="none" stroke="#000000" stroke-width="0.25" stroke-miterlimit="10" d="M29.3,8.3c0,0,1.9,13.2,4.5,16"/>
		</g>
	</g>
</g>
<g id="Layer_6" display="none">
	<g id="XMLID_6_" display="inline">
		<g>
			<path fill="#D39D63" d="M43.7,44.9h-3.6l-2.7-17.7l0.3-1.1l0.3-1l2.3-9.4c0.2,0.1,0.9,0.5,1,2.3C41.3,20.1,43.7,44.9,43.7,44.9z"
				/>
			<path fill="#FFFFFF" d="M40.2,15.7l-2.3,9.4l-0.1,0c0,0-1.7-0.6-3.9-0.8c-2.7-2.8-4.5-16-4.5-16s6.6,7.9,10.9,7.2L40.2,15.7z"/>
			<path fill="#FFFFFF" d="M37.4,27.2l-4.5,17.6H17.4l-4.3-17.5l-0.3-1.1l-0.3-1l0.1,0c0,0,1.7-0.6,3.9-0.8c3-0.2,7,0.5,8.6,5.1
				c1.7-4.6,5.6-5.3,8.6-5.1c2.2,0.1,3.9,0.8,3.9,0.8l0.1,0l-0.3,1L37.4,27.2z"/>
			<path fill="#D39D63" d="M33.9,24.3c-3-0.2-7,0.5-8.6,5.1c-1.7-4.6-5.6-5.3-8.6-5.1c2.7-2.8,4.7-15.9,4.7-15.9s0,0,0,0l-0.1-0.1
				c0.2-0.2,0.2-3.1,0.2-3.1h3.9h3.9c0,0,0,2.9,0.2,3.1C29.3,8.3,31.2,21.5,33.9,24.3z"/>
			<path fill="#FFFFFF" d="M10.3,15.7l-0.1-0.2c4.2,0.7,10.7-6.6,11-7.1c0,0,0,0,0,0s-2,13.1-4.7,15.9c-2.2,0.1-3.9,0.8-3.9,0.8
				l-0.1,0L10.3,15.7z"/>
			<path fill="#D39D63" d="M12.9,26.2l0.3,1.1l-2.8,17.7H6.8c0,0,2.4-24.8,2.5-26.9c0.1-1.8,0.8-2.2,1-2.3l2.3,9.4L12.9,26.2z"/>
		</g>
		<g>
			<path fill="none" stroke="#000000" stroke-width="0.25" stroke-miterlimit="10" d="M21.3,8.4C21.3,8.4,21.3,8.4,21.3,8.4
				c-0.4,0.4-6.8,7.7-11.1,7.1l0.1,0.2l2.3,9.4l0.3,1l0.3,1.1l4.3,17.5"/>
			<path fill="none" stroke="#000000" stroke-width="0.25" stroke-miterlimit="10" d="M12.7,25.1c0,0,1.7-0.6,3.9-0.8
				c3-0.2,7,0.5,8.6,5.1"/>
			<path fill="none" stroke="#000000" stroke-width="0.25" stroke-miterlimit="10" d="M21.3,8.4c0,0-2,13.1-4.7,15.9"/>
			<path fill="none" stroke="#000000" stroke-width="0.25" stroke-miterlimit="10" d="M32.9,44.8l4.5-17.6l0.3-1.1l0.3-1l2.3-9.4
				l0.1-0.3c-4.4,0.7-10.9-7.2-10.9-7.2"/>
			<path fill="none" stroke="#000000" stroke-width="0.25" stroke-miterlimit="10" d="M37.8,25.1c0,0-1.7-0.6-3.9-0.8
				c-3-0.2-7,0.5-8.6,5.1"/>
			<path fill="none" stroke="#000000" stroke-width="0.25" stroke-miterlimit="10" d="M29.3,8.3c0,0,1.9,13.2,4.5,16"/>
		</g>
	</g>
</g>
<g id="Layer_7" display="none">
	<g id="XMLID_7_" display="inline">
		<g>
			<path fill="#AA6F3F" d="M43.7,44.9h-3.6l-2.7-17.7l0.3-1.1l0.3-1l2.3-9.4c0.2,0.1,0.9,0.5,1,2.3C41.3,20.1,43.7,44.9,43.7,44.9z"
				/>
			<path fill="#FFFFFF" d="M40.2,15.7l-2.3,9.4l-0.1,0c0,0-1.7-0.6-3.9-0.8c-2.7-2.8-4.5-16-4.5-16s6.6,7.9,10.9,7.2L40.2,15.7z"/>
			<path fill="#FFFFFF" d="M37.4,27.2l-4.5,17.6H17.4l-4.3-17.5l-0.3-1.1l-0.3-1l0.1,0c0,0,1.7-0.6,3.9-0.8c3-0.2,7,0.5,8.6,5.1
				c1.7-4.6,5.6-5.3,8.6-5.1c2.2,0.1,3.9,0.8,3.9,0.8l0.1,0l-0.3,1L37.4,27.2z"/>
			<path fill="#AA6F3F" d="M33.9,24.3c-3-0.2-7,0.5-8.6,5.1c-1.7-4.6-5.6-5.3-8.6-5.1c2.7-2.8,4.7-15.9,4.7-15.9s0,0,0,0l-0.1-0.1
				c0.2-0.2,0.2-3.1,0.2-3.1h3.9h3.9c0,0,0,2.9,0.2,3.1C29.3,8.3,31.2,21.5,33.9,24.3z"/>
			<path fill="#FFFFFF" d="M10.3,15.7l-0.1-0.2c4.2,0.7,10.7-6.6,11-7.1c0,0,0,0,0,0s-2,13.1-4.7,15.9c-2.2,0.1-3.9,0.8-3.9,0.8
				l-0.1,0L10.3,15.7z"/>
			<path fill="#AA6F3F" d="M12.9,26.2l0.3,1.1l-2.8,17.7H6.8c0,0,2.4-24.8,2.5-26.9c0.1-1.8,0.8-2.2,1-2.3l2.3,9.4L12.9,26.2z"/>
		</g>
		<g>
			<path fill="none" stroke="#000000" stroke-width="0.25" stroke-miterlimit="10" d="M21.3,8.4C21.3,8.4,21.3,8.4,21.3,8.4
				c-0.4,0.4-6.8,7.7-11.1,7.1l0.1,0.2l2.3,9.4l0.3,1l0.3,1.1l4.3,17.5"/>
			<path fill="none" stroke="#000000" stroke-width="0.25" stroke-miterlimit="10" d="M12.7,25.1c0,0,1.7-0.6,3.9-0.8
				c3-0.2,7,0.5,8.6,5.1"/>
			<path fill="none" stroke="#000000" stroke-width="0.25" stroke-miterlimit="10" d="M21.3,8.4c0,0-2,13.1-4.7,15.9"/>
			<path fill="none" stroke="#000000" stroke-width="0.25" stroke-miterlimit="10" d="M32.9,44.8l4.5-17.6l0.3-1.1l0.3-1l2.3-9.4
				l0.1-0.3c-4.4,0.7-10.9-7.2-10.9-7.2"/>
			<path fill="none" stroke="#000000" stroke-width="0.25" stroke-miterlimit="10" d="M37.8,25.1c0,0-1.7-0.6-3.9-0.8
				c-3-0.2-7,0.5-8.6,5.1"/>
			<path fill="none" stroke="#000000" stroke-width="0.25" stroke-miterlimit="10" d="M29.3,8.3c0,0,1.9,13.2,4.5,16"/>
		</g>
	</g>
</g>
<g id="Layer_8" display="none">
	<g id="XMLID_8_" display="inline">
		<g>
			<path fill="#694A2F" d="M43.7,44.9h-3.6l-2.7-17.7l0.3-1.1l0.3-1l2.3-9.4c0.2,0.1,0.9,0.5,1,2.3C41.3,20.1,43.7,44.9,43.7,44.9z"
				/>
			<path fill="#FFFFFF" d="M40.2,15.7l-2.3,9.4l-0.1,0c0,0-1.7-0.6-3.9-0.8c-2.7-2.8-4.5-16-4.5-16s6.6,7.9,10.9,7.2L40.2,15.7z"/>
			<path fill="#FFFFFF" d="M13.1,27.2l-0.3-1.1l-0.3-1l0.1,0c0,0,1.7-0.6,3.9-0.8c3-0.2,7,0.5,8.6,5.1c1.7-4.6,5.6-5.3,8.6-5.1
				c2.2,0.1,3.9,0.8,3.9,0.8l0.1,0l-0.3,1l-0.3,1.1l-4.5,17.6H17.4L13.1,27.2z"/>
			<path fill="#694A2F" d="M33.9,24.3c-3-0.2-7,0.5-8.6,5.1c-1.7-4.6-5.6-5.3-8.6-5.1c2.7-2.8,4.7-15.9,4.7-15.9s0,0,0,0l-0.1-0.1
				c0.2-0.2,0.2-3.1,0.2-3.1h3.9h3.9c0,0,0,2.9,0.2,3.1C29.3,8.3,31.2,21.5,33.9,24.3z"/>
			<path fill="#FFFFFF" d="M10.3,15.7l-0.1-0.2c4.2,0.7,10.7-6.6,11-7.1c0,0,0,0,0,0s-2,13.1-4.7,15.9c-2.2,0.1-3.9,0.8-3.9,0.8
				l-0.1,0L10.3,15.7z"/>
			<path fill="#694A2F" d="M12.9,26.2l0.3,1.1l-2.8,17.7H6.8c0,0,2.4-24.8,2.5-26.9c0.1-1.8,0.8-2.2,1-2.3l2.3,9.4L12.9,26.2z"/>
		</g>
		<g>
			<path fill="none" stroke="#000000" stroke-width="0.25" stroke-miterlimit="10" d="M21.3,8.4C21.3,8.4,21.3,8.4,21.3,8.4
				c-0.4,0.4-6.8,7.7-11.1,7.1l0.1,0.2l2.3,9.4l0.3,1l0.3,1.1l4.3,17.5"/>
			<path fill="none" stroke="#000000" stroke-width="0.25" stroke-miterlimit="10" d="M12.7,25.1c0,0,1.7-0.6,3.9-0.8
				c3-0.2,7,0.5,8.6,5.1"/>
			<path fill="none" stroke="#000000" stroke-width="0.25" stroke-miterlimit="10" d="M21.3,8.4c0,0-2,13.1-4.7,15.9"/>
			<path fill="none" stroke="#000000" stroke-width="0.25" stroke-miterlimit="10" d="M32.9,44.8l4.5-17.6l0.3-1.1l0.3-1l2.3-9.4
				l0.1-0.3c-4.4,0.7-10.9-7.2-10.9-7.2"/>
			<path fill="none" stroke="#000000" stroke-width="0.25" stroke-miterlimit="10" d="M37.8,25.1c0,0-1.7-0.6-3.9-0.8
				c-3-0.2-7,0.5-8.6,5.1"/>
			<path fill="none" stroke="#000000" stroke-width="0.25" stroke-miterlimit="10" d="M29.3,8.3c0,0,1.9,13.2,4.5,16"/>
		</g>
	</g>
</g>
<g id="Layer_9" display="none">
	<g id="XMLID_9_" display="inline">
		<g>
			<path fill="#FFFFFF" d="M13.5,26l-2.8,18.8H7.2c0,0,1.2-19.4,1.5-24.8c0.3-5.4,4.3-6.3,4.3-6.3l6.4-2.8c0,0,0.7,11,4.4,13.2
				c0.5,0.3,1.1,0.5,1.7,0.6c0.5-0.1,1-0.2,1.4-0.4c0,0,0,0,0,0c3.8-2.1,4.3-13.3,4.3-13.3l6.4,2.8c0,0,4,1,4.3,6.3
				c0.3,5.4,1.5,24.8,1.5,24.8h-3.5L37.1,26h0c-1.3,5.7-2.6,9.1-2.9,10.1c-0.3,1.2-0.4,6.7,1.1,8.4c-3.5,0-17.2,0-20,0
				c1.5-1.7,1.4-7.2,1.1-8.4C16.1,35,14.7,31.7,13.5,26L13.5,26z"/>
			<path fill="#D39D63" d="M31.2,10.9c0,0-0.5,11.2-4.3,13.3c0,0,0,0,0,0c-0.4,0.2-0.9,0.3-1.4,0.4c-0.6-0.1-1.2-0.3-1.7-0.6
				c-3.7-2.2-4.4-13.2-4.4-13.2s2.2-0.7,2.2-2.8c0-2.1,0-2.7,0-2.7h3.7h0.3h3.7c0,0,0,0.7,0,2.7C29.3,10.2,31.2,10.9,31.2,10.9z"/>
		</g>
		<g>
			<path fill="none" stroke="#000000" stroke-width="0.25" stroke-linecap="round" stroke-linejoin="round" d="M25.5,24.7
				c-0.6-0.1-1.2-0.3-1.7-0.6c-3.1-1.5-5.1-5.5-5.7-8.7"/>
			<path fill="none" stroke="#000000" stroke-width="0.25" stroke-linecap="round" stroke-linejoin="round" d="M16.1,14.8
				c1.3,4.2,3.9,13.5,9.4,14"/>
			<path fill="none" stroke="#000000" stroke-width="0.25" stroke-linecap="round" stroke-linejoin="round" d="M26.9,24.2
				c3.3-1.4,5.3-5.5,6-8.8"/>
			<path fill="none" stroke="#000000" stroke-width="0.25" stroke-linecap="round" stroke-linejoin="round" d="M25.5,24.7
				c0.5-0.1,1-0.2,1.4-0.4"/>
			<path fill="none" stroke="#000000" stroke-width="0.25" stroke-linecap="round" stroke-linejoin="round" d="M34.8,14.8
				c-1.3,4.2-3.9,13.5-9.4,14"/>
			<path fill="none" stroke="#000000" stroke-width="0.25" stroke-linecap="round" stroke-linejoin="round" d="M34.1,22.1
				c0,0-3.4,10.5-10.5,9.6"/>
			<path fill="none" stroke="#000000" stroke-width="0.25" stroke-linecap="round" stroke-linejoin="round" d="M23.6,31.7
				c-0.1-0.1-4.1,0.1-5.6-5.7"/>
			<path fill="none" stroke="#000000" stroke-width="0.25" stroke-linecap="round" stroke-linejoin="round" d="M24,24.2
				c-0.1,0-0.1-0.1-0.2-0.1c-3.7-2.2-4.4-13.2-4.4-13.2L13,13.7c0,0-4,1-4.3,6.3c-0.3,5.4-1.5,24.8-1.5,24.8h3.5L13.5,26l0-0.2"/>
			<path fill="none" stroke="#000000" stroke-width="0.25" stroke-linecap="round" stroke-linejoin="round" d="M15.3,44.5
				c1.5-1.7,1.4-7.2,1.1-8.4c-0.3-1.1-1.7-4.4-2.9-10.1"/>
			<path fill="none" stroke="#000000" stroke-width="0.25" stroke-linecap="round" stroke-linejoin="round" d="M26.8,24.3
				C26.8,24.3,26.9,24.3,26.8,24.3c0.1,0,0.1,0,0.1-0.1c3.8-2.1,4.3-13.3,4.3-13.3l6.4,2.8c0,0,4,1,4.3,6.3
				c0.3,5.4,1.5,24.8,1.5,24.8h-3.5L37.1,26l0-0.2"/>
			<path fill="none" stroke="#000000" stroke-width="0.25" stroke-linecap="round" stroke-linejoin="round" d="M35.3,44.5
				c-1.5-1.7-1.4-7.2-1.1-8.4c0.3-1.1,1.7-4.4,2.9-10.1"/>
		</g>
	</g>
</g>
<g id="Layer_10" display="none">
	<g id="XMLID_10_" display="inline">
		<g>
			<path fill="#D39D63" d="M37.7,24.2c1.2-5.4,1.5-8.8,1.5-9.9c1.8,1.3,2.1,3.4,2.1,3.4c0.4,4.7,2.5,27.2,2.5,27.2h-3.6l-2.9-19
				c0.1-0.3,0.1-0.6,0.2-0.9C37.6,24.6,37.6,24.4,37.7,24.2z"/>
			<path fill="#FFFFFF" d="M37.3,25.8c-1.5,6.4-2.5,8.2-2.8,9.3c-0.4,1.2-0.7,7.7,1,9.4H15.3l0,0c1.7-1.7,1.4-8.2,1-9.4
				c-0.3-1.1-1.3-2.9-2.8-9.3c-0.1-0.3-0.1-0.6-0.2-0.9c-0.1-0.2-0.1-0.4-0.1-0.7c0,0,2.2-0.8,4.8-0.7c2.7,0.1,5.9,1.3,7.4,5.5h0.3
				c1.5-4.2,4.7-5.4,7.4-5.5c2.6-0.1,4.8,0.7,4.8,0.7c0,0.2-0.1,0.4-0.1,0.7C37.5,25.2,37.4,25.5,37.3,25.8z"/>
			<path fill="#FFFFFF" d="M39.2,14.2c-0.1,1.1-0.3,4.5-1.5,9.9c0,0-2.2-0.8-4.8-0.7v-0.1c-2.6-2.8-3.5-14-3.6-14.9l0,0
				c0.3,3,9.9,5.5,9.9,5.5C39.2,14.1,39.2,14.1,39.2,14.2z"/>
			<path fill="#D39D63" d="M21.4,8.7C21.4,8.7,21.4,8.7,21.4,8.7L21.4,8.7c0.2-0.3,0.2-3.3,0.2-3.3h3.7h0.2h3.7c0,0,0,2.4,0.1,3.1
				c0.1,0.9,1,12.1,3.6,14.9v0.1c-2.7,0.1-5.9,1.3-7.4,5.5h-0.3c-1.5-4.2-4.7-5.4-7.4-5.5v-0.1C20.3,20.7,21.3,10.6,21.4,8.7z"/>
			<path fill="#FFFFFF" d="M11.5,14.2c0-0.1,0-0.2,0-0.2c0,0,9.1-2.4,9.9-5.3c-0.2,1.9-1.1,12-3.6,14.7v0.1
				c-2.6-0.1-4.8,0.7-4.8,0.7C11.9,18.7,11.6,15.3,11.5,14.2z"/>
			<path fill="#D39D63" d="M13.4,25.7l-2.9,19.1H6.9c0,0,2.1-22.4,2.5-27.2c0,0,0.3-2.1,2.1-3.4c0.1,1.1,0.3,4.5,1.5,9.9
				c0,0.2,0.1,0.4,0.1,0.7C13.3,25.2,13.4,25.4,13.4,25.7z"/>
		</g>
		<g>
			<path fill="none" stroke="#000000" stroke-width="0.25" stroke-linecap="round" stroke-linejoin="round" d="M13.1,24.2
				c0,0,2.2-0.8,4.8-0.7c2.7,0.1,5.9,1.3,7.4,5.5"/>
			<path fill="none" stroke="#000000" stroke-width="0.25" stroke-linecap="round" stroke-linejoin="round" d="M21.4,8.7
				c-0.2,1.9-1.1,12-3.6,14.7"/>
			<path fill="none" stroke="#000000" stroke-width="0.25" stroke-linecap="round" stroke-linejoin="round" d="M21.5,8.4
				c0,0,0,0.1,0,0.1c0,0,0,0,0,0.1c0,0,0,0,0,0.1"/>
			<path fill="none" stroke="#000000" stroke-width="0.25" stroke-linecap="round" stroke-linejoin="round" d="M21.4,8.6
				C21.4,8.7,21.4,8.7,21.4,8.6"/>
			<path fill="none" stroke="#000000" stroke-width="0.25" stroke-linecap="round" stroke-linejoin="round" d="M15.2,44.4L15.2,44.4
				c1.7-1.7,1.4-8.2,1-9.4c-0.3-1.1-1.3-2.9-2.8-9.3c-0.1-0.3-0.1-0.6-0.2-0.9c-0.1-0.2-0.1-0.4-0.1-0.7c-1.2-5.4-1.5-8.8-1.5-9.9
				c0-0.1,0-0.2,0-0.2c0,0,9.1-2.4,9.9-5.3"/>
			<path fill="none" stroke="#000000" stroke-width="0.25" stroke-linecap="round" stroke-linejoin="round" d="M37.7,24.2
				c0,0-2.2-0.8-4.8-0.7c-2.7,0.1-5.9,1.3-7.4,5.5"/>
			<path fill="none" stroke="#000000" stroke-width="0.25" stroke-linecap="round" stroke-linejoin="round" d="M29.3,8.5
				c0.1,0.9,1,12.1,3.6,14.9"/>
			<path fill="none" stroke="#000000" stroke-width="0.25" stroke-linecap="round" stroke-linejoin="round" d="M35.5,44.4
				c-1.7-1.7-1.4-8.2-1-9.4c0.3-1.1,1.3-2.9,2.8-9.3c0.1-0.3,0.1-0.6,0.2-0.9c0.1-0.2,0.1-0.4,0.1-0.7c1.2-5.4,1.5-8.8,1.5-9.9
				c0-0.1,0-0.2,0-0.2c0,0-9.6-2.5-9.9-5.5"/>
		</g>
	</g>
</g>
<g id="Layer_11" display="none">
	<g id="XMLID_11_" display="inline">
		<g>
			<path fill="#D39D63" d="M40.9,17.6c0.4,4.8,2.4,27.2,2.4,27.2h-3.5l-3.2-19.7h-0.1c0,0-1-5.5,0-11.7c1.2,0.3,2,0.5,2,0.6
				C40.6,15.2,40.9,17.6,40.9,17.6z"/>
			<path fill="#FFFFFF" d="M13.9,25.1c0,0,16.2-5.2,17.2-13.8l1.2,0.5c1.4,0.8,3,1.4,4.2,1.7l0.1,0c-1,6.1,0,11.7,0,11.7
				s-1.2,7.2-2.5,10.3c-1.3,3.1,0.9,9.1,0.9,9.1H15.4c0,0,2.2-6,0.9-9.1C15.1,32.3,13.9,25.1,13.9,25.1z"/>
			<path fill="#D39D63" d="M31.1,11.2c-1,8.6-17.2,13.8-17.2,13.8l-3.2,19.7H7.2c0,0,2-22.5,2.4-27.2c0,0,0.3-2.4,2.4-3.6
				c0-0.3,7.1-1,9.4-5.4c0.2-0.2,0.2-3.3,0.2-3.3h3.5h0.3h3.5c0,0,0,3,0.2,3.3c0.7,1.4,1.8,2.4,3.1,3.1L31.1,11.2z"/>
		</g>
		<g>
			<path fill="none" stroke="#000000" stroke-width="0.25" stroke-linecap="round" stroke-linejoin="round" d="M15.4,44.4
				c0,0,2.2-6,0.9-9.1c-1.3-3.1-2.5-10.3-2.5-10.3s16.2-5.2,17.2-13.8"/>
			<path fill="none" stroke="#000000" stroke-width="0.25" stroke-linecap="round" stroke-linejoin="round" d="M31.1,11.2l1.2,0.5
				l4.2,1.7l0.1,0c-1,6.1,0,11.7,0,11.7s-1.2,7.2-2.5,10.3c-1.3,3.1,0.9,9.1,0.9,9.1"/>
		</g>
	</g>
</g>
<g id="low_waist" display="none">
	<g id="XMLID_20_" display="inline">
		<g>
			<path fill="#D39D63" d="M31.4,1l0.6,7.9c-8.7,0.8-14.2,0-14.2,0L18.6,1H31.4z"/>
			<path fill="#FFFFFF" d="M29,10.3l0.5,2c0,0,2.5,0,3,1.1c0.2,3.8,0.4,8.7-0.3,10.3c-1,2.7-1,7.4-0.6,10.3c0.4,2.9,0.9,1.3,0,7.2
				c-0.6,4.1-0.8,5.3-0.9,5.7c0,0.2,0,0.2,0,0.2h-2.9c0,0,0-0.1,0-0.2c-0.1-1.2-0.7-8.6-0.7-11.2c0-0.8-0.3-2.9-0.4-3.9
				C26.7,31,27,28,27,28s-1.5-12-1.9-13.2L25,12.6l0-2.1C26.2,10.4,27.5,10.4,29,10.3L29,10.3z"/>
			<path fill="#FFFFFF" d="M29,10.2c1-0.1,2.1-0.2,3.2-0.4h0c0.1,0.8,0.2,2.1,0.2,3.6c-0.4-1.1-3-1.1-3-1.1L29,10.2L29,10.2z"/>
			<path fill="#FFFFFF" d="M27.8,47.1h2.9c0,0,0,0,0-0.2h0.4l-0.6,1.7h-2.8l-0.5-1.7h0.4C27.8,47,27.8,47.1,27.8,47.1z"/>
			<path fill="#FFFFFF" d="M25,12.6l0.1,2.3C24.7,16,23.1,28,23.1,28s0.2,3,0.2,3.9c0,0.9-0.4,3-0.4,3.9c0,2.8-0.7,11.3-0.7,11.3
				h-2.9c0,0,0,0-0.9-5.9c-0.9-5.9-0.4-4.3,0-7.2S19,26.5,18,23.7c-0.6-1.6-0.5-6.6-0.3-10.3c0.4-1.1,3-1.1,3-1.1l0.5-2
				c1,0.1,2.4,0.2,3.9,0.2L25,12.6z"/>
			<path fill="#FFFFFF" d="M21.1,10.3l-0.5,2c0,0-2.5,0-3,1.1c0.1-1.5,0.1-2.8,0.2-3.6h0C17.9,9.8,19,10.1,21.1,10.3z"/>
			<polygon fill="#FFFFFF" points="22.3,47.1 22.7,47.1 22.3,48.8 19.5,48.8 18.9,47.1 19.4,47.1 			"/>
			<path fill="#FFFFFF" d="M29,10.2c-1.5,0.1-2.8,0.2-4,0.2c-1.5,0-2.8-0.1-3.9-0.2c-2.1-0.2-3.2-0.5-3.2-0.5h0c0-0.6,0.1-1,0.1-1
				s5.5,0.8,14.2,0c0,0,0,0.4,0.1,1h0C31,10,30,10.1,29,10.2z"/>
		</g>
		<g>
			<path fill="none" stroke="#010101" stroke-width="0.25" stroke-linecap="round" stroke-linejoin="round" d="M21.1,10.3l-0.5,2
				c0,0-2.5,0-3,1.1c0,0,0,0,0,0.1"/>
			<path fill="none" stroke="#010101" stroke-width="0.25" stroke-linecap="round" stroke-linejoin="round" d="M29,10.3l0.5,2
				c0,0,2.5,0,3,1.1c0,0,0,0,0,0.1"/>
			<path fill="none" stroke="#010101" stroke-width="0.25" stroke-linecap="round" stroke-linejoin="round" d="M17.9,8.8
				c0,0,5.5,0.8,14.2,0"/>
			<path fill="none" stroke="#010101" stroke-width="0.25" stroke-linecap="round" stroke-linejoin="round" d="M17.9,8.8
				c0,0,0,0.4-0.1,1c-0.1,0.8-0.1,2.1-0.2,3.6c-0.2,3.8-0.3,8.7,0.3,10.3c1,2.7,1,7.4,0.6,10.3s-0.9,1.3,0,7.2
				c0.9,5.9,0.9,5.9,0.9,5.9h2.9c0,0,0.7-8.6,0.7-11.3c0-0.8,0.3-2.9,0.4-3.9c0-0.9-0.2-3.9-0.2-3.9s1.5-12,1.9-13.2"/>
			<polyline fill="none" stroke="#010101" stroke-width="0.25" stroke-linecap="round" stroke-linejoin="round" points="19.4,47.1 
				18.9,47.1 19.5,48.8 22.3,48.8 22.7,47.1 22.3,47.1 			"/>
			<path fill="none" stroke="#010101" stroke-width="0.25" stroke-linecap="round" stroke-linejoin="round" d="M32.1,8.8
				c0,0,0,0.4,0.1,1c0.1,0.8,0.2,2.1,0.2,3.6c0.2,3.8,0.4,8.7-0.3,10.3c-1,2.7-1,7.4-0.6,10.3c0.4,2.9,0.9,1.3,0,7.2
				c-0.6,4.1-0.8,5.3-0.9,5.7c0,0.2,0,0.2,0,0.2h-2.9c0,0,0-0.1,0-0.2c-0.1-1.2-0.7-8.6-0.7-11.2c0-0.8-0.3-2.9-0.4-3.9
				C26.7,31,27,28,27,28s-1.5-12-1.9-13.2L25,12.6"/>
			<polyline fill="none" stroke="#010101" stroke-width="0.25" stroke-linecap="round" stroke-linejoin="round" points="30.7,46.9 
				30.8,46.9 31.2,46.9 30.6,48.6 27.8,48.6 27.4,46.9 27.8,46.9 27.8,46.9 			"/>
			<path fill="none" stroke="#010101" stroke-width="0.25" stroke-linecap="round" stroke-linejoin="round" d="M17.9,9.8
				c0,0,1.1,0.3,3.2,0.5c1,0.1,2.4,0.2,3.9,0.2c1.2,0,2.5-0.1,4-0.2c1-0.1,2.1-0.2,3.2-0.4"/>
		</g>
	</g>
</g>
<g id="normal_waist" display="none">
	<g id="XMLID_13_" display="inline">
		<g>
			<path fill="#FFFFFF" d="M31.8,6.2c0,0,0.2,1.5,0.3,3.8c-0.4-1.2-3-1.2-3-1.2l-0.5-2v0C29.8,6.7,31,6.5,31.8,6.2z"/>
			<path fill="#D39D63" d="M31.4,1.2l0.3,4c-8.1,1.1-13.4,0-13.4,0v0l0.3-4V1.1h12.8V1.2z"/>
			<polygon fill="#FFFFFF" points="30.7,47.2 31.1,47.2 30.5,48.9 27.8,48.9 27.3,47.2 27.8,47.2 			"/>
			<path fill="#FFFFFF" d="M25.1,6.7c0.5,0,2,0.1,3.5,0v0l0.5,2c0,0,2.6,0,3,1.2c0.4,4.7,0.8,12.5-0.1,15c-1.3,3.7-0.5,9.7-0.3,10.4
				c0.2,0.7,0.4,2.2,0,5.5c-0.5,3.3-0.9,4.8-1,6.4h-2.9c0,0-0.4-3.6-0.5-5.6c-0.1-2,0-5.8-0.3-7.5c-0.3-1.8-0.2-3.6,0-5.4
				C27.1,26.8,25,15,25,15V8.8L25.1,6.7z"/>
			<path fill="#FFFFFF" d="M28.6,6.7c-1.5,0.1-3,0-3.5,0c-0.1,0-0.1,0-0.1,0s-1.8,0.1-3.6,0c-1.2-0.1-2.4-0.2-3.1-0.5l0.1-1
				c0,0,5.3,1.1,13.4,0l0.1,0.9C31,6.5,29.8,6.7,28.6,6.7z"/>
			<polygon fill="#FFFFFF" points="19.4,48.9 18.8,47.2 19.3,47.2 22.2,47.2 22.7,47.2 22.2,48.9 			"/>
			<path fill="#FFFFFF" d="M17.9,9.9c0.5-1.1,2.9-1.1,2.9-1.1l0.5-2v0c1.8,0.1,3.6,0,3.6,0s0.1,0,0.1,0L25,8.8V15
				c0,0-2.1,11.8-1.9,13.7s0.3,3.6,0,5.4c-0.3,1.8-0.2,5.5-0.3,7.5c-0.1,2-0.5,5.6-0.5,5.6h-2.9c-0.1-1.6-0.5-3-1-6.4
				c-0.5-3.3-0.2-4.8,0-5.5c0.2-0.7,1-6.7-0.3-10.4C17.1,22.4,17.5,14.6,17.9,9.9z"/>
			<path fill="#FFFFFF" d="M17.9,9.9c0.2-2.1,0.3-3.6,0.3-3.6c0.8,0.3,1.9,0.5,3.1,0.5v0l-0.5,2C20.8,8.8,18.4,8.8,17.9,9.9z"/>
		</g>
		<g>
			<path fill="none" stroke="#010101" stroke-width="0.25" stroke-linecap="round" stroke-linejoin="round" d="M25,6.7
				c0,0,0.1,0,0.1,0c0.5,0,2,0.1,3.5,0c1.2-0.1,2.4-0.2,3.2-0.5c0,0,0.2,1.5,0.3,3.8c0.4,4.7,0.8,12.5-0.1,15
				c-1.3,3.7-0.5,9.7-0.3,10.4c0.2,0.7,0.4,2.2,0,5.5c-0.5,3.3-0.9,4.8-1,6.4"/>
			<path fill="none" stroke="#010101" stroke-width="0.25" stroke-linecap="round" stroke-linejoin="round" d="M25,15
				c0,0,2.1,11.8,1.9,13.7c-0.2,1.9-0.3,3.6,0,5.4c0.3,1.8,0.2,5.5,0.3,7.5c0.1,2,0.5,5.6,0.5,5.6"/>
			<polygon fill="none" stroke="#010101" stroke-width="0.25" stroke-linecap="round" stroke-linejoin="round" points="30.7,47.2 
				31.1,47.2 30.5,48.9 27.8,48.9 27.3,47.2 27.8,47.2 			"/>
			<path fill="none" stroke="#010101" stroke-width="0.25" stroke-linecap="round" stroke-linejoin="round" d="M28.6,6.8l0.5,2
				c0,0,2.6,0,3,1.2"/>
			<path fill="none" stroke="#010101" stroke-width="0.25" stroke-linecap="round" stroke-linejoin="round" d="M25,6.7
				c0,0-1.8,0.1-3.6,0c-1.2-0.1-2.4-0.2-3.1-0.5c0,0-0.1,1.5-0.3,3.6C17.5,14.6,17.1,22.4,18,25c1.3,3.7,0.5,9.7,0.3,10.4
				c-0.2,0.7-0.5,2.2,0,5.5c0.5,3.3,0.9,4.8,1,6.4"/>
			<path fill="none" stroke="#010101" stroke-width="0.25" stroke-linecap="round" stroke-linejoin="round" d="M25,15
				c0,0-2.1,11.8-1.9,13.7s0.3,3.6,0,5.4c-0.3,1.8-0.2,5.5-0.3,7.5c-0.1,2-0.5,5.6-0.5,5.6"/>
			<polygon fill="none" stroke="#010101" stroke-width="0.25" stroke-linecap="round" stroke-linejoin="round" points="19.3,47.2 
				18.8,47.2 19.4,48.9 22.2,48.9 22.7,47.2 22.2,47.2 			"/>
			<path fill="none" stroke="#010101" stroke-width="0.25" stroke-linecap="round" stroke-linejoin="round" d="M21.3,6.8l-0.5,2
				c0,0-2.4,0-2.9,1.1c0,0,0,0.1,0,0.1"/>
			<polyline fill="none" stroke="#010101" stroke-width="0.25" stroke-linecap="round" stroke-linejoin="round" points="25,8.8 
				25,15 25,15.5 			"/>
			<path fill="none" stroke="#010101" stroke-width="0.25" stroke-linecap="round" stroke-linejoin="round" d="M31.8,6.2l-0.1-0.9
				c-8.1,1.1-13.4,0-13.4,0l-0.1,1"/>
		</g>
	</g>
</g>
<g id="High_waist" display="none">
	<g id="XMLID_14_" display="inline">
		<g>
			<polygon fill="#FFFFFF" points="22.2,47.2 22.7,47.2 22.2,48.9 19.4,48.9 18.8,47.2 19.3,47.2 			"/>
			<path fill="#FFFFFF" d="M21.4,5.6l-0.5,2c0,0-2.4,0-2.9,1.1c0.2-2.2,0.4-3.8,0.4-3.8c0.7,0.3,1.9,0.5,3,0.6V5.6z"/>
			<path fill="#D39D63" d="M18.6,1.1h12.8l0.1,2v0.4c-8.1,1.1-13,0-13,0V3.1L18.6,1.1z"/>
			<path fill="#FFFFFF" d="M18.5,3.4c0,0,4.9,1,13,0l0.1,1.5c-0.7,0.3-1.9,0.5-3.1,0.6C26.8,5.6,25,5.6,25,5.6s-1.8,0.1-3.5-0.1
				c-1.1-0.1-2.3-0.3-3-0.6L18.5,3.4z"/>
			<path fill="#FFFFFF" d="M18.1,8.7C18.5,7.6,21,7.6,21,7.6l0.5-2V5.5C23.2,5.6,25,5.6,25,5.6s1.8,0.1,3.6-0.1l0,0.1l0.5,2
				c0,0,2.5,0,2.9,1.2c0.4,4.8,0.9,12.8,0,15.4C30.7,28,31.5,34.3,31.7,35c0.2,0.7,0.5,2.3,0,5.7c-0.5,3.4-0.9,4.9-1,6.6h-2.9
				c0,0-0.4-3.6-0.5-5.6c-0.1-2,0-5.8-0.3-7.5c-0.3-1.8-0.2-3.6,0-5.4C27.1,26.8,25,15,25,15s-2.1,11.8-1.9,13.7s0.3,3.6,0,5.4
				c-0.3,1.8-0.2,5.5-0.3,7.5s-0.5,5.6-0.5,5.6h-2.9c-0.1-1.6-0.5-3.1-1-6.6c-0.5-3.4-0.2-5,0-5.7c0.2-0.7,1-6.9-0.3-10.8
				C17.1,21.6,17.6,13.5,18.1,8.7z"/>
			<polygon fill="#FFFFFF" points="30.7,47.2 31.1,47.2 30.5,48.9 27.8,48.9 27.3,47.2 27.8,47.2 			"/>
			<path fill="#FFFFFF" d="M31.7,4.9c0,0,0.2,1.6,0.4,3.9c-0.4-1.2-2.9-1.2-2.9-1.2l-0.5-2l0-0.1C29.7,5.4,30.9,5.2,31.7,4.9z"/>
		</g>
		<g>
			<path fill="none" stroke="#010101" stroke-width="0.25" stroke-linecap="round" stroke-linejoin="round" d="M25,5.6
				c0,0,1.8,0.1,3.6-0.1c1.1-0.1,2.3-0.3,3.1-0.6c0,0,0.2,1.6,0.4,3.9c0.4,4.8,0.9,12.8,0,15.4C30.7,28,31.5,34.3,31.7,35
				c0.2,0.7,0.5,2.3,0,5.7c-0.5,3.4-0.9,4.9-1,6.6"/>
			<path fill="none" stroke="#010101" stroke-width="0.25" stroke-linecap="round" stroke-linejoin="round" d="M25,15
				c0,0,2.1,11.8,1.9,13.7c-0.2,1.9-0.3,3.6,0,5.4c0.3,1.8,0.2,5.5,0.3,7.5c0.1,2,0.5,5.6,0.5,5.6"/>
			<polygon fill="none" stroke="#010101" stroke-width="0.25" stroke-linecap="round" stroke-linejoin="round" points="30.7,47.2 
				31.1,47.2 30.5,48.9 27.8,48.9 27.3,47.2 27.8,47.2 			"/>
			<path fill="none" stroke="#010101" stroke-width="0.25" stroke-linecap="round" stroke-linejoin="round" d="M28.6,5.6l0.5,2
				c0,0,2.5,0,2.9,1.2"/>
			<path fill="none" stroke="#010101" stroke-width="0.25" stroke-linecap="round" stroke-linejoin="round" d="M25,5.6
				c0,0-1.8,0.1-3.5-0.1c-1.1-0.1-2.3-0.3-3-0.6c0,0-0.2,1.5-0.4,3.8c-0.4,4.8-1,12.9-0.1,15.5c1.3,3.8,0.5,10.1,0.3,10.8
				c-0.2,0.7-0.5,2.3,0,5.7c0.5,3.4,0.9,4.9,1,6.6"/>
			<path fill="none" stroke="#010101" stroke-width="0.25" stroke-linecap="round" stroke-linejoin="round" d="M25,15
				c0,0-2.1,11.8-1.9,13.7s0.3,3.6,0,5.4c-0.3,1.8-0.2,5.5-0.3,7.5s-0.5,5.6-0.5,5.6"/>
			<polygon fill="none" stroke="#010101" stroke-width="0.25" stroke-linecap="round" stroke-linejoin="round" points="19.3,47.2 
				18.8,47.2 19.4,48.9 22.2,48.9 22.7,47.2 22.2,47.2 			"/>
			<path fill="none" stroke="#010101" stroke-width="0.25" stroke-linecap="round" stroke-linejoin="round" d="M21.4,5.6l-0.5,2
				c0,0-2.4,0-2.9,1.1c0,0,0,0.1,0,0.1"/>
			<polyline fill="none" stroke="#010101" stroke-width="0.25" stroke-linecap="round" stroke-linejoin="round" points="25,8.8 
				25,15 25,15.5 			"/>
			<path fill="none" stroke="#010101" stroke-width="0.25" stroke-linecap="round" stroke-linejoin="round" d="M18.4,4.9l0.1-1.5
				c0,0,4.9,1,13,0l0.1,1.5"/>
		</g>
	</g>
</g>
<g id="Ankle_length" display="none">
	<g id="XMLID_15_" display="inline">
		<g>
			<path fill="#D39D63" d="M19.3,49.4v-1.1h0c0,0,0,0.1,0,0.2h2.9v1H19.3z"/>
			<path fill="#FFFFFF" d="M21.5,5c-1.1-0.1-2.3-0.3-3-0.6l0.1-1.5c0,0,4.9,1.1,13,0l0.1,1.5c-0.7,0.3-1.9,0.5-3.1,0.6
				C26.8,5.1,25,5.1,25,5.1S23.3,5.1,21.5,5z"/>
			<path fill="#FFFFFF" d="M27.8,48.5c0,0-0.4-3.8-0.5-5.9c-0.1-2.1,0-6-0.3-7.8c-0.3-1.9-0.2-3.7,0-5.6c0.2-1.9-1.9-14.2-1.9-14.2
				s-2.1,12.3-1.9,14.2c0.2,1.9,0.3,3.8,0,5.6c-0.3,1.9-0.2,5.8-0.3,7.8c-0.1,2.1-0.5,5.9-0.5,5.9h-2.9c0,0,0-0.1,0-0.2
				c-0.1-1.7-0.5-3.2-1-6.7c-0.5-3.6-0.2-5.2,0-5.9c0.2-0.7,1-7.2-0.3-11.2c-0.9-2.8-0.4-11.3,0.1-16.3C18.6,7.1,21,7.1,21,7.1
				l0.5-2l0-0.1C23.3,5.1,25,5.1,25,5.1s1.8,0.1,3.6-0.1l0,0.1l0.5,2c0,0,2.5,0,2.9,1.2c0.4,5,0.9,13.5,0,16.2
				c-1.3,4-0.5,10.5-0.3,11.2c0.2,0.7,0.5,2.4,0,5.9c-0.5,3.5-0.8,5-1,6.7c0,0,0,0.1,0,0.2H27.8z"/>
			<path fill="#FFFFFF" d="M29.1,7.1l-0.5-2l0-0.1c1.1-0.1,2.3-0.3,3.1-0.6c0,0,0.2,1.6,0.4,3.9C31.6,7.1,29.1,7.1,29.1,7.1z"/>
			<path fill="#D39D63" d="M30.7,48.3v1.1h-2.9v-1h2.9C30.7,48.4,30.7,48.4,30.7,48.3z"/>
			<path fill="#FFFFFF" d="M18.1,8.2c0.2-2.2,0.4-3.8,0.4-3.8c0.7,0.3,1.9,0.5,3,0.6l0,0.1l-0.5,2C21,7.1,18.6,7.1,18.1,8.2z"/>
			<path fill="#D39D63" d="M18.6,0.6h12.8l0.1,2v0.3c-8.1,1.1-13,0-13,0V2.6L18.6,0.6z"/>
		</g>
		<g>
			<path fill="none" stroke="#010101" stroke-width="0.25" stroke-linecap="round" stroke-linejoin="round" d="M25,5.1
				c0,0,1.8,0.1,3.6-0.1c1.1-0.1,2.3-0.3,3.1-0.6c0,0,0.2,1.6,0.4,3.9c0.4,5,0.9,13.5,0,16.2c-1.3,4-0.5,10.5-0.3,11.2
				c0.2,0.7,0.5,2.4,0,5.9c-0.5,3.5-0.8,5-1,6.7c0,0,0,0.1,0,0.2h-2.9c0,0-0.4-3.8-0.5-5.9c-0.1-2.1,0-6-0.3-7.8
				c-0.3-1.9-0.2-3.7,0-5.6c0.2-1.9-1.9-14.2-1.9-14.2"/>
			<path fill="none" stroke="#010101" stroke-width="0.25" stroke-linecap="round" stroke-linejoin="round" d="M28.6,5.1l0.5,2
				c0,0,2.5,0,2.9,1.2c0,0,0,0,0,0"/>
			<path fill="none" stroke="#010101" stroke-width="0.25" stroke-linecap="round" stroke-linejoin="round" d="M25,5.1
				c0,0-1.7,0.1-3.5-0.1c-1.1-0.1-2.3-0.3-3-0.6c0,0-0.2,1.5-0.4,3.8c-0.4,5-1,13.6-0.1,16.3c1.3,4,0.5,10.5,0.3,11.2
				c-0.2,0.7-0.5,2.4,0,5.9c0.5,3.5,0.8,5,1,6.7c0,0,0,0.1,0,0.2h2.9c0,0,0.4-3.8,0.5-5.9c0.1-2.1,0-6,0.3-7.8
				c0.3-1.9,0.2-3.7,0-5.6C22.9,27.2,25,14.9,25,14.9"/>
			<path fill="none" stroke="#010101" stroke-width="0.25" stroke-linecap="round" stroke-linejoin="round" d="M21.4,5.1l-0.5,2
				c0,0-2.4,0-2.9,1.1c0,0,0,0.1-0.1,0.1"/>
			<polyline fill="none" stroke="#010101" stroke-width="0.25" stroke-linecap="round" stroke-linejoin="round" points="25,8.3 
				25,14.9 25,14.9 			"/>
			<path fill="none" stroke="#010101" stroke-width="0.25" stroke-linecap="round" stroke-linejoin="round" d="M18.4,4.4l0.1-1.5
				c0,0,4.9,1.1,13,0l0.1,1.5"/>
		</g>
	</g>
</g>
<g id="Short" display="none">
	<g id="XMLID_16_" display="inline">
		<g>
			<path fill="#FFFFFF" d="M18.5,2.9c0,0,4.9,1.1,13,0l0.1,1.5c-0.7,0.3-1.9,0.5-3.1,0.6C26.8,5.1,25,5.1,25,5.1S23.2,5.1,21.5,5
				c-1.1-0.1-2.3-0.3-3-0.6L18.5,2.9z"/>
			<path fill="#D39D63" d="M22.1,49.4h-2.7c-0.1-1.8-0.5-3.5-0.9-7.3c-0.4-3.8-0.2-5.6,0-6.3c0.2-0.8,0.9-7.7-0.3-12
				c-0.1-0.4-0.2-0.9-0.3-1.5v-0.2h5.6c-0.4,3-0.7,5.8-0.6,6.6c0.2,2.1,0.3,4.1,0,6c-0.3,2-0.2,6.2-0.3,8.4
				C22.5,45.4,22.1,49.4,22.1,49.4z"/>
			<path fill="#D39D63" d="M26.4,22.1h5.7c-0.1,0.8-0.2,1.3-0.3,1.8c-1.2,4.3-0.5,11.2-0.3,11.9c0.2,0.8,0.4,2.5,0,6.3
				c-0.4,3.8-0.8,5.5-0.9,7.3h-2.7c0,0-0.4-4-0.5-6.2c-0.1-2.2,0-6.4-0.3-8.4c-0.3-2-0.2-3.9,0-6C27.1,28,26.8,25.1,26.4,22.1
				L26.4,22.1z"/>
			<path fill="#FFFFFF" d="M29.1,7.1l-0.5-2l0-0.1c1.1-0.1,2.3-0.3,3.1-0.6c0,0,0.2,1.6,0.4,3.9h0C31.6,7.1,29.1,7.1,29.1,7.1z"/>
			<path fill="#FFFFFF" d="M21,7.1c0,0-2.4,0-2.9,1.1c0.2-2.3,0.4-3.8,0.4-3.8c0.7,0.3,1.9,0.5,3,0.6l0,0.1L21,7.1z"/>
			<path fill="#FFFFFF" d="M23.8,22.1h-0.3h-5.6h-0.3c0-0.3-0.1-0.7-0.1-1.1H24C23.9,21.4,23.9,21.8,23.8,22.1z"/>
			<path fill="#D39D63" d="M31.5,2.9c-8.1,1.1-13,0-13,0V2.6l0.1-2h12.8l0.1,2V2.9z"/>
			<path fill="#FFFFFF" d="M26.1,22.1c0-0.4-0.1-0.7-0.2-1.1h6.5h0c0,0.4-0.1,0.7-0.1,1.1h-0.3h-5.7H26.1z"/>
			<path fill="#FFFFFF" d="M24,21h-6.5c-0.2-3.8,0.2-9.2,0.5-12.8C18.5,7.1,21,7.1,21,7.1l0.5-2l0-0.1C23.2,5.1,25,5.1,25,5.1
				s1.8,0.1,3.6-0.1l0,0.1l0.5,2c0,0,2.5,0,2.9,1.2h0c0.3,3.6,0.6,9,0.5,12.8h0H26c-0.5-3.3-1-6.2-1-6.2S24.5,17.7,24,21z"/>
		</g>
		<g>
			<path fill="none" stroke="#010101" stroke-width="0.25" stroke-linecap="round" stroke-linejoin="round" d="M26.1,22.1
				c0-0.4-0.1-0.7-0.2-1.1c-0.5-3.3-1-6.2-1-6.2"/>
			<path fill="none" stroke="#010101" stroke-width="0.25" stroke-linecap="round" stroke-linejoin="round" d="M25,5.1
				c0,0,1.8,0.1,3.6-0.1c1.1-0.1,2.3-0.3,3.1-0.6c0,0,0.2,1.6,0.4,3.9c0.3,3.6,0.6,9,0.5,12.8c0,0.4-0.1,0.7-0.1,1.1"/>
			<path fill="none" stroke="#010101" stroke-width="0.25" stroke-linecap="round" stroke-linejoin="round" d="M28.6,5.1l0.5,2
				c0,0,2.5,0,2.9,1.2"/>
			<path fill="none" stroke="#010101" stroke-width="0.25" stroke-linecap="round" stroke-linejoin="round" d="M23.8,22.1
				c0-0.4,0.1-0.7,0.2-1.1c0.5-3.3,1-6.2,1-6.2"/>
			<path fill="none" stroke="#010101" stroke-width="0.25" stroke-linecap="round" stroke-linejoin="round" d="M25,5.1
				c0,0-1.8,0.1-3.5-0.1c-1.1-0.1-2.3-0.3-3-0.6c0,0-0.2,1.5-0.4,3.8c-0.3,3.6-0.7,9.1-0.5,12.8c0,0.4,0,0.7,0.1,1.1"/>
			<path fill="none" stroke="#010101" stroke-width="0.25" stroke-linecap="round" stroke-linejoin="round" d="M21.4,5.1l-0.5,2
				c0,0-2.4,0-2.9,1.1c0,0,0,0.1,0,0.1"/>
			<polyline fill="none" stroke="#010101" stroke-width="0.25" stroke-linecap="round" stroke-linejoin="round" points="25,8.3 
				25,14.9 25,14.9 			"/>
			<path fill="none" stroke="#010101" stroke-width="0.25" stroke-linecap="round" stroke-linejoin="round" d="M18.4,4.4l0.1-1.5
				c0,0,4.9,1.1,13,0l0.1,1.5"/>
			<polyline fill="none" stroke="#000000" stroke-width="0.25" stroke-linecap="round" stroke-linejoin="round" points="17.6,22.1 
				17.9,22.1 23.5,22.1 23.8,22.1 			"/>
			<polyline fill="none" stroke="#000000" stroke-width="0.25" stroke-linecap="round" stroke-linejoin="round" points="26.1,22.1 
				26.4,22.1 32.1,22.1 32.4,22.1 			"/>
			<polyline fill="none" stroke="#000000" stroke-width="0.25" stroke-linecap="round" stroke-linejoin="round" points="17.5,21 
				17.5,21 24,21 			"/>
			
				<line fill="none" stroke="#000000" stroke-width="0.25" stroke-linecap="round" stroke-linejoin="round" x1="26" y1="21" x2="32.5" y2="21"/>
		</g>
	</g>
</g>
<g id="Tapered__x2F__Slim" display="none">
	<g id="XMLID_17_" display="inline">
		<g>
			<path fill="#D39D63" d="M18.6,0.6h12.8l0.1,2v0.4c-8.1,1.1-13,0-13,0V2.6L18.6,0.6z"/>
			<path fill="#D39D63" d="M19.3,48.5h2.9v1h-2.9v-1.1h0C19.3,48.4,19.3,48.4,19.3,48.5z"/>
			<path fill="#D39D63" d="M27.8,48.5h2.9v1h-2.9v-1.1h0C27.8,48.4,27.8,48.5,27.8,48.5z"/>
		</g>
		<g>
			<path fill="none" stroke="#010101" stroke-width="0.25" stroke-linecap="round" stroke-linejoin="round" d="M23.2,27.1
				c0.4-4.1,1.8-12.3,1.8-12.3"/>
			<path fill="none" stroke="#010101" stroke-width="0.25" stroke-linecap="round" stroke-linejoin="round" d="M17.6,22
				c0,0.9,0.5,18.1,0.7,19.6c0.5,3.5,0.8,5,1,6.7c0,0,0,0.1,0,0.2h2.9c0,0,0.4-3.8,0.5-5.8c0.1-0.9,0.4-14.2,0.4-15.5"/>
			<path fill="none" stroke="#010101" stroke-width="0.25" stroke-linecap="round" stroke-linejoin="round" d="M18.4,4.4
				c0,0-1.3,11.7-0.9,17.6"/>
			<path fill="none" stroke="#000000" stroke-width="0.25" stroke-linecap="round" stroke-linejoin="round" d="M25,5.1
				c0,0-4.6,0.2-6.5-0.7"/>
			<polyline fill="none" stroke="#010101" stroke-width="0.25" stroke-linecap="round" stroke-linejoin="round" points="25,8.3 
				25,14.9 25,14.9 			"/>
			<path fill="none" stroke="#010101" stroke-width="0.25" stroke-linecap="round" stroke-linejoin="round" d="M31.6,4.4l-0.1-1.5
				c-8.1,1.1-13,0-13,0l-0.1,1.5"/>
			<path fill="none" stroke="#000000" stroke-width="0.25" stroke-linecap="round" stroke-linejoin="round" d="M26.8,27.1
				C26.4,23.1,25,14.9,25,14.9"/>
			<path fill="none" stroke="#000000" stroke-width="0.25" stroke-linecap="round" stroke-linejoin="round" d="M32.4,22
				c0,0.9-0.5,18.1-0.7,19.6c-0.5,3.6-0.9,5.1-1,6.8h0h-2.9c0,0,0-0.1,0-0.2c-0.1-0.7-0.4-3.9-0.5-5.7c-0.1-0.9-0.4-14.2-0.4-15.5"
				/>
			<path fill="none" stroke="#000000" stroke-width="0.25" stroke-linecap="round" stroke-linejoin="round" d="M25,5.1
				c0,0,4.6,0.2,6.5-0.7c0,0,1.3,11.7,0.9,17.6"/>
		</g>
	</g>
</g>
<g id="Slit_Skirt" display="none">
	<g id="XMLID_18_" display="inline">
		<g>
			<path fill="#D39D63" d="M26.5,37.7l-0.2-7.8v-0.1c0.7,0,1.4,0,2-0.1L29.5,18l0.8,11.4c-0.1,1-0.7,6-0.1,8
				c0.7,2.3-0.8,11.9-0.8,11.9h-2.3C27.1,49.3,26.5,40.1,26.5,37.7z"/>
			<path fill="#FFFFFF" d="M31,2.1c-0.8,0.5-11.9,0-11.9,0c0.2-0.9,0.4-1.3,0.4-1.3h11.1C30.8,1.2,30.9,1.6,31,2.1z"/>
			<path fill="#FFFFFF" d="M19.7,29.1c-0.6-0.1-1-0.2-1-0.2s0.4-2.9-0.5-12.4c-0.6-6.9,0.3-12.1,0.9-14.5c0,0,11.1,0.5,11.9,0
				c2.4,8.7-0.3,18,0.4,26.9l-1.1,0.8l0-0.3L29.5,18l-1.1,11.7c-0.6,0.1-1.3,0.1-2,0.1c-0.9,0-1.8-0.1-2.6-0.1
				C22.1,29.6,20.6,29.3,19.7,29.1z"/>
			<path fill="#D39D63" d="M19.9,37.2c0.7-2.3-0.2-8.1-0.2-8.1c0.9,0.2,2.4,0.4,4.1,0.6l-0.2,7.8c0,2.3-0.5,11.6-0.5,11.6h-2.3
				C20.8,49,19.3,39.5,19.9,37.2z"/>
		</g>
		<g>
			<line fill="none" stroke="#000000" stroke-width="0.25" stroke-miterlimit="10" x1="19.5" y1="0.7" x2="30.6" y2="0.7"/>
			<path fill="none" stroke="#000000" stroke-width="0.25" stroke-miterlimit="10" d="M19.5,0.7c0,0-0.2,0.5-0.4,1.3
				c-0.6,2.3-1.5,7.6-0.9,14.5c0.9,9.5,0.5,12.4,0.5,12.4s0.4,0.1,1,0.2c0.9,0.2,2.4,0.4,4.1,0.6c0.9,0.1,1.8,0.1,2.6,0.1
				c0.7,0,1.4,0,2-0.1"/>
			<polyline fill="none" stroke="#000000" stroke-width="0.25" stroke-miterlimit="10" points="28.4,29.7 29.5,18 30.3,29.4 
				30.3,29.7 			"/>
			<path fill="none" stroke="#000000" stroke-width="0.25" stroke-miterlimit="10" d="M30.6,0.7c0.2,0.4,0.3,0.9,0.4,1.3
				c2.4,8.7-0.3,18,0.4,26.9"/>
			<line fill="none" stroke="#000000" stroke-width="0.25" stroke-miterlimit="10" x1="30.3" y1="29.7" x2="31.4" y2="28.9"/>
			<path fill="none" stroke="#000000" stroke-width="0.25" stroke-miterlimit="10" d="M19.1,2.1c0,0,11.1,0.5,11.9,0"/>
		</g>
	</g>
</g>
<g id="Mermaid_skirt" display="none">
	<g id="XMLID_19_" display="inline">
		<g>
			<path fill="#FFFFFF" d="M31,2.7c0.1,2.7,0,7.9-1.6,11.7c-2.3,5.4,2.9,12,2.9,12l12.1,17.3c-0.5,2.2-11.3,2.6-11.3,2.6
				s-2.7,3.2-8.6,2.9s-10.9-3-10.9-3c-4.5-0.7-8.2-2.9-8.2-2.9l12.4-20.9c0,0,3-3.5,0.6-10.7C17,7,17.1,3.8,17.4,2.1
				c0.2-0.9,0.3-1.3,0.3-1.3h13.1C30.9,0.8,31,1.5,31,2.7z"/>
		</g>
		<g>
			<path fill="none" stroke="#000000" stroke-width="0.25" stroke-miterlimit="10" d="M13.7,46.2c0,0,5,2.7,10.9,3s8.6-2.9,8.6-2.9
				S25,30.8,25.6,26.8"/>
			<path fill="none" stroke="#000000" stroke-width="0.25" stroke-miterlimit="10" d="M33.2,46.3c0,0,10.8-0.4,11.3-2.6"/>
			<path fill="none" stroke="#000000" stroke-width="0.25" stroke-miterlimit="10" d="M18.2,34.7c0,0,1.3,4.7,0,7.4
				s-3.8,4.3-4.4,4.2c-4.5-0.7-8.2-2.9-8.2-2.9l12.4-20.9c0,0,3-3.5,0.6-10.7C17,7,17.1,3.8,17.4,2.1c0.2-0.9,0.3-1.3,0.3-1.3h13.1
				c0,0,0.1,0.7,0.1,1.9c0.1,2.7,0,7.9-1.6,11.7c-2.3,5.4,2.9,12,2.9,12l12.1,17.3"/>
		</g>
	</g>
</g>
<g id="Empire">
	<g id="XMLID_23_">
		<g>
			<path fill="#FFFFFF" d="M17.2,37.8l-3.9-13.9l-0.1-0.2c2.9-4.2,1.3-11.4,1.3-11.4l0.1,0c1.2-0.4,2.5-0.9,3.7-1.6l0.1,0
				c0,0,1.4,5.6,6.6,5.6c5.2,0,6.8-5.5,6.8-5.5l0.1,0c1.2,0.7,2.5,1.2,3.7,1.6c0,0-1.7,7.2,1.3,11.4l0,0.1l-3.9,14.3h0
				c-0.2,0.8-0.7,4.1,1.6,7H25h-9.4c2.4-2.9,1.8-6.5,1.6-7.2C17.2,37.8,17.2,37.8,17.2,37.8z"/>
			<path fill="#D39D63" d="M41,16.5c0.4,4.5,2.8,28.6,2.8,28.6h-3.4l-3.7-21.3l0-0.1c-2.9-4.2-1.3-11.4-1.3-11.4
				c1.7,0.5,3.1,0.7,3.1,0.8C40.6,14.3,41,16.5,41,16.5z"/>
			<path fill="#D39D63" d="M31.7,10.7c0,0-1.5,5.5-6.8,5.5c-5.2,0-6.6-5.6-6.6-5.6c1.1-0.7,2-1.5,2.6-2.6c0.2-0.2,0.2-3.1,0.2-3.1
				H25h3.8c0,0,0,2.9,0.2,3.1C29.6,9.1,30.6,10,31.7,10.7z"/>
			<path fill="#D39D63" d="M13.3,23.9L9.6,45.1H6.2c0,0,2.4-24.1,2.8-28.6c0,0,0.3-2.2,2.4-3.4c0-0.1,1.3-0.3,3-0.8
				c0,0,1.7,7.2-1.3,11.4L13.3,23.9z"/>
		</g>
		<g>
			<path fill="none" stroke="#000000" stroke-width="0.25" stroke-miterlimit="10" d="M25,16.2c-5.2,0-6.6-5.6-6.6-5.6l-0.1,0
				l-3.7,1.6l-0.1,0c0,0,1.7,7.2-1.3,11.4l0.1,0.2l3.9,13.9"/>
			<path fill="none" stroke="#000000" stroke-width="0.25" stroke-miterlimit="10" d="M31.8,10.7l3.7,1.6c0,0-1.7,7.2,1.3,11.4
				l0,0.1l-3.9,14.3"/>
			<path fill="none" stroke="#000000" stroke-width="0.25" stroke-miterlimit="10" d="M25,16.2c5.2,0,6.8-5.5,6.8-5.5"/>
			<path fill="none" stroke="#000000" stroke-width="0.25" stroke-miterlimit="10" d="M17.2,37.8c0,0,0,0,0,0.1
				c0.2,0.7,0.8,4.3-1.6,7.2H25"/>
			<path fill="none" stroke="#000000" stroke-width="0.25" stroke-miterlimit="10" d="M32.8,38c0,0,0,0.1,0,0.2
				c-0.2,0.8-0.7,4.1,1.6,7H25"/>
		</g>
	</g>
</g>
<g id="Crop" display="none">
	<g id="XMLID_22_" display="inline">
		<g>
			<path fill="#D39D63" d="M25,44.9h-9.4c2.5-2.9,1.8-6.6,1.6-7.2L32.7,38c-0.2,0.8-0.7,4.1,1.6,7L25,44.9z"/>
			<path fill="#D39D63" d="M25,16c-5.2,0-6.6-5.6-6.6-5.6c1.1-0.7,2-1.5,2.6-2.6c0.2-0.2,0.2-3.1,0.2-3.1H25h3.8c0,0,0,2.9,0.2,3.1
				c0.6,1.2,1.6,2,2.7,2.7C31.7,10.5,30.2,16,25,16z"/>
			<path fill="#D39D63" d="M14.5,12.1c0,0,1.7,7.2-1.3,11.4l0.1,0.2L9.6,44.9H6.2c0,0,2.4-24.1,2.8-28.6c0,0,0.3-2.2,2.4-3.4
				C11.4,12.7,12.8,12.6,14.5,12.1z"/>
			<path fill="#D39D63" d="M38.5,12.9c2.1,1.2,2.4,3.4,2.4,3.4c0.4,4.5,2.8,28.6,2.8,28.6h-3.5l-3.7-21.3l0-0.1
				c-2.9-4.2-1.3-11.4-1.3-11.4C37.2,12.6,38.5,12.7,38.5,12.9z"/>
			<path fill="#FFFFFF" d="M13.3,23.6l-0.1-0.2c2.9-4.2,1.3-11.4,1.3-11.4c1.2-0.4,2.6-0.9,3.8-1.6l0.1,0c0,0,1.4,5.6,6.6,5.6
				c5.2,0,6.8-5.5,6.8-5.5l0.1,0c1.2,0.7,2.5,1.2,3.7,1.6c0,0-1.7,7.2,1.3,11.4l0,0.1L32.8,38h0l-15.5-0.3c0-0.1,0-0.1,0-0.1
				L13.3,23.6z"/>
		</g>
		<g>
			<path fill="none" stroke="#000000" stroke-width="0.25" stroke-miterlimit="10" d="M25,16c-5.2,0-6.6-5.6-6.6-5.6l-0.1,0
				l-3.8,1.6c0,0,1.7,7.2-1.3,11.4l0.1,0.2l3.9,13.9"/>
			<polyline fill="none" stroke="#000000" stroke-width="0.25" stroke-miterlimit="10" points="32.8,38 32.7,38 17.2,37.7 			"/>
			<path fill="none" stroke="#000000" stroke-width="0.25" stroke-miterlimit="10" d="M31.8,10.5l3.7,1.6c0,0-1.7,7.2,1.3,11.4
				l0,0.1L32.8,38"/>
			<path fill="none" stroke="#000000" stroke-width="0.25" stroke-miterlimit="10" d="M25,16c5.2,0,6.8-5.5,6.8-5.5"/>
			<path fill="none" stroke="#000000" stroke-width="0.25" stroke-miterlimit="10" d="M17.2,37.6c0,0,0,0,0,0.1"/>
		</g>
	</g>
</g>
</svg>
