<?xml version="1.0" encoding="utf-8"?>
<!-- Generator: Adobe Illustrator 18.0.0, SVG Export Plug-In . SVG Version: 6.00 Build 0)  -->
<!DOCTYPE svg PUBLIC "-//W3C//DTD SVG 1.1//EN" "http://www.w3.org/Graphics/SVG/1.1/DTD/svg11.dtd">
<svg version="1.1" xmlns="http://www.w3.org/2000/svg" xmlns:xlink="http://www.w3.org/1999/xlink" x="0px" y="0px"
	 viewBox="0 0 50 50" enable-background="new 0 0 50 50" xml:space="preserve">
<g id="Layer_1" display="none">
	<g id="XMLID_2_" display="inline">
		<g>
			<path fill="#FFFFFF" d="M26.5,24.6c3.5-1.8,4.6-11.3,4.8-12.5c0-0.1,0-0.1,0-0.1l6.1,2.8c0,0,4,0.9,4.3,6.1
				c0.3,5.2,1.5,23.9,1.5,23.9h-3.4l-2.1-17.1L33,44.8c-2.9,0-4.9,0-7.8,0s-4.9,0-7.8,0l-4.6-17.1l-2.1,17.1H7.3
				c0,0,1.1-18.7,1.5-23.9c0.3-5.2,4.3-6.1,4.3-6.1l6.1-2.8c0,0,1,10.7,4.8,12.6c0,0,0,0,0.1,0c0.4,0.1,0.8,0.3,1.2,0.3
				C25.7,24.9,26.1,24.8,26.5,24.6C26.5,24.6,26.5,24.6,26.5,24.6z"/>
			<path fill="#F4DDC1" d="M31.3,12.1c-0.1,1.2-1.2,10.7-4.8,12.5c0,0,0,0-0.1,0c-0.4,0.1-0.8,0.3-1.2,0.3c-0.4-0.1-0.8-0.2-1.2-0.3
				c0,0,0,0-0.1,0C20.2,22.7,19.2,12,19.2,12s3-1.4,3-3.7s0-3.1,0-3.1h6v2.4C28.3,7.6,28.5,12.1,31.3,12.1z"/>
		</g>
		<g>
			<path fill="none" stroke="#000000" stroke-width="0.25" stroke-linecap="round" stroke-linejoin="round" d="M24,24.6
				c-3.3-1.2-5.4-5.3-6.1-8.4"/>
			<path fill="none" stroke="#000000" stroke-width="0.25" stroke-linecap="round" stroke-linejoin="round" d="M25.3,25
				c-0.4-0.1-0.8-0.2-1.2-0.3"/>
			<path fill="none" stroke="#000000" stroke-width="0.25" stroke-linecap="round" stroke-linejoin="round" d="M24,24.6
				C24,24.6,24,24.6,24,24.6C20.2,22.7,19.2,12,19.2,12l-6.1,2.8c0,0-4,0.9-4.3,6.1c-0.3,5.2-1.5,23.9-1.5,23.9h3.4l2.1-17.1
				l4.6,17.1"/>
			<path fill="none" stroke="#000000" stroke-width="0.25" stroke-linecap="round" stroke-linejoin="round" d="M16,15.6
				c1.3,4,3.9,12.8,9.3,13.3"/>
			<path fill="none" stroke="#000000" stroke-width="0.25" stroke-linecap="round" stroke-linejoin="round" d="M26.5,24.6
				c3.3-1.2,5.4-5.3,6.1-8.4"/>
			<path fill="none" stroke="#000000" stroke-width="0.25" stroke-linecap="round" stroke-linejoin="round" d="M25.3,25
				c0.4-0.1,0.8-0.2,1.2-0.3"/>
			<path fill="none" stroke="#000000" stroke-width="0.25" stroke-linecap="round" stroke-linejoin="round" d="M26.5,24.6
				C26.5,24.6,26.5,24.6,26.5,24.6c3.6-1.8,4.7-11.4,4.8-12.5c0-0.1,0-0.1,0-0.1l6.1,2.8c0,0,4,0.9,4.3,6.1
				c0.3,5.2,1.5,23.9,1.5,23.9h-3.4l-2.1-17.1L33,44.8"/>
			<path fill="none" stroke="#000000" stroke-width="0.25" stroke-linecap="round" stroke-linejoin="round" d="M34.6,15.6
				c-1.3,4-3.9,12.8-9.3,13.3"/>
			<path fill="none" stroke="#000000" stroke-width="0.25" stroke-linecap="round" stroke-linejoin="round" d="M33.9,22.5
				c0,0-3.3,10-10.4,9.2"/>
			<path fill="none" stroke="#000000" stroke-width="0.25" stroke-linecap="round" stroke-linejoin="round" d="M23.4,31.7
				c-0.1-0.1-4.1,0.1-5.5-5.5"/>
		</g>
	</g>
</g>
<g id="Layer_3" display="none">
	<g id="XMLID_3_" display="inline">
		<g>
			<path fill="#FFFFFF" d="M26.5,24.6c3.5-1.8,4.6-11.3,4.8-12.5c0-0.1,0-0.1,0-0.1l6.1,2.8c0,0,4,0.9,4.3,6.1
				c0.3,5.2,1.5,23.9,1.5,23.9h-3.4l-2.1-17.1L33,44.8c-2.9,0-4.9,0-7.8,0s-4.9,0-7.8,0l-4.6-17.1l-2.1,17.1H7.3
				c0,0,1.1-18.7,1.5-23.9c0.3-5.2,4.3-6.1,4.3-6.1l6.1-2.8c0,0,1,10.7,4.8,12.6c0,0,0,0,0.1,0c0.4,0.1,0.8,0.3,1.2,0.3
				C25.7,24.9,26.1,24.8,26.5,24.6C26.5,24.6,26.5,24.6,26.5,24.6z"/>
			<path fill="#D39D63" d="M31.3,12.1c-0.1,1.2-1.2,10.7-4.8,12.5c0,0,0,0-0.1,0c-0.4,0.1-0.8,0.3-1.2,0.3c-0.4-0.1-0.8-0.2-1.2-0.3
				c0,0,0,0-0.1,0C20.2,22.7,19.2,12,19.2,12s3-1.4,3-3.7s0-3.1,0-3.1h6v2.4C28.3,7.6,28.5,12.1,31.3,12.1z"/>
		</g>
		<g>
			<path fill="none" stroke="#000000" stroke-width="0.25" stroke-linecap="round" stroke-linejoin="round" d="M24,24.6
				c-3.3-1.2-5.4-5.3-6.1-8.4"/>
			<path fill="none" stroke="#000000" stroke-width="0.25" stroke-linecap="round" stroke-linejoin="round" d="M25.3,25
				c-0.4-0.1-0.8-0.2-1.2-0.3"/>
			<path fill="none" stroke="#000000" stroke-width="0.25" stroke-linecap="round" stroke-linejoin="round" d="M24,24.6
				C24,24.6,24,24.6,24,24.6C20.2,22.7,19.2,12,19.2,12l-6.1,2.8c0,0-4,0.9-4.3,6.1c-0.3,5.2-1.5,23.9-1.5,23.9h3.4l2.1-17.1
				l4.6,17.1"/>
			<path fill="none" stroke="#000000" stroke-width="0.25" stroke-linecap="round" stroke-linejoin="round" d="M16,15.6
				c1.3,4,3.9,12.8,9.3,13.3"/>
			<path fill="none" stroke="#000000" stroke-width="0.25" stroke-linecap="round" stroke-linejoin="round" d="M26.5,24.6
				c3.3-1.2,5.4-5.3,6.1-8.4"/>
			<path fill="none" stroke="#000000" stroke-width="0.25" stroke-linecap="round" stroke-linejoin="round" d="M25.3,25
				c0.4-0.1,0.8-0.2,1.2-0.3"/>
			<path fill="none" stroke="#000000" stroke-width="0.25" stroke-linecap="round" stroke-linejoin="round" d="M26.5,24.6
				C26.5,24.6,26.5,24.6,26.5,24.6c3.6-1.8,4.7-11.4,4.8-12.5c0-0.1,0-0.1,0-0.1l6.1,2.8c0,0,4,0.9,4.3,6.1
				c0.3,5.2,1.5,23.9,1.5,23.9h-3.4l-2.1-17.1L33,44.8"/>
			<path fill="none" stroke="#000000" stroke-width="0.25" stroke-linecap="round" stroke-linejoin="round" d="M34.6,15.6
				c-1.3,4-3.9,12.8-9.3,13.3"/>
			<path fill="none" stroke="#000000" stroke-width="0.25" stroke-linecap="round" stroke-linejoin="round" d="M33.9,22.5
				c0,0-3.3,10-10.4,9.2"/>
			<path fill="none" stroke="#000000" stroke-width="0.25" stroke-linecap="round" stroke-linejoin="round" d="M23.4,31.7
				c-0.1-0.1-4.1,0.1-5.5-5.5"/>
		</g>
	</g>
</g>
<g id="Layer_4" display="none">
	<g id="XMLID_4_" display="inline">
		<g>
			<path fill="#FFFFFF" d="M26.5,24.6c3.5-1.8,4.6-11.3,4.8-12.5c0-0.1,0-0.1,0-0.1l6.1,2.8c0,0,4,0.9,4.3,6.1
				c0.3,5.2,1.5,23.9,1.5,23.9h-3.4l-2.1-17.1L33,44.8c-2.9,0-4.9,0-7.8,0s-4.9,0-7.8,0l-4.6-17.1l-2.1,17.1H7.3
				c0,0,1.1-18.7,1.5-23.9c0.3-5.2,4.3-6.1,4.3-6.1l6.1-2.8c0,0,1,10.7,4.8,12.6c0,0,0,0,0.1,0c0.4,0.1,0.8,0.3,1.2,0.3
				C25.7,24.9,26.1,24.8,26.5,24.6C26.5,24.6,26.5,24.6,26.5,24.6z"/>
			<path fill="#AA6F3F" d="M31.3,12.1c-0.1,1.2-1.2,10.7-4.8,12.5c0,0,0,0-0.1,0c-0.4,0.1-0.8,0.3-1.2,0.3c-0.4-0.1-0.8-0.2-1.2-0.3
				c0,0,0,0-0.1,0C20.2,22.7,19.2,12,19.2,12s3-1.4,3-3.7s0-3.1,0-3.1h6v2.4C28.3,7.6,28.5,12.1,31.3,12.1z"/>
		</g>
		<g>
			<path fill="none" stroke="#000000" stroke-width="0.25" stroke-linecap="round" stroke-linejoin="round" d="M24,24.6
				c-3.3-1.2-5.4-5.3-6.1-8.4"/>
			<path fill="none" stroke="#000000" stroke-width="0.25" stroke-linecap="round" stroke-linejoin="round" d="M25.3,25
				c-0.4-0.1-0.8-0.2-1.2-0.3"/>
			<path fill="none" stroke="#000000" stroke-width="0.25" stroke-linecap="round" stroke-linejoin="round" d="M24,24.6
				C24,24.6,24,24.6,24,24.6C20.2,22.7,19.2,12,19.2,12l-6.1,2.8c0,0-4,0.9-4.3,6.1c-0.3,5.2-1.5,23.9-1.5,23.9h3.4l2.1-17.1
				l4.6,17.1"/>
			<path fill="none" stroke="#000000" stroke-width="0.25" stroke-linecap="round" stroke-linejoin="round" d="M16,15.6
				c1.3,4,3.9,12.8,9.3,13.3"/>
			<path fill="none" stroke="#000000" stroke-width="0.25" stroke-linecap="round" stroke-linejoin="round" d="M26.5,24.6
				c3.3-1.2,5.4-5.3,6.1-8.4"/>
			<path fill="none" stroke="#000000" stroke-width="0.25" stroke-linecap="round" stroke-linejoin="round" d="M25.3,25
				c0.4-0.1,0.8-0.2,1.2-0.3"/>
			<path fill="none" stroke="#000000" stroke-width="0.25" stroke-linecap="round" stroke-linejoin="round" d="M26.5,24.6
				C26.5,24.6,26.5,24.6,26.5,24.6c3.6-1.8,4.7-11.4,4.8-12.5c0-0.1,0-0.1,0-0.1l6.1,2.8c0,0,4,0.9,4.3,6.1
				c0.3,5.2,1.5,23.9,1.5,23.9h-3.4l-2.1-17.1L33,44.8"/>
			<path fill="none" stroke="#000000" stroke-width="0.25" stroke-linecap="round" stroke-linejoin="round" d="M34.6,15.6
				c-1.3,4-3.9,12.8-9.3,13.3"/>
			<path fill="none" stroke="#000000" stroke-width="0.25" stroke-linecap="round" stroke-linejoin="round" d="M33.9,22.5
				c0,0-3.3,10-10.4,9.2"/>
			<path fill="none" stroke="#000000" stroke-width="0.25" stroke-linecap="round" stroke-linejoin="round" d="M23.4,31.7
				c-0.1-0.1-4.1,0.1-5.5-5.5"/>
		</g>
	</g>
</g>
<g id="Layer_5" display="none">
	<g id="XMLID_5_" display="inline">
		<g>
			<path fill="#FFFFFF" d="M26.5,24.6c3.5-1.8,4.6-11.3,4.8-12.5c0-0.1,0-0.1,0-0.1l6.1,2.8c0,0,4,0.9,4.3,6.1
				c0.3,5.2,1.5,23.9,1.5,23.9h-3.4l-2.1-17.1L33,44.8c-2.9,0-4.9,0-7.8,0s-4.9,0-7.8,0l-4.6-17.1l-2.1,17.1H7.3
				c0,0,1.1-18.7,1.5-23.9c0.3-5.2,4.3-6.1,4.3-6.1l6.1-2.8c0,0,1,10.7,4.8,12.6c0,0,0,0,0.1,0c0.4,0.1,0.8,0.3,1.2,0.3
				C25.7,24.9,26.1,24.8,26.5,24.6C26.5,24.6,26.5,24.6,26.5,24.6z"/>
			<path fill="#694A2F" d="M31.3,12.1c-0.1,1.2-1.2,10.7-4.8,12.5c0,0,0,0-0.1,0c-0.4,0.1-0.8,0.3-1.2,0.3c-0.4-0.1-0.8-0.2-1.2-0.3
				c0,0,0,0-0.1,0C20.2,22.7,19.2,12,19.2,12s3-1.4,3-3.7s0-3.1,0-3.1h6v2.4C28.3,7.6,28.5,12.1,31.3,12.1z"/>
		</g>
		<g>
			<path fill="none" stroke="#000000" stroke-width="0.25" stroke-linecap="round" stroke-linejoin="round" d="M24,24.6
				c-3.3-1.2-5.4-5.3-6.1-8.4"/>
			<path fill="none" stroke="#000000" stroke-width="0.25" stroke-linecap="round" stroke-linejoin="round" d="M25.3,25
				c-0.4-0.1-0.8-0.2-1.2-0.3"/>
			<path fill="none" stroke="#000000" stroke-width="0.25" stroke-linecap="round" stroke-linejoin="round" d="M24,24.6
				C24,24.6,24,24.6,24,24.6C20.2,22.7,19.2,12,19.2,12l-6.1,2.8c0,0-4,0.9-4.3,6.1c-0.3,5.2-1.5,23.9-1.5,23.9h3.4l2.1-17.1
				l4.6,17.1"/>
			<path fill="none" stroke="#000000" stroke-width="0.25" stroke-linecap="round" stroke-linejoin="round" d="M16,15.6
				c1.3,4,3.9,12.8,9.3,13.3"/>
			<path fill="none" stroke="#000000" stroke-width="0.25" stroke-linecap="round" stroke-linejoin="round" d="M26.5,24.6
				c3.3-1.2,5.4-5.3,6.1-8.4"/>
			<path fill="none" stroke="#000000" stroke-width="0.25" stroke-linecap="round" stroke-linejoin="round" d="M25.3,25
				c0.4-0.1,0.8-0.2,1.2-0.3"/>
			<path fill="none" stroke="#000000" stroke-width="0.25" stroke-linecap="round" stroke-linejoin="round" d="M26.5,24.6
				C26.5,24.6,26.5,24.6,26.5,24.6c3.6-1.8,4.7-11.4,4.8-12.5c0-0.1,0-0.1,0-0.1l6.1,2.8c0,0,4,0.9,4.3,6.1
				c0.3,5.2,1.5,23.9,1.5,23.9h-3.4l-2.1-17.1L33,44.8"/>
			<path fill="none" stroke="#000000" stroke-width="0.25" stroke-linecap="round" stroke-linejoin="round" d="M34.6,15.6
				c-1.3,4-3.9,12.8-9.3,13.3"/>
			<path fill="none" stroke="#000000" stroke-width="0.25" stroke-linecap="round" stroke-linejoin="round" d="M33.9,22.5
				c0,0-3.3,10-10.4,9.2"/>
			<path fill="none" stroke="#000000" stroke-width="0.25" stroke-linecap="round" stroke-linejoin="round" d="M23.4,31.7
				c-0.1-0.1-4.1,0.1-5.5-5.5"/>
		</g>
	</g>
</g>
<g id="Layer_2" display="none">
	<g id="XMLID_1_" display="inline">
		<g>
			<path fill="#FFFFFF" d="M12.7,25.1c0,0,1.7-0.6,3.9-0.8c3-0.2,7,0.5,8.6,5.1c1.7-4.6,5.6-5.3,8.6-5.1c2.2,0.1,3.9,0.8,3.9,0.8
				l0.1,0l-0.3,1l-0.3,1.1l-4.5,17.6H17.4l-4.3-17.5l-0.3-1.1l-0.3-1L12.7,25.1z"/>
			<path fill="#F4DDC1" d="M37.9,25.1l2.3-9.4c0.2,0.1,0.9,0.5,1,2.3c0.1,2.1,2.5,26.9,2.5,26.9h-3.6l-2.7-17.7l0.3-1.1L37.9,25.1z"
				/>
			<path fill="#FFFFFF" d="M12.7,25.1l-0.1,0l-2.3-9.4l-0.1-0.2c4.2,0.7,10.7-6.6,11-7.1c0,0,0,0,0,0s-2,13.1-4.7,15.9
				C14.4,24.5,12.7,25.1,12.7,25.1z"/>
			<path fill="#FFFFFF" d="M40.2,15.7l-2.3,9.4l-0.1,0c0,0-1.7-0.6-3.9-0.8c-2.7-2.8-4.5-16-4.5-16s6.6,7.9,10.9,7.2L40.2,15.7z"/>
			<path fill="#F4DDC1" d="M6.8,44.9c0,0,2.4-24.8,2.5-26.9c0.1-1.8,0.8-2.2,1-2.3l2.3,9.4l0.3,1l0.3,1.1l-2.8,17.7H6.8z"/>
			<path fill="#F4DDC1" d="M29.1,5.1c0,0,0,2.9,0.2,3.1c0,0,1.9,13.2,4.5,16c-3-0.2-7,0.5-8.6,5.1c-1.7-4.6-5.6-5.3-8.6-5.1
				c2.7-2.8,4.7-15.9,4.7-15.9s0,0,0,0l-0.1-0.1c0.2-0.2,0.2-3.1,0.2-3.1h3.9H29.1z"/>
		</g>
		<g>
			<path fill="none" stroke="#000000" stroke-width="0.25" stroke-miterlimit="10" d="M21.3,8.4C21.3,8.4,21.3,8.4,21.3,8.4
				c-0.4,0.4-6.8,7.7-11.1,7.1l0.1,0.2l2.3,9.4l0.3,1l0.3,1.1l4.3,17.5"/>
			<path fill="none" stroke="#000000" stroke-width="0.25" stroke-miterlimit="10" d="M12.7,25.1c0,0,1.7-0.6,3.9-0.8
				c3-0.2,7,0.5,8.6,5.1"/>
			<path fill="none" stroke="#000000" stroke-width="0.25" stroke-miterlimit="10" d="M21.3,8.4c0,0-2,13.1-4.7,15.9"/>
			<path fill="none" stroke="#000000" stroke-width="0.25" stroke-miterlimit="10" d="M32.9,44.8l4.5-17.6l0.3-1.1l0.3-1l2.3-9.4
				l0.1-0.3c-4.4,0.7-10.9-7.2-10.9-7.2"/>
			<path fill="none" stroke="#000000" stroke-width="0.25" stroke-miterlimit="10" d="M37.8,25.1c0,0-1.7-0.6-3.9-0.8
				c-3-0.2-7,0.5-8.6,5.1"/>
			<path fill="none" stroke="#000000" stroke-width="0.25" stroke-miterlimit="10" d="M29.3,8.3c0,0,1.9,13.2,4.5,16"/>
		</g>
	</g>
</g>
<g id="Layer_6" display="none">
	<g id="XMLID_6_" display="inline">
		<g>
			<path fill="#D39D63" d="M43.7,44.9h-3.6l-2.7-17.7l0.3-1.1l0.3-1l2.3-9.4c0.2,0.1,0.9,0.5,1,2.3C41.3,20.1,43.7,44.9,43.7,44.9z"
				/>
			<path fill="#FFFFFF" d="M40.2,15.7l-2.3,9.4l-0.1,0c0,0-1.7-0.6-3.9-0.8c-2.7-2.8-4.5-16-4.5-16s6.6,7.9,10.9,7.2L40.2,15.7z"/>
			<path fill="#FFFFFF" d="M37.4,27.2l-4.5,17.6H17.4l-4.3-17.5l-0.3-1.1l-0.3-1l0.1,0c0,0,1.7-0.6,3.9-0.8c3-0.2,7,0.5,8.6,5.1
				c1.7-4.6,5.6-5.3,8.6-5.1c2.2,0.1,3.9,0.8,3.9,0.8l0.1,0l-0.3,1L37.4,27.2z"/>
			<path fill="#D39D63" d="M33.9,24.3c-3-0.2-7,0.5-8.6,5.1c-1.7-4.6-5.6-5.3-8.6-5.1c2.7-2.8,4.7-15.9,4.7-15.9s0,0,0,0l-0.1-0.1
				c0.2-0.2,0.2-3.1,0.2-3.1h3.9h3.9c0,0,0,2.9,0.2,3.1C29.3,8.3,31.2,21.5,33.9,24.3z"/>
			<path fill="#FFFFFF" d="M10.3,15.7l-0.1-0.2c4.2,0.7,10.7-6.6,11-7.1c0,0,0,0,0,0s-2,13.1-4.7,15.9c-2.2,0.1-3.9,0.8-3.9,0.8
				l-0.1,0L10.3,15.7z"/>
			<path fill="#D39D63" d="M12.9,26.2l0.3,1.1l-2.8,17.7H6.8c0,0,2.4-24.8,2.5-26.9c0.1-1.8,0.8-2.2,1-2.3l2.3,9.4L12.9,26.2z"/>
		</g>
		<g>
			<path fill="none" stroke="#000000" stroke-width="0.25" stroke-miterlimit="10" d="M21.3,8.4C21.3,8.4,21.3,8.4,21.3,8.4
				c-0.4,0.4-6.8,7.7-11.1,7.1l0.1,0.2l2.3,9.4l0.3,1l0.3,1.1l4.3,17.5"/>
			<path fill="none" stroke="#000000" stroke-width="0.25" stroke-miterlimit="10" d="M12.7,25.1c0,0,1.7-0.6,3.9-0.8
				c3-0.2,7,0.5,8.6,5.1"/>
			<path fill="none" stroke="#000000" stroke-width="0.25" stroke-miterlimit="10" d="M21.3,8.4c0,0-2,13.1-4.7,15.9"/>
			<path fill="none" stroke="#000000" stroke-width="0.25" stroke-miterlimit="10" d="M32.9,44.8l4.5-17.6l0.3-1.1l0.3-1l2.3-9.4
				l0.1-0.3c-4.4,0.7-10.9-7.2-10.9-7.2"/>
			<path fill="none" stroke="#000000" stroke-width="0.25" stroke-miterlimit="10" d="M37.8,25.1c0,0-1.7-0.6-3.9-0.8
				c-3-0.2-7,0.5-8.6,5.1"/>
			<path fill="none" stroke="#000000" stroke-width="0.25" stroke-miterlimit="10" d="M29.3,8.3c0,0,1.9,13.2,4.5,16"/>
		</g>
	</g>
</g>
<g id="Layer_7" display="none">
	<g id="XMLID_7_" display="inline">
		<g>
			<path fill="#AA6F3F" d="M43.7,44.9h-3.6l-2.7-17.7l0.3-1.1l0.3-1l2.3-9.4c0.2,0.1,0.9,0.5,1,2.3C41.3,20.1,43.7,44.9,43.7,44.9z"
				/>
			<path fill="#FFFFFF" d="M40.2,15.7l-2.3,9.4l-0.1,0c0,0-1.7-0.6-3.9-0.8c-2.7-2.8-4.5-16-4.5-16s6.6,7.9,10.9,7.2L40.2,15.7z"/>
			<path fill="#FFFFFF" d="M37.4,27.2l-4.5,17.6H17.4l-4.3-17.5l-0.3-1.1l-0.3-1l0.1,0c0,0,1.7-0.6,3.9-0.8c3-0.2,7,0.5,8.6,5.1
				c1.7-4.6,5.6-5.3,8.6-5.1c2.2,0.1,3.9,0.8,3.9,0.8l0.1,0l-0.3,1L37.4,27.2z"/>
			<path fill="#AA6F3F" d="M33.9,24.3c-3-0.2-7,0.5-8.6,5.1c-1.7-4.6-5.6-5.3-8.6-5.1c2.7-2.8,4.7-15.9,4.7-15.9s0,0,0,0l-0.1-0.1
				c0.2-0.2,0.2-3.1,0.2-3.1h3.9h3.9c0,0,0,2.9,0.2,3.1C29.3,8.3,31.2,21.5,33.9,24.3z"/>
			<path fill="#FFFFFF" d="M10.3,15.7l-0.1-0.2c4.2,0.7,10.7-6.6,11-7.1c0,0,0,0,0,0s-2,13.1-4.7,15.9c-2.2,0.1-3.9,0.8-3.9,0.8
				l-0.1,0L10.3,15.7z"/>
			<path fill="#AA6F3F" d="M12.9,26.2l0.3,1.1l-2.8,17.7H6.8c0,0,2.4-24.8,2.5-26.9c0.1-1.8,0.8-2.2,1-2.3l2.3,9.4L12.9,26.2z"/>
		</g>
		<g>
			<path fill="none" stroke="#000000" stroke-width="0.25" stroke-miterlimit="10" d="M21.3,8.4C21.3,8.4,21.3,8.4,21.3,8.4
				c-0.4,0.4-6.8,7.7-11.1,7.1l0.1,0.2l2.3,9.4l0.3,1l0.3,1.1l4.3,17.5"/>
			<path fill="none" stroke="#000000" stroke-width="0.25" stroke-miterlimit="10" d="M12.7,25.1c0,0,1.7-0.6,3.9-0.8
				c3-0.2,7,0.5,8.6,5.1"/>
			<path fill="none" stroke="#000000" stroke-width="0.25" stroke-miterlimit="10" d="M21.3,8.4c0,0-2,13.1-4.7,15.9"/>
			<path fill="none" stroke="#000000" stroke-width="0.25" stroke-miterlimit="10" d="M32.9,44.8l4.5-17.6l0.3-1.1l0.3-1l2.3-9.4
				l0.1-0.3c-4.4,0.7-10.9-7.2-10.9-7.2"/>
			<path fill="none" stroke="#000000" stroke-width="0.25" stroke-miterlimit="10" d="M37.8,25.1c0,0-1.7-0.6-3.9-0.8
				c-3-0.2-7,0.5-8.6,5.1"/>
			<path fill="none" stroke="#000000" stroke-width="0.25" stroke-miterlimit="10" d="M29.3,8.3c0,0,1.9,13.2,4.5,16"/>
		</g>
	</g>
</g>
<g id="Layer_8" display="none">
	<g id="XMLID_8_" display="inline">
		<g>
			<path fill="#694A2F" d="M43.7,44.9h-3.6l-2.7-17.7l0.3-1.1l0.3-1l2.3-9.4c0.2,0.1,0.9,0.5,1,2.3C41.3,20.1,43.7,44.9,43.7,44.9z"
				/>
			<path fill="#FFFFFF" d="M40.2,15.7l-2.3,9.4l-0.1,0c0,0-1.7-0.6-3.9-0.8c-2.7-2.8-4.5-16-4.5-16s6.6,7.9,10.9,7.2L40.2,15.7z"/>
			<path fill="#FFFFFF" d="M13.1,27.2l-0.3-1.1l-0.3-1l0.1,0c0,0,1.7-0.6,3.9-0.8c3-0.2,7,0.5,8.6,5.1c1.7-4.6,5.6-5.3,8.6-5.1
				c2.2,0.1,3.9,0.8,3.9,0.8l0.1,0l-0.3,1l-0.3,1.1l-4.5,17.6H17.4L13.1,27.2z"/>
			<path fill="#694A2F" d="M33.9,24.3c-3-0.2-7,0.5-8.6,5.1c-1.7-4.6-5.6-5.3-8.6-5.1c2.7-2.8,4.7-15.9,4.7-15.9s0,0,0,0l-0.1-0.1
				c0.2-0.2,0.2-3.1,0.2-3.1h3.9h3.9c0,0,0,2.9,0.2,3.1C29.3,8.3,31.2,21.5,33.9,24.3z"/>
			<path fill="#FFFFFF" d="M10.3,15.7l-0.1-0.2c4.2,0.7,10.7-6.6,11-7.1c0,0,0,0,0,0s-2,13.1-4.7,15.9c-2.2,0.1-3.9,0.8-3.9,0.8
				l-0.1,0L10.3,15.7z"/>
			<path fill="#694A2F" d="M12.9,26.2l0.3,1.1l-2.8,17.7H6.8c0,0,2.4-24.8,2.5-26.9c0.1-1.8,0.8-2.2,1-2.3l2.3,9.4L12.9,26.2z"/>
		</g>
		<g>
			<path fill="none" stroke="#000000" stroke-width="0.25" stroke-miterlimit="10" d="M21.3,8.4C21.3,8.4,21.3,8.4,21.3,8.4
				c-0.4,0.4-6.8,7.7-11.1,7.1l0.1,0.2l2.3,9.4l0.3,1l0.3,1.1l4.3,17.5"/>
			<path fill="none" stroke="#000000" stroke-width="0.25" stroke-miterlimit="10" d="M12.7,25.1c0,0,1.7-0.6,3.9-0.8
				c3-0.2,7,0.5,8.6,5.1"/>
			<path fill="none" stroke="#000000" stroke-width="0.25" stroke-miterlimit="10" d="M21.3,8.4c0,0-2,13.1-4.7,15.9"/>
			<path fill="none" stroke="#000000" stroke-width="0.25" stroke-miterlimit="10" d="M32.9,44.8l4.5-17.6l0.3-1.1l0.3-1l2.3-9.4
				l0.1-0.3c-4.4,0.7-10.9-7.2-10.9-7.2"/>
			<path fill="none" stroke="#000000" stroke-width="0.25" stroke-miterlimit="10" d="M37.8,25.1c0,0-1.7-0.6-3.9-0.8
				c-3-0.2-7,0.5-8.6,5.1"/>
			<path fill="none" stroke="#000000" stroke-width="0.25" stroke-miterlimit="10" d="M29.3,8.3c0,0,1.9,13.2,4.5,16"/>
		</g>
	</g>
</g>
<g id="Layer_9" display="none">
	<g id="XMLID_9_" display="inline">
		<g>
			<path fill="#FFFFFF" d="M13.5,26l-2.8,18.8H7.2c0,0,1.2-19.4,1.5-24.8c0.3-5.4,4.3-6.3,4.3-6.3l6.4-2.8c0,0,0.7,11,4.4,13.2
				c0.5,0.3,1.1,0.5,1.7,0.6c0.5-0.1,1-0.2,1.4-0.4c0,0,0,0,0,0c3.8-2.1,4.3-13.3,4.3-13.3l6.4,2.8c0,0,4,1,4.3,6.3
				c0.3,5.4,1.5,24.8,1.5,24.8h-3.5L37.1,26h0c-1.3,5.7-2.6,9.1-2.9,10.1c-0.3,1.2-0.4,6.7,1.1,8.4c-3.5,0-17.2,0-20,0
				c1.5-1.7,1.4-7.2,1.1-8.4C16.1,35,14.7,31.7,13.5,26L13.5,26z"/>
			<path fill="#D39D63" d="M31.2,10.9c0,0-0.5,11.2-4.3,13.3c0,0,0,0,0,0c-0.4,0.2-0.9,0.3-1.4,0.4c-0.6-0.1-1.2-0.3-1.7-0.6
				c-3.7-2.2-4.4-13.2-4.4-13.2s2.2-0.7,2.2-2.8c0-2.1,0-2.7,0-2.7h3.7h0.3h3.7c0,0,0,0.7,0,2.7C29.3,10.2,31.2,10.9,31.2,10.9z"/>
		</g>
		<g>
			<path fill="none" stroke="#000000" stroke-width="0.25" stroke-linecap="round" stroke-linejoin="round" d="M25.5,24.7
				c-0.6-0.1-1.2-0.3-1.7-0.6c-3.1-1.5-5.1-5.5-5.7-8.7"/>
			<path fill="none" stroke="#000000" stroke-width="0.25" stroke-linecap="round" stroke-linejoin="round" d="M16.1,14.8
				c1.3,4.2,3.9,13.5,9.4,14"/>
			<path fill="none" stroke="#000000" stroke-width="0.25" stroke-linecap="round" stroke-linejoin="round" d="M26.9,24.2
				c3.3-1.4,5.3-5.5,6-8.8"/>
			<path fill="none" stroke="#000000" stroke-width="0.25" stroke-linecap="round" stroke-linejoin="round" d="M25.5,24.7
				c0.5-0.1,1-0.2,1.4-0.4"/>
			<path fill="none" stroke="#000000" stroke-width="0.25" stroke-linecap="round" stroke-linejoin="round" d="M34.8,14.8
				c-1.3,4.2-3.9,13.5-9.4,14"/>
			<path fill="none" stroke="#000000" stroke-width="0.25" stroke-linecap="round" stroke-linejoin="round" d="M34.1,22.1
				c0,0-3.4,10.5-10.5,9.6"/>
			<path fill="none" stroke="#000000" stroke-width="0.25" stroke-linecap="round" stroke-linejoin="round" d="M23.6,31.7
				c-0.1-0.1-4.1,0.1-5.6-5.7"/>
			<path fill="none" stroke="#000000" stroke-width="0.25" stroke-linecap="round" stroke-linejoin="round" d="M24,24.2
				c-0.1,0-0.1-0.1-0.2-0.1c-3.7-2.2-4.4-13.2-4.4-13.2L13,13.7c0,0-4,1-4.3,6.3c-0.3,5.4-1.5,24.8-1.5,24.8h3.5L13.5,26l0-0.2"/>
			<path fill="none" stroke="#000000" stroke-width="0.25" stroke-linecap="round" stroke-linejoin="round" d="M15.3,44.5
				c1.5-1.7,1.4-7.2,1.1-8.4c-0.3-1.1-1.7-4.4-2.9-10.1"/>
			<path fill="none" stroke="#000000" stroke-width="0.25" stroke-linecap="round" stroke-linejoin="round" d="M26.8,24.3
				C26.8,24.3,26.9,24.3,26.8,24.3c0.1,0,0.1,0,0.1-0.1c3.8-2.1,4.3-13.3,4.3-13.3l6.4,2.8c0,0,4,1,4.3,6.3
				c0.3,5.4,1.5,24.8,1.5,24.8h-3.5L37.1,26l0-0.2"/>
			<path fill="none" stroke="#000000" stroke-width="0.25" stroke-linecap="round" stroke-linejoin="round" d="M35.3,44.5
				c-1.5-1.7-1.4-7.2-1.1-8.4c0.3-1.1,1.7-4.4,2.9-10.1"/>
		</g>
	</g>
</g>
<g id="Layer_10" display="none">
	<g id="XMLID_10_" display="inline">
		<g>
			<path fill="#D39D63" d="M37.7,24.2c1.2-5.4,1.5-8.8,1.5-9.9c1.8,1.3,2.1,3.4,2.1,3.4c0.4,4.7,2.5,27.2,2.5,27.2h-3.6l-2.9-19
				c0.1-0.3,0.1-0.6,0.2-0.9C37.6,24.6,37.6,24.4,37.7,24.2z"/>
			<path fill="#FFFFFF" d="M37.3,25.8c-1.5,6.4-2.5,8.2-2.8,9.3c-0.4,1.2-0.7,7.7,1,9.4H15.3l0,0c1.7-1.7,1.4-8.2,1-9.4
				c-0.3-1.1-1.3-2.9-2.8-9.3c-0.1-0.3-0.1-0.6-0.2-0.9c-0.1-0.2-0.1-0.4-0.1-0.7c0,0,2.2-0.8,4.8-0.7c2.7,0.1,5.9,1.3,7.4,5.5h0.3
				c1.5-4.2,4.7-5.4,7.4-5.5c2.6-0.1,4.8,0.7,4.8,0.7c0,0.2-0.1,0.4-0.1,0.7C37.5,25.2,37.4,25.5,37.3,25.8z"/>
			<path fill="#FFFFFF" d="M39.2,14.2c-0.1,1.1-0.3,4.5-1.5,9.9c0,0-2.2-0.8-4.8-0.7v-0.1c-2.6-2.8-3.5-14-3.6-14.9l0,0
				c0.3,3,9.9,5.5,9.9,5.5C39.2,14.1,39.2,14.1,39.2,14.2z"/>
			<path fill="#D39D63" d="M21.4,8.7C21.4,8.7,21.4,8.7,21.4,8.7L21.4,8.7c0.2-0.3,0.2-3.3,0.2-3.3h3.7h0.2h3.7c0,0,0,2.4,0.1,3.1
				c0.1,0.9,1,12.1,3.6,14.9v0.1c-2.7,0.1-5.9,1.3-7.4,5.5h-0.3c-1.5-4.2-4.7-5.4-7.4-5.5v-0.1C20.3,20.7,21.3,10.6,21.4,8.7z"/>
			<path fill="#FFFFFF" d="M11.5,14.2c0-0.1,0-0.2,0-0.2c0,0,9.1-2.4,9.9-5.3c-0.2,1.9-1.1,12-3.6,14.7v0.1
				c-2.6-0.1-4.8,0.7-4.8,0.7C11.9,18.7,11.6,15.3,11.5,14.2z"/>
			<path fill="#D39D63" d="M13.4,25.7l-2.9,19.1H6.9c0,0,2.1-22.4,2.5-27.2c0,0,0.3-2.1,2.1-3.4c0.1,1.1,0.3,4.5,1.5,9.9
				c0,0.2,0.1,0.4,0.1,0.7C13.3,25.2,13.4,25.4,13.4,25.7z"/>
		</g>
		<g>
			<path fill="none" stroke="#000000" stroke-width="0.25" stroke-linecap="round" stroke-linejoin="round" d="M13.1,24.2
				c0,0,2.2-0.8,4.8-0.7c2.7,0.1,5.9,1.3,7.4,5.5"/>
			<path fill="none" stroke="#000000" stroke-width="0.25" stroke-linecap="round" stroke-linejoin="round" d="M21.4,8.7
				c-0.2,1.9-1.1,12-3.6,14.7"/>
			<path fill="none" stroke="#000000" stroke-width="0.25" stroke-linecap="round" stroke-linejoin="round" d="M21.5,8.4
				c0,0,0,0.1,0,0.1c0,0,0,0,0,0.1c0,0,0,0,0,0.1"/>
			<path fill="none" stroke="#000000" stroke-width="0.25" stroke-linecap="round" stroke-linejoin="round" d="M21.4,8.6
				C21.4,8.7,21.4,8.7,21.4,8.6"/>
			<path fill="none" stroke="#000000" stroke-width="0.25" stroke-linecap="round" stroke-linejoin="round" d="M15.2,44.4L15.2,44.4
				c1.7-1.7,1.4-8.2,1-9.4c-0.3-1.1-1.3-2.9-2.8-9.3c-0.1-0.3-0.1-0.6-0.2-0.9c-0.1-0.2-0.1-0.4-0.1-0.7c-1.2-5.4-1.5-8.8-1.5-9.9
				c0-0.1,0-0.2,0-0.2c0,0,9.1-2.4,9.9-5.3"/>
			<path fill="none" stroke="#000000" stroke-width="0.25" stroke-linecap="round" stroke-linejoin="round" d="M37.7,24.2
				c0,0-2.2-0.8-4.8-0.7c-2.7,0.1-5.9,1.3-7.4,5.5"/>
			<path fill="none" stroke="#000000" stroke-width="0.25" stroke-linecap="round" stroke-linejoin="round" d="M29.3,8.5
				c0.1,0.9,1,12.1,3.6,14.9"/>
			<path fill="none" stroke="#000000" stroke-width="0.25" stroke-linecap="round" stroke-linejoin="round" d="M35.5,44.4
				c-1.7-1.7-1.4-8.2-1-9.4c0.3-1.1,1.3-2.9,2.8-9.3c0.1-0.3,0.1-0.6,0.2-0.9c0.1-0.2,0.1-0.4,0.1-0.7c1.2-5.4,1.5-8.8,1.5-9.9
				c0-0.1,0-0.2,0-0.2c0,0-9.6-2.5-9.9-5.5"/>
		</g>
	</g>
</g>
<g id="Layer_11">
	<g id="XMLID_11_">
		<g>
			<path fill="#FFFFFF" d="M42.2,19.8l-0.6,0.7l-4.6,5l-7.7-10.6c1.5-2.1,1.4-5.1,1.4-5.1C35.7,13.3,41.7,11.4,42.2,19.8z"/>
			<path fill="#D39D63" d="M41.5,20.5L43.3,45h-3.5c-0.8-5.7-2-13.8-2.9-19.5L41.5,20.5z"/>
			<path fill="#FFFFFF" d="M29.2,14.9l7.7,10.6c-1.3,5.8-5.1,14-1.6,19.7H15.1c3.5-5.7-0.2-13.9-1.6-19.7l7.7-10.6
				c0.8,1.1,2,1.9,3.9,1.9h0.1C27.2,16.8,28.4,16,29.2,14.9z"/>
			<path fill="#D39D63" d="M29.2,8.8c0.3,2.9-0.8,6.2-3.9,6.2c0,0,0,0-0.1,0c-3.1,0-4.2-3.3-3.9-6.2v0c0.2-0.6,0.2-3.3,0.2-3.3h3.7
				h0.1H29C29,5.5,29,8.2,29.2,8.8L29.2,8.8z"/>
			<path fill="#FFFFFF" d="M30.6,9.8c0,0,0.1,3-1.4,5.1c-0.8,1.1-2,1.9-3.9,1.9h-0.1c-1.9,0-3.2-0.8-3.9-1.9
				c-1.5-2.1-1.4-5.1-1.4-5.1c0.5-0.3,0.9-0.7,1.4-1.1c0,0,0,0.1,0,0.1v0c-0.3,2.9,0.8,6.2,3.9,6.2c0,0,0,0,0.1,0
				c3.1,0,4.2-3.3,3.9-6.2v0c0,0,0-0.1,0-0.1C29.6,9.1,30.1,9.5,30.6,9.8z"/>
			<path fill="#FFFFFF" d="M21.3,14.9l-7.7,10.6l-4.6-5l-0.6-0.7c0.5-8.4,6.4-6.5,11.6-10C19.9,9.8,19.8,12.8,21.3,14.9z"/>
			<path fill="#D39D63" d="M7.2,45L9,20.5l4.6,5c-0.8,5.7-2,13.8-2.9,19.5H7.2z"/>
		</g>
		<g>
			<path fill="none" stroke="#000000" stroke-width="0.25" stroke-linecap="round" stroke-linejoin="round" d="M21.3,8.8
				C21.3,8.7,21.3,8.7,21.3,8.8c-0.5,0.3-0.9,0.7-1.4,1c-5.1,3.5-11.1,1.6-11.6,10c0,0,0,0.1,0,0.1"/>
			<path fill="none" stroke="#000000" stroke-width="0.25" stroke-linecap="round" stroke-linejoin="round" d="M25.2,15
				c-3.1,0-4.2-3.3-3.9-6.2"/>
			<path fill="none" stroke="#000000" stroke-width="0.25" stroke-linecap="round" stroke-linejoin="round" d="M13.6,25.5
				c1.3,5.8,5.1,14,1.6,19.7"/>
			<polyline fill="none" stroke="#000000" stroke-width="0.25" stroke-linecap="round" stroke-linejoin="round" points="8.3,19.8 
				8.4,19.8 9,20.5 13.6,25.5 21.3,14.9 			"/>
			<path fill="none" stroke="#000000" stroke-width="0.25" stroke-linecap="round" stroke-linejoin="round" d="M29.2,8.8
				C29.2,8.7,29.2,8.7,29.2,8.8c0.5,0.3,0.9,0.7,1.4,1c5.2,3.5,11.1,1.6,11.6,10c0,0,0,0.1,0,0.1"/>
			<path fill="none" stroke="#000000" stroke-width="0.25" stroke-linecap="round" stroke-linejoin="round" d="M25.2,15
				C25.3,15,25.3,15,25.2,15c3.1,0,4.2-3.3,3.9-6.2"/>
			<path fill="none" stroke="#000000" stroke-width="0.25" stroke-linecap="round" stroke-linejoin="round" d="M36.9,25.5
				c-1.3,5.8-5.1,14-1.6,19.7"/>
			<polyline fill="none" stroke="#000000" stroke-width="0.25" stroke-linecap="round" stroke-linejoin="round" points="42.2,19.8 
				42.2,19.8 41.5,20.5 36.9,25.5 29.2,14.9 			"/>
			<path fill="none" stroke="#000000" stroke-width="0.25" stroke-linecap="round" stroke-linejoin="round" d="M19.9,9.8
				c0,0-0.1,3,1.4,5.1c0.8,1.1,2,1.9,3.9,1.9"/>
			<path fill="none" stroke="#000000" stroke-width="0.25" stroke-linecap="round" stroke-linejoin="round" d="M30.6,9.8
				c0,0,0.1,3-1.4,5.1c-0.8,1.1-2,1.9-3.9,1.9"/>
		</g>
	</g>
</g>
</svg>
