<?xml version="1.0" encoding="utf-8"?>
<!-- Generator: Adobe Illustrator 18.0.0, SVG Export Plug-In . SVG Version: 6.00 Build 0)  -->
<!DOCTYPE svg PUBLIC "-//W3C//DTD SVG 1.1//EN" "http://www.w3.org/Graphics/SVG/1.1/DTD/svg11.dtd">
<svg version="1.1" id="Layer_1" xmlns="http://www.w3.org/2000/svg" xmlns:xlink="http://www.w3.org/1999/xlink" x="0px" y="0px"
	 viewBox="0 0 50 50" enable-background="new 0 0 50 50" xml:space="preserve">
<g id="XMLID_2_">
	<g>
		<path fill="#F4DDC1" d="M31.3,12.1c-0.1,1.2-1.2,10.7-4.8,12.5c0,0,0,0-0.1,0c-0.4,0.2-0.8,0.3-1.2,0.3c-0.4-0.1-0.8-0.2-1.2-0.3
			c0,0,0,0-0.1,0C20.2,22.7,19.2,12,19.2,12s3-1.4,3-3.7s0-3.1,0-3.1h6v2.4C28.3,7.6,28.5,12.1,31.3,12.1z"/>
	</g>
	<g>
		<path fill="none" stroke="#000000" stroke-width="0.25" stroke-linecap="round" stroke-linejoin="round" d="M24,24.6
			c-3.3-1.2-5.4-5.3-6.1-8.4"/>
		<path fill="none" stroke="#000000" stroke-width="0.25" stroke-linecap="round" stroke-linejoin="round" d="M25.3,25
			c-0.4-0.1-0.8-0.2-1.2-0.3"/>
		<path fill="none" stroke="#000000" stroke-width="0.25" stroke-linecap="round" stroke-linejoin="round" d="M24,24.6
			C24,24.6,24,24.6,24,24.6C20.2,22.7,19.2,12,19.2,12l-6.1,2.8c0,0-4,0.9-4.3,6.1c-0.3,5.2-1.5,23.9-1.5,23.9h3.4l2.1-17.1
			l4.6,17.1"/>
		<path fill="none" stroke="#000000" stroke-width="0.25" stroke-linecap="round" stroke-linejoin="round" d="M16,15.6
			c1.3,4,3.9,12.8,9.3,13.3"/>
		<path fill="none" stroke="#000000" stroke-width="0.25" stroke-linecap="round" stroke-linejoin="round" d="M26.5,24.6
			c3.3-1.2,5.4-5.3,6.1-8.4"/>
		<path fill="none" stroke="#000000" stroke-width="0.25" stroke-linecap="round" stroke-linejoin="round" d="M25.3,25
			c0.4-0.1,0.8-0.2,1.2-0.3"/>
		<path fill="none" stroke="#000000" stroke-width="0.25" stroke-linecap="round" stroke-linejoin="round" d="M26.5,24.6
			C26.5,24.6,26.5,24.6,26.5,24.6c3.6-1.8,4.7-11.4,4.8-12.5c0-0.1,0-0.1,0-0.1l6.1,2.8c0,0,4,0.9,4.3,6.1
			c0.3,5.2,1.5,23.9,1.5,23.9h-3.4l-2.1-17.1L33,44.8"/>
		<path fill="none" stroke="#000000" stroke-width="0.25" stroke-linecap="round" stroke-linejoin="round" d="M34.6,15.6
			c-1.3,4-3.9,12.8-9.3,13.3"/>
		<path fill="none" stroke="#000000" stroke-width="0.25" stroke-linecap="round" stroke-linejoin="round" d="M33.9,22.5
			c0,0-3.3,10-10.4,9.2"/>
		<path fill="none" stroke="#000000" stroke-width="0.25" stroke-linecap="round" stroke-linejoin="round" d="M23.4,31.7
			c-0.1-0.1-4.1,0.1-5.5-5.5"/>
	</g>
</g>
</svg>
