<?xml version="1.0" encoding="utf-8"?>
<!-- Generator: Adobe Illustrator 18.0.0, SVG Export Plug-In . SVG Version: 6.00 Build 0)  -->
<!DOCTYPE svg PUBLIC "-//W3C//DTD SVG 1.1//EN" "http://www.w3.org/Graphics/SVG/1.1/DTD/svg11.dtd">
<svg version="1.1" xmlns="http://www.w3.org/2000/svg" xmlns:xlink="http://www.w3.org/1999/xlink" x="0px" y="0px"
	 viewBox="0 0 50 50" enable-background="new 0 0 50 50" xml:space="preserve">
<g id="Layer_1" display="none">
	<g id="XMLID_2_" display="inline">
		<g>
			<path fill="#FFFFFF" d="M26.5,24.6c3.5-1.8,4.6-11.3,4.8-12.5c0-0.1,0-0.1,0-0.1l6.1,2.8c0,0,4,0.9,4.3,6.1
				c0.3,5.2,1.5,23.9,1.5,23.9h-3.4l-2.1-17.1L33,44.8c-2.9,0-4.9,0-7.8,0s-4.9,0-7.8,0l-4.6-17.1l-2.1,17.1H7.3
				c0,0,1.1-18.7,1.5-23.9c0.3-5.2,4.3-6.1,4.3-6.1l6.1-2.8c0,0,1,10.7,4.8,12.6c0,0,0,0,0.1,0c0.4,0.1,0.8,0.3,1.2,0.3
				C25.7,24.9,26.1,24.8,26.5,24.6C26.5,24.6,26.5,24.6,26.5,24.6z"/>
			<path fill="#F4DDC1" d="M31.3,12.1c-0.1,1.2-1.2,10.7-4.8,12.5c0,0,0,0-0.1,0c-0.4,0.1-0.8,0.3-1.2,0.3c-0.4-0.1-0.8-0.2-1.2-0.3
				c0,0,0,0-0.1,0C20.2,22.7,19.2,12,19.2,12s3-1.4,3-3.7s0-3.1,0-3.1h6v2.4C28.3,7.6,28.5,12.1,31.3,12.1z"/>
		</g>
		<g>
			<path fill="none" stroke="#000000" stroke-width="0.25" stroke-linecap="round" stroke-linejoin="round" d="M24,24.6
				c-3.3-1.2-5.4-5.3-6.1-8.4"/>
			<path fill="none" stroke="#000000" stroke-width="0.25" stroke-linecap="round" stroke-linejoin="round" d="M25.3,25
				c-0.4-0.1-0.8-0.2-1.2-0.3"/>
			<path fill="none" stroke="#000000" stroke-width="0.25" stroke-linecap="round" stroke-linejoin="round" d="M24,24.6
				C24,24.6,24,24.6,24,24.6C20.2,22.7,19.2,12,19.2,12l-6.1,2.8c0,0-4,0.9-4.3,6.1c-0.3,5.2-1.5,23.9-1.5,23.9h3.4l2.1-17.1
				l4.6,17.1"/>
			<path fill="none" stroke="#000000" stroke-width="0.25" stroke-linecap="round" stroke-linejoin="round" d="M16,15.6
				c1.3,4,3.9,12.8,9.3,13.3"/>
			<path fill="none" stroke="#000000" stroke-width="0.25" stroke-linecap="round" stroke-linejoin="round" d="M26.5,24.6
				c3.3-1.2,5.4-5.3,6.1-8.4"/>
			<path fill="none" stroke="#000000" stroke-width="0.25" stroke-linecap="round" stroke-linejoin="round" d="M25.3,25
				c0.4-0.1,0.8-0.2,1.2-0.3"/>
			<path fill="none" stroke="#000000" stroke-width="0.25" stroke-linecap="round" stroke-linejoin="round" d="M26.5,24.6
				C26.5,24.6,26.5,24.6,26.5,24.6c3.6-1.8,4.7-11.4,4.8-12.5c0-0.1,0-0.1,0-0.1l6.1,2.8c0,0,4,0.9,4.3,6.1
				c0.3,5.2,1.5,23.9,1.5,23.9h-3.4l-2.1-17.1L33,44.8"/>
			<path fill="none" stroke="#000000" stroke-width="0.25" stroke-linecap="round" stroke-linejoin="round" d="M34.6,15.6
				c-1.3,4-3.9,12.8-9.3,13.3"/>
			<path fill="none" stroke="#000000" stroke-width="0.25" stroke-linecap="round" stroke-linejoin="round" d="M33.9,22.5
				c0,0-3.3,10-10.4,9.2"/>
			<path fill="none" stroke="#000000" stroke-width="0.25" stroke-linecap="round" stroke-linejoin="round" d="M23.4,31.7
				c-0.1-0.1-4.1,0.1-5.5-5.5"/>
		</g>
	</g>
</g>
<g id="Layer_3" display="none">
	<g id="XMLID_3_" display="inline">
		<g>
			<path fill="#FFFFFF" d="M26.5,24.6c3.5-1.8,4.6-11.3,4.8-12.5c0-0.1,0-0.1,0-0.1l6.1,2.8c0,0,4,0.9,4.3,6.1
				c0.3,5.2,1.5,23.9,1.5,23.9h-3.4l-2.1-17.1L33,44.8c-2.9,0-4.9,0-7.8,0s-4.9,0-7.8,0l-4.6-17.1l-2.1,17.1H7.3
				c0,0,1.1-18.7,1.5-23.9c0.3-5.2,4.3-6.1,4.3-6.1l6.1-2.8c0,0,1,10.7,4.8,12.6c0,0,0,0,0.1,0c0.4,0.1,0.8,0.3,1.2,0.3
				C25.7,24.9,26.1,24.8,26.5,24.6C26.5,24.6,26.5,24.6,26.5,24.6z"/>
			<path fill="#D39D63" d="M31.3,12.1c-0.1,1.2-1.2,10.7-4.8,12.5c0,0,0,0-0.1,0c-0.4,0.1-0.8,0.3-1.2,0.3c-0.4-0.1-0.8-0.2-1.2-0.3
				c0,0,0,0-0.1,0C20.2,22.7,19.2,12,19.2,12s3-1.4,3-3.7s0-3.1,0-3.1h6v2.4C28.3,7.6,28.5,12.1,31.3,12.1z"/>
		</g>
		<g>
			<path fill="none" stroke="#000000" stroke-width="0.25" stroke-linecap="round" stroke-linejoin="round" d="M24,24.6
				c-3.3-1.2-5.4-5.3-6.1-8.4"/>
			<path fill="none" stroke="#000000" stroke-width="0.25" stroke-linecap="round" stroke-linejoin="round" d="M25.3,25
				c-0.4-0.1-0.8-0.2-1.2-0.3"/>
			<path fill="none" stroke="#000000" stroke-width="0.25" stroke-linecap="round" stroke-linejoin="round" d="M24,24.6
				C24,24.6,24,24.6,24,24.6C20.2,22.7,19.2,12,19.2,12l-6.1,2.8c0,0-4,0.9-4.3,6.1c-0.3,5.2-1.5,23.9-1.5,23.9h3.4l2.1-17.1
				l4.6,17.1"/>
			<path fill="none" stroke="#000000" stroke-width="0.25" stroke-linecap="round" stroke-linejoin="round" d="M16,15.6
				c1.3,4,3.9,12.8,9.3,13.3"/>
			<path fill="none" stroke="#000000" stroke-width="0.25" stroke-linecap="round" stroke-linejoin="round" d="M26.5,24.6
				c3.3-1.2,5.4-5.3,6.1-8.4"/>
			<path fill="none" stroke="#000000" stroke-width="0.25" stroke-linecap="round" stroke-linejoin="round" d="M25.3,25
				c0.4-0.1,0.8-0.2,1.2-0.3"/>
			<path fill="none" stroke="#000000" stroke-width="0.25" stroke-linecap="round" stroke-linejoin="round" d="M26.5,24.6
				C26.5,24.6,26.5,24.6,26.5,24.6c3.6-1.8,4.7-11.4,4.8-12.5c0-0.1,0-0.1,0-0.1l6.1,2.8c0,0,4,0.9,4.3,6.1
				c0.3,5.2,1.5,23.9,1.5,23.9h-3.4l-2.1-17.1L33,44.8"/>
			<path fill="none" stroke="#000000" stroke-width="0.25" stroke-linecap="round" stroke-linejoin="round" d="M34.6,15.6
				c-1.3,4-3.9,12.8-9.3,13.3"/>
			<path fill="none" stroke="#000000" stroke-width="0.25" stroke-linecap="round" stroke-linejoin="round" d="M33.9,22.5
				c0,0-3.3,10-10.4,9.2"/>
			<path fill="none" stroke="#000000" stroke-width="0.25" stroke-linecap="round" stroke-linejoin="round" d="M23.4,31.7
				c-0.1-0.1-4.1,0.1-5.5-5.5"/>
		</g>
	</g>
</g>
<g id="Layer_4" display="none">
	<g id="XMLID_4_" display="inline">
		<g>
			<path fill="#FFFFFF" d="M26.5,24.6c3.5-1.8,4.6-11.3,4.8-12.5c0-0.1,0-0.1,0-0.1l6.1,2.8c0,0,4,0.9,4.3,6.1
				c0.3,5.2,1.5,23.9,1.5,23.9h-3.4l-2.1-17.1L33,44.8c-2.9,0-4.9,0-7.8,0s-4.9,0-7.8,0l-4.6-17.1l-2.1,17.1H7.3
				c0,0,1.1-18.7,1.5-23.9c0.3-5.2,4.3-6.1,4.3-6.1l6.1-2.8c0,0,1,10.7,4.8,12.6c0,0,0,0,0.1,0c0.4,0.1,0.8,0.3,1.2,0.3
				C25.7,24.9,26.1,24.8,26.5,24.6C26.5,24.6,26.5,24.6,26.5,24.6z"/>
			<path fill="#AA6F3F" d="M31.3,12.1c-0.1,1.2-1.2,10.7-4.8,12.5c0,0,0,0-0.1,0c-0.4,0.1-0.8,0.3-1.2,0.3c-0.4-0.1-0.8-0.2-1.2-0.3
				c0,0,0,0-0.1,0C20.2,22.7,19.2,12,19.2,12s3-1.4,3-3.7s0-3.1,0-3.1h6v2.4C28.3,7.6,28.5,12.1,31.3,12.1z"/>
		</g>
		<g>
			<path fill="none" stroke="#000000" stroke-width="0.25" stroke-linecap="round" stroke-linejoin="round" d="M24,24.6
				c-3.3-1.2-5.4-5.3-6.1-8.4"/>
			<path fill="none" stroke="#000000" stroke-width="0.25" stroke-linecap="round" stroke-linejoin="round" d="M25.3,25
				c-0.4-0.1-0.8-0.2-1.2-0.3"/>
			<path fill="none" stroke="#000000" stroke-width="0.25" stroke-linecap="round" stroke-linejoin="round" d="M24,24.6
				C24,24.6,24,24.6,24,24.6C20.2,22.7,19.2,12,19.2,12l-6.1,2.8c0,0-4,0.9-4.3,6.1c-0.3,5.2-1.5,23.9-1.5,23.9h3.4l2.1-17.1
				l4.6,17.1"/>
			<path fill="none" stroke="#000000" stroke-width="0.25" stroke-linecap="round" stroke-linejoin="round" d="M16,15.6
				c1.3,4,3.9,12.8,9.3,13.3"/>
			<path fill="none" stroke="#000000" stroke-width="0.25" stroke-linecap="round" stroke-linejoin="round" d="M26.5,24.6
				c3.3-1.2,5.4-5.3,6.1-8.4"/>
			<path fill="none" stroke="#000000" stroke-width="0.25" stroke-linecap="round" stroke-linejoin="round" d="M25.3,25
				c0.4-0.1,0.8-0.2,1.2-0.3"/>
			<path fill="none" stroke="#000000" stroke-width="0.25" stroke-linecap="round" stroke-linejoin="round" d="M26.5,24.6
				C26.5,24.6,26.5,24.6,26.5,24.6c3.6-1.8,4.7-11.4,4.8-12.5c0-0.1,0-0.1,0-0.1l6.1,2.8c0,0,4,0.9,4.3,6.1
				c0.3,5.2,1.5,23.9,1.5,23.9h-3.4l-2.1-17.1L33,44.8"/>
			<path fill="none" stroke="#000000" stroke-width="0.25" stroke-linecap="round" stroke-linejoin="round" d="M34.6,15.6
				c-1.3,4-3.9,12.8-9.3,13.3"/>
			<path fill="none" stroke="#000000" stroke-width="0.25" stroke-linecap="round" stroke-linejoin="round" d="M33.9,22.5
				c0,0-3.3,10-10.4,9.2"/>
			<path fill="none" stroke="#000000" stroke-width="0.25" stroke-linecap="round" stroke-linejoin="round" d="M23.4,31.7
				c-0.1-0.1-4.1,0.1-5.5-5.5"/>
		</g>
	</g>
</g>
<g id="Layer_5">
	<g id="XMLID_5_">
		<g>
			<path fill="#FFFFFF" d="M26.5,24.6c3.5-1.8,4.6-11.3,4.8-12.5c0-0.1,0-0.1,0-0.1l6.1,2.8c0,0,4,0.9,4.3,6.1
				c0.3,5.2,1.5,23.9,1.5,23.9h-3.4l-2.1-17.1L33,44.8c-2.9,0-4.9,0-7.8,0s-4.9,0-7.8,0l-4.6-17.1l-2.1,17.1H7.3
				c0,0,1.1-18.7,1.5-23.9c0.3-5.2,4.3-6.1,4.3-6.1l6.1-2.8c0,0,1,10.7,4.8,12.6c0,0,0,0,0.1,0c0.4,0.1,0.8,0.3,1.2,0.3
				C25.7,24.9,26.1,24.8,26.5,24.6C26.5,24.6,26.5,24.6,26.5,24.6z"/>
			<path fill="#694A2F" d="M31.3,12.1c-0.1,1.2-1.2,10.7-4.8,12.5c0,0,0,0-0.1,0c-0.4,0.1-0.8,0.3-1.2,0.3c-0.4-0.1-0.8-0.2-1.2-0.3
				c0,0,0,0-0.1,0C20.2,22.7,19.2,12,19.2,12s3-1.4,3-3.7s0-3.1,0-3.1h6v2.4C28.3,7.6,28.5,12.1,31.3,12.1z"/>
		</g>
		<g>
			<path fill="none" stroke="#000000" stroke-width="0.25" stroke-linecap="round" stroke-linejoin="round" d="M24,24.6
				c-3.3-1.2-5.4-5.3-6.1-8.4"/>
			<path fill="none" stroke="#000000" stroke-width="0.25" stroke-linecap="round" stroke-linejoin="round" d="M25.3,25
				c-0.4-0.1-0.8-0.2-1.2-0.3"/>
			<path fill="none" stroke="#000000" stroke-width="0.25" stroke-linecap="round" stroke-linejoin="round" d="M24,24.6
				C24,24.6,24,24.6,24,24.6C20.2,22.7,19.2,12,19.2,12l-6.1,2.8c0,0-4,0.9-4.3,6.1c-0.3,5.2-1.5,23.9-1.5,23.9h3.4l2.1-17.1
				l4.6,17.1"/>
			<path fill="none" stroke="#000000" stroke-width="0.25" stroke-linecap="round" stroke-linejoin="round" d="M16,15.6
				c1.3,4,3.9,12.8,9.3,13.3"/>
			<path fill="none" stroke="#000000" stroke-width="0.25" stroke-linecap="round" stroke-linejoin="round" d="M26.5,24.6
				c3.3-1.2,5.4-5.3,6.1-8.4"/>
			<path fill="none" stroke="#000000" stroke-width="0.25" stroke-linecap="round" stroke-linejoin="round" d="M25.3,25
				c0.4-0.1,0.8-0.2,1.2-0.3"/>
			<path fill="none" stroke="#000000" stroke-width="0.25" stroke-linecap="round" stroke-linejoin="round" d="M26.5,24.6
				C26.5,24.6,26.5,24.6,26.5,24.6c3.6-1.8,4.7-11.4,4.8-12.5c0-0.1,0-0.1,0-0.1l6.1,2.8c0,0,4,0.9,4.3,6.1
				c0.3,5.2,1.5,23.9,1.5,23.9h-3.4l-2.1-17.1L33,44.8"/>
			<path fill="none" stroke="#000000" stroke-width="0.25" stroke-linecap="round" stroke-linejoin="round" d="M34.6,15.6
				c-1.3,4-3.9,12.8-9.3,13.3"/>
			<path fill="none" stroke="#000000" stroke-width="0.25" stroke-linecap="round" stroke-linejoin="round" d="M33.9,22.5
				c0,0-3.3,10-10.4,9.2"/>
			<path fill="none" stroke="#000000" stroke-width="0.25" stroke-linecap="round" stroke-linejoin="round" d="M23.4,31.7
				c-0.1-0.1-4.1,0.1-5.5-5.5"/>
		</g>
	</g>
</g>
<g id="Layer_2" display="none">
	<g id="XMLID_1_" display="inline">
		<g>
			<path fill="#FFFFFF" d="M12.7,25.1c0,0,1.7-0.6,3.9-0.8c3-0.2,7,0.5,8.6,5.1c1.7-4.6,5.6-5.3,8.6-5.1c2.2,0.1,3.9,0.8,3.9,0.8
				l0.1,0l-0.3,1l-0.3,1.1l-4.5,17.6H17.4l-4.3-17.5l-0.3-1.1l-0.3-1L12.7,25.1z"/>
			<path fill="#F4DDC1" d="M37.9,25.1l2.3-9.4c0.2,0.1,0.9,0.5,1,2.3c0.1,2.1,2.5,26.9,2.5,26.9h-3.6l-2.7-17.7l0.3-1.1L37.9,25.1z"
				/>
			<path fill="#FFFFFF" d="M12.7,25.1l-0.1,0l-2.3-9.4l-0.1-0.2c4.2,0.7,10.7-6.6,11-7.1c0,0,0,0,0,0s-2,13.1-4.7,15.9
				C14.4,24.5,12.7,25.1,12.7,25.1z"/>
			<path fill="#FFFFFF" d="M40.2,15.7l-2.3,9.4l-0.1,0c0,0-1.7-0.6-3.9-0.8c-2.7-2.8-4.5-16-4.5-16s6.6,7.9,10.9,7.2L40.2,15.7z"/>
			<path fill="#F4DDC1" d="M6.8,44.9c0,0,2.4-24.8,2.5-26.9c0.1-1.8,0.8-2.2,1-2.3l2.3,9.4l0.3,1l0.3,1.1l-2.8,17.7H6.8z"/>
			<path fill="#F4DDC1" d="M29.1,5.1c0,0,0,2.9,0.2,3.1c0,0,1.9,13.2,4.5,16c-3-0.2-7,0.5-8.6,5.1c-1.7-4.6-5.6-5.3-8.6-5.1
				c2.7-2.8,4.7-15.9,4.7-15.9s0,0,0,0l-0.1-0.1c0.2-0.2,0.2-3.1,0.2-3.1h3.9H29.1z"/>
		</g>
		<g>
			<path fill="none" stroke="#000000" stroke-width="0.25" stroke-miterlimit="10" d="M21.3,8.4C21.3,8.4,21.3,8.4,21.3,8.4
				c-0.4,0.4-6.8,7.7-11.1,7.1l0.1,0.2l2.3,9.4l0.3,1l0.3,1.1l4.3,17.5"/>
			<path fill="none" stroke="#000000" stroke-width="0.25" stroke-miterlimit="10" d="M12.7,25.1c0,0,1.7-0.6,3.9-0.8
				c3-0.2,7,0.5,8.6,5.1"/>
			<path fill="none" stroke="#000000" stroke-width="0.25" stroke-miterlimit="10" d="M21.3,8.4c0,0-2,13.1-4.7,15.9"/>
			<path fill="none" stroke="#000000" stroke-width="0.25" stroke-miterlimit="10" d="M32.9,44.8l4.5-17.6l0.3-1.1l0.3-1l2.3-9.4
				l0.1-0.3c-4.4,0.7-10.9-7.2-10.9-7.2"/>
			<path fill="none" stroke="#000000" stroke-width="0.25" stroke-miterlimit="10" d="M37.8,25.1c0,0-1.7-0.6-3.9-0.8
				c-3-0.2-7,0.5-8.6,5.1"/>
			<path fill="none" stroke="#000000" stroke-width="0.25" stroke-miterlimit="10" d="M29.3,8.3c0,0,1.9,13.2,4.5,16"/>
		</g>
	</g>
</g>
<g id="Layer_6" display="none">
	<g id="XMLID_6_" display="inline">
		<g>
			<path fill="#D39D63" d="M43.7,44.9h-3.6l-2.7-17.7l0.3-1.1l0.3-1l2.3-9.4c0.2,0.1,0.9,0.5,1,2.3C41.3,20.1,43.7,44.9,43.7,44.9z"
				/>
			<path fill="#FFFFFF" d="M40.2,15.7l-2.3,9.4l-0.1,0c0,0-1.7-0.6-3.9-0.8c-2.7-2.8-4.5-16-4.5-16s6.6,7.9,10.9,7.2L40.2,15.7z"/>
			<path fill="#FFFFFF" d="M37.4,27.2l-4.5,17.6H17.4l-4.3-17.5l-0.3-1.1l-0.3-1l0.1,0c0,0,1.7-0.6,3.9-0.8c3-0.2,7,0.5,8.6,5.1
				c1.7-4.6,5.6-5.3,8.6-5.1c2.2,0.1,3.9,0.8,3.9,0.8l0.1,0l-0.3,1L37.4,27.2z"/>
			<path fill="#D39D63" d="M33.9,24.3c-3-0.2-7,0.5-8.6,5.1c-1.7-4.6-5.6-5.3-8.6-5.1c2.7-2.8,4.7-15.9,4.7-15.9s0,0,0,0l-0.1-0.1
				c0.2-0.2,0.2-3.1,0.2-3.1h3.9h3.9c0,0,0,2.9,0.2,3.1C29.3,8.3,31.2,21.5,33.9,24.3z"/>
			<path fill="#FFFFFF" d="M10.3,15.7l-0.1-0.2c4.2,0.7,10.7-6.6,11-7.1c0,0,0,0,0,0s-2,13.1-4.7,15.9c-2.2,0.1-3.9,0.8-3.9,0.8
				l-0.1,0L10.3,15.7z"/>
			<path fill="#D39D63" d="M12.9,26.2l0.3,1.1l-2.8,17.7H6.8c0,0,2.4-24.8,2.5-26.9c0.1-1.8,0.8-2.2,1-2.3l2.3,9.4L12.9,26.2z"/>
		</g>
		<g>
			<path fill="none" stroke="#000000" stroke-width="0.25" stroke-miterlimit="10" d="M21.3,8.4C21.3,8.4,21.3,8.4,21.3,8.4
				c-0.4,0.4-6.8,7.7-11.1,7.1l0.1,0.2l2.3,9.4l0.3,1l0.3,1.1l4.3,17.5"/>
			<path fill="none" stroke="#000000" stroke-width="0.25" stroke-miterlimit="10" d="M12.7,25.1c0,0,1.7-0.6,3.9-0.8
				c3-0.2,7,0.5,8.6,5.1"/>
			<path fill="none" stroke="#000000" stroke-width="0.25" stroke-miterlimit="10" d="M21.3,8.4c0,0-2,13.1-4.7,15.9"/>
			<path fill="none" stroke="#000000" stroke-width="0.25" stroke-miterlimit="10" d="M32.9,44.8l4.5-17.6l0.3-1.1l0.3-1l2.3-9.4
				l0.1-0.3c-4.4,0.7-10.9-7.2-10.9-7.2"/>
			<path fill="none" stroke="#000000" stroke-width="0.25" stroke-miterlimit="10" d="M37.8,25.1c0,0-1.7-0.6-3.9-0.8
				c-3-0.2-7,0.5-8.6,5.1"/>
			<path fill="none" stroke="#000000" stroke-width="0.25" stroke-miterlimit="10" d="M29.3,8.3c0,0,1.9,13.2,4.5,16"/>
		</g>
	</g>
</g>
<g id="Layer_7" display="none">
	<g id="XMLID_7_" display="inline">
		<g>
			<path fill="#AA6F3F" d="M43.7,44.9h-3.6l-2.7-17.7l0.3-1.1l0.3-1l2.3-9.4c0.2,0.1,0.9,0.5,1,2.3C41.3,20.1,43.7,44.9,43.7,44.9z"
				/>
			<path fill="#FFFFFF" d="M40.2,15.7l-2.3,9.4l-0.1,0c0,0-1.7-0.6-3.9-0.8c-2.7-2.8-4.5-16-4.5-16s6.6,7.9,10.9,7.2L40.2,15.7z"/>
			<path fill="#FFFFFF" d="M37.4,27.2l-4.5,17.6H17.4l-4.3-17.5l-0.3-1.1l-0.3-1l0.1,0c0,0,1.7-0.6,3.9-0.8c3-0.2,7,0.5,8.6,5.1
				c1.7-4.6,5.6-5.3,8.6-5.1c2.2,0.1,3.9,0.8,3.9,0.8l0.1,0l-0.3,1L37.4,27.2z"/>
			<path fill="#AA6F3F" d="M33.9,24.3c-3-0.2-7,0.5-8.6,5.1c-1.7-4.6-5.6-5.3-8.6-5.1c2.7-2.8,4.7-15.9,4.7-15.9s0,0,0,0l-0.1-0.1
				c0.2-0.2,0.2-3.1,0.2-3.1h3.9h3.9c0,0,0,2.9,0.2,3.1C29.3,8.3,31.2,21.5,33.9,24.3z"/>
			<path fill="#FFFFFF" d="M10.3,15.7l-0.1-0.2c4.2,0.7,10.7-6.6,11-7.1c0,0,0,0,0,0s-2,13.1-4.7,15.9c-2.2,0.1-3.9,0.8-3.9,0.8
				l-0.1,0L10.3,15.7z"/>
			<path fill="#AA6F3F" d="M12.9,26.2l0.3,1.1l-2.8,17.7H6.8c0,0,2.4-24.8,2.5-26.9c0.1-1.8,0.8-2.2,1-2.3l2.3,9.4L12.9,26.2z"/>
		</g>
		<g>
			<path fill="none" stroke="#000000" stroke-width="0.25" stroke-miterlimit="10" d="M21.3,8.4C21.3,8.4,21.3,8.4,21.3,8.4
				c-0.4,0.4-6.8,7.7-11.1,7.1l0.1,0.2l2.3,9.4l0.3,1l0.3,1.1l4.3,17.5"/>
			<path fill="none" stroke="#000000" stroke-width="0.25" stroke-miterlimit="10" d="M12.7,25.1c0,0,1.7-0.6,3.9-0.8
				c3-0.2,7,0.5,8.6,5.1"/>
			<path fill="none" stroke="#000000" stroke-width="0.25" stroke-miterlimit="10" d="M21.3,8.4c0,0-2,13.1-4.7,15.9"/>
			<path fill="none" stroke="#000000" stroke-width="0.25" stroke-miterlimit="10" d="M32.9,44.8l4.5-17.6l0.3-1.1l0.3-1l2.3-9.4
				l0.1-0.3c-4.4,0.7-10.9-7.2-10.9-7.2"/>
			<path fill="none" stroke="#000000" stroke-width="0.25" stroke-miterlimit="10" d="M37.8,25.1c0,0-1.7-0.6-3.9-0.8
				c-3-0.2-7,0.5-8.6,5.1"/>
			<path fill="none" stroke="#000000" stroke-width="0.25" stroke-miterlimit="10" d="M29.3,8.3c0,0,1.9,13.2,4.5,16"/>
		</g>
	</g>
</g>
<g id="Layer_8" display="none">
	<g id="XMLID_8_" display="inline">
		<g>
			<path fill="#694A2F" d="M43.7,44.9h-3.6l-2.7-17.7l0.3-1.1l0.3-1l2.3-9.4c0.2,0.1,0.9,0.5,1,2.3C41.3,20.1,43.7,44.9,43.7,44.9z"
				/>
			<path fill="#FFFFFF" d="M40.2,15.7l-2.3,9.4l-0.1,0c0,0-1.7-0.6-3.9-0.8c-2.7-2.8-4.5-16-4.5-16s6.6,7.9,10.9,7.2L40.2,15.7z"/>
			<path fill="#FFFFFF" d="M13.1,27.2l-0.3-1.1l-0.3-1l0.1,0c0,0,1.7-0.6,3.9-0.8c3-0.2,7,0.5,8.6,5.1c1.7-4.6,5.6-5.3,8.6-5.1
				c2.2,0.1,3.9,0.8,3.9,0.8l0.1,0l-0.3,1l-0.3,1.1l-4.5,17.6H17.4L13.1,27.2z"/>
			<path fill="#694A2F" d="M33.9,24.3c-3-0.2-7,0.5-8.6,5.1c-1.7-4.6-5.6-5.3-8.6-5.1c2.7-2.8,4.7-15.9,4.7-15.9s0,0,0,0l-0.1-0.1
				c0.2-0.2,0.2-3.1,0.2-3.1h3.9h3.9c0,0,0,2.9,0.2,3.1C29.3,8.3,31.2,21.5,33.9,24.3z"/>
			<path fill="#FFFFFF" d="M10.3,15.7l-0.1-0.2c4.2,0.7,10.7-6.6,11-7.1c0,0,0,0,0,0s-2,13.1-4.7,15.9c-2.2,0.1-3.9,0.8-3.9,0.8
				l-0.1,0L10.3,15.7z"/>
			<path fill="#694A2F" d="M12.9,26.2l0.3,1.1l-2.8,17.7H6.8c0,0,2.4-24.8,2.5-26.9c0.1-1.8,0.8-2.2,1-2.3l2.3,9.4L12.9,26.2z"/>
		</g>
		<g>
			<path fill="none" stroke="#000000" stroke-width="0.25" stroke-miterlimit="10" d="M21.3,8.4C21.3,8.4,21.3,8.4,21.3,8.4
				c-0.4,0.4-6.8,7.7-11.1,7.1l0.1,0.2l2.3,9.4l0.3,1l0.3,1.1l4.3,17.5"/>
			<path fill="none" stroke="#000000" stroke-width="0.25" stroke-miterlimit="10" d="M12.7,25.1c0,0,1.7-0.6,3.9-0.8
				c3-0.2,7,0.5,8.6,5.1"/>
			<path fill="none" stroke="#000000" stroke-width="0.25" stroke-miterlimit="10" d="M21.3,8.4c0,0-2,13.1-4.7,15.9"/>
			<path fill="none" stroke="#000000" stroke-width="0.25" stroke-miterlimit="10" d="M32.9,44.8l4.5-17.6l0.3-1.1l0.3-1l2.3-9.4
				l0.1-0.3c-4.4,0.7-10.9-7.2-10.9-7.2"/>
			<path fill="none" stroke="#000000" stroke-width="0.25" stroke-miterlimit="10" d="M37.8,25.1c0,0-1.7-0.6-3.9-0.8
				c-3-0.2-7,0.5-8.6,5.1"/>
			<path fill="none" stroke="#000000" stroke-width="0.25" stroke-miterlimit="10" d="M29.3,8.3c0,0,1.9,13.2,4.5,16"/>
		</g>
	</g>
</g>
</svg>
